<svg width="153" height="166" viewBox="0 0 153 166" fill="none" xmlns="http://www.w3.org/2000/svg">
<path d="M145.803 12.6104H141.441V14.4902H145.803V19.4316H147.801V14.4902H152.162V12.6104H147.801V8.04492H145.803V12.6104Z" fill="#F6515B"/>
<path d="M145.803 47.6104H141.441V49.4902H145.803V54.4316H147.801V49.4902H152.162V47.6104H147.801V43.0449H145.803V47.6104Z" fill="#D5D5D5"/>
<path d="M145.803 82.6104H141.441V84.4902H145.803V89.4316H147.801V84.4902H152.162V82.6104H147.801V78.0449H145.803V82.6104Z" fill="#D5D5D5"/>
<path d="M110.803 12.6104H106.441V14.4902H110.803V19.4316H112.801V14.4902H117.162V12.6104H112.801V8.04492H110.803V12.6104Z" fill="#D5D5D5"/>
<path d="M110.803 47.6104H106.441V49.4902H110.803V54.4316H112.801V49.4902H117.162V47.6104H112.801V43.0449H110.803V47.6104Z" fill="#D5D5D5"/>
<path d="M110.803 82.6104H106.441V84.4902H110.803V89.4316H112.801V84.4902H117.162V82.6104H112.801V78.0449H110.803V82.6104Z" fill="#D5D5D5"/>
<path d="M110.803 117.61H106.441V119.49H110.803V124.432H112.801V119.49H117.162V117.61H112.801V113.045H110.803V117.61Z" fill="#D5D5D5"/>
<path d="M75.8027 12.6104H71.4414V14.4902H75.8027V19.4316H77.8008V14.4902H82.1621V12.6104H77.8008V8.04492H75.8027V12.6104Z" fill="#D5D5D5"/>
<path d="M75.8027 47.6104H71.4414V49.4902H75.8027V54.4316H77.8008V49.4902H82.1621V47.6104H77.8008V43.0449H75.8027V47.6104Z" fill="#D5D5D5"/>
<path d="M75.8027 82.6104H71.4414V84.4902H75.8027V89.4316H77.8008V84.4902H82.1621V82.6104H77.8008V78.0449H75.8027V82.6104Z" fill="#F7A43F"/>
<path d="M75.8027 117.61H71.4414V119.49H75.8027V124.432H77.8008V119.49H82.1621V117.61H77.8008V113.045H75.8027V117.61Z" fill="#D5D5D5"/>
<path d="M75.8027 152.61H71.4414V154.49H75.8027V159.432H77.8008V154.49H82.1621V152.61H77.8008V148.045H75.8027V152.61Z" fill="#D5D5D5"/>
<path d="M40.8027 12.6104H36.4414V14.4902H40.8027V19.4316H42.8008V14.4902H47.1621V12.6104H42.8008V8.04492H40.8027V12.6104Z" fill="#D5D5D5"/>
<path d="M40.8027 47.6104H36.4414V49.4902H40.8027V54.4316H42.8008V49.4902H47.1621V47.6104H42.8008V43.0449H40.8027V47.6104Z" fill="#D5D5D5"/>
<path d="M40.8027 82.6104H36.4414V84.4902H40.8027V89.4316H42.8008V84.4902H47.1621V82.6104H42.8008V78.0449H40.8027V82.6104Z" fill="#D5D5D5"/>
<path d="M40.8027 117.61H36.4414V119.49H40.8027V124.432H42.8008V119.49H47.1621V117.61H42.8008V113.045H40.8027V117.61Z" fill="#D5D5D5"/>
<path d="M40.8027 152.61H36.4414V154.49H40.8027V159.432H42.8008V154.49H47.1621V152.61H42.8008V148.045H40.8027V152.61Z" fill="#D5D5D5"/>
<path d="M5.80273 12.6104H1.44141V14.4902H5.80273V19.4316H7.80078V14.4902H12.1621V12.6104H7.80078V8.04492H5.80273V12.6104Z" fill="#D5D5D5"/>
<path d="M5.80273 47.6104H1.44141V49.4902H5.80273V54.4316H7.80078V49.4902H12.1621V47.6104H7.80078V43.0449H5.80273V47.6104Z" fill="#D5D5D5"/>
<path d="M5.80273 82.6104H1.44141V84.4902H5.80273V89.4316H7.80078V84.4902H12.1621V82.6104H7.80078V78.0449H5.80273V82.6104Z" fill="#D5D5D5"/>
<path d="M5.80273 117.61H1.44141V119.49H5.80273V124.432H7.80078V119.49H12.1621V117.61H7.80078V113.045H5.80273V117.61Z" fill="#D5D5D5"/>
<path d="M5.80273 152.61H1.44141V154.49H5.80273V159.432H7.80078V154.49H12.1621V152.61H7.80078V148.045H5.80273V152.61Z" fill="#D5D5D5"/>
</svg>
