<svg width="71" height="67" viewBox="0 0 71 67" fill="none" xmlns="http://www.w3.org/2000/svg">
<path fill-rule="evenodd" clip-rule="evenodd" d="M68.7704 1.19272C63.8931 34.5765 33.939 50.792 2.66845 54.4791C2.13148 54.5434 1.7454 55.0309 1.80974 55.5679C1.87408 56.1049 2.36153 56.4909 2.89851 56.4265C35.045 52.6381 65.697 35.794 70.7103 1.47479C70.7895 0.940293 70.4183 0.442916 69.8813 0.363732C69.3469 0.284547 68.8495 0.65575 68.7704 1.19272Z" fill="white"/>
<path fill-rule="evenodd" clip-rule="evenodd" d="M3.36989 55.3841C4.76057 54.3671 6.51996 53.11 6.71545 52.9615C12.0134 48.938 16.4032 44.3082 20.2684 38.8766C20.5827 38.4361 20.4787 37.8224 20.0382 37.5082C19.5978 37.1939 18.9842 37.2979 18.6699 37.7383C14.9235 43.0066 10.6673 47.4978 5.52773 51.4002C5.22831 51.6278 1.27149 54.4512 0.514282 55.0822C0.202492 55.3396 0.106054 55.5821 0.088732 55.6415C-0.015198 55.9533 0.0466457 56.1982 0.13078 56.3764C0.227286 56.5768 0.467252 56.8688 0.932462 57.0173C1.41994 57.1707 2.50383 57.24 2.77603 57.2796C6.88126 57.8884 11.5161 58.21 15.7351 59.378C19.7587 60.4915 23.4086 62.3771 25.7495 66.1557C26.034 66.616 26.6403 66.757 27.1005 66.4724C27.5608 66.1879 27.7019 65.5816 27.4174 65.1214C24.7993 60.8974 20.7559 58.7321 16.2596 57.4874C12.0653 56.3269 7.47265 55.9755 3.36989 55.3841Z" fill="white"/>
</svg>
