<svg width="98" height="254" viewBox="0 0 98 254" fill="none" xmlns="http://www.w3.org/2000/svg">
<path d="M89.0418 14.2344C82.015 5.71795 64.2473 -7.37604 49.3906 8.37933C34.5339 24.1347 54.577 53.6228 66.4557 66.3974C72.3114 69.9459 84.5246 75.9784 86.5323 71.7202C89.0418 66.3974 90.5476 55.2196 69.9691 45.6387C56.752 39.961 28.2098 33.9286 19.7776 55.2196C15.9296 64.4457 15.2604 85.8787 43.3676 97.8017L78.5016 113.238M78.5016 113.238C91.886 113.774 111.126 107.392 81.0112 77.5752C71.4748 72.9621 48.3867 63.6296 32.3254 63.2038C23.1237 65.1554 5.42282 74.8074 8.23354 97.8017C7.89893 102.415 14.1561 113.876 41.8618 122.819C48.2194 124.238 62.4403 127.183 68.4633 127.609L90.0456 130.803L78.5016 113.238ZM78.5016 113.238C69.7192 110.754 48.9915 106.531 36.3408 109.512C20.5273 113.238 14.2565 110.044 1.70865 130.803C-0.46631 141.448 1.10636 163.272 24.7967 165.401C48.4871 167.53 63.7788 163.449 68.4633 161.143V141.448M68.4633 141.448C51.2309 143.045 14.2565 141.874 4.21823 124.415C-0.633615 111.996 -1.00169 86.6239 36.3408 84.4948C45.3752 84.8496 64.6487 85.9852 69.4671 87.6884L68.4633 125.48C50.8963 127.077 13.9554 134.635 6.7278 152.094C2.87979 162.207 1.60827 183.498 27.3063 187.756C36.8427 188.111 58.425 186.798 68.4633 178.708M68.4633 141.448V178.708M68.4633 141.448C57.5885 144.11 33.6304 151.455 24.7967 159.546C14.0892 168.417 -1.60398 190.418 21.2833 207.45C28.4775 210.112 47.5837 212.241 66.4557 199.466M68.4633 178.708L66.4557 199.466M68.4633 178.708C56.4173 187.224 31.8235 207.876 29.8159 222.354C28.9793 231.225 31.2212 249.713 46.881 252.694C50.8963 253.404 60.8342 253.333 68.4633 247.371L66.4557 199.466" stroke="#11BDCF"/>
</svg>
