<svg width="18" height="18" viewBox="0 0 18 18" fill="none" xmlns="http://www.w3.org/2000/svg">
<path fill-rule="evenodd" clip-rule="evenodd" d="M8.04709 5.94744C8.47885 5.3656 8.63367 4.75239 8.14537 4.21111C7.04957 2.6778 6.31262 1.7296 5.85037 1.27297C4.97157 0.404856 3.52593 0.522282 2.76483 1.27223C2.35603 1.67503 2.21763 1.81335 1.79789 2.23969C-0.540153 4.57899 0.885705 9.52419 4.67616 13.3184C8.46575 17.1117 13.4105 18.5383 15.7534 16.1941C16.1408 15.8207 16.4687 15.4925 16.7273 15.2192C17.4732 14.4308 17.5864 13.0489 16.7224 12.1512C16.2795 11.6909 15.3753 10.9896 13.7774 9.84663C13.2881 9.40904 12.7078 9.50388 12.1759 9.85289C11.92 10.0208 11.7338 10.1906 11.3821 10.5426L10.7436 11.1815C10.6595 11.2656 9.51749 10.6937 8.40893 9.58405C7.29977 8.47379 6.72825 7.33174 6.81196 7.24803L7.45093 6.60871C7.5625 6.49703 7.61583 6.44297 7.68423 6.37108C7.82674 6.2213 7.94473 6.08538 8.04709 5.94744ZM11.9214 12.36L12.5601 11.7209C12.7536 11.5272 12.8791 11.4081 12.9811 11.326C14.3808 12.3312 15.1914 12.9632 15.5226 13.3073C15.7213 13.5138 15.6905 13.8907 15.5176 14.0734C15.2785 14.3262 14.9678 14.6371 14.5865 15.0048C13.0714 16.5205 9.07992 15.3689 5.85427 12.1401C2.62762 8.91028 1.47657 4.91817 2.98016 3.41375C3.39822 2.98916 3.53067 2.85678 3.93363 2.45973C4.08472 2.31085 4.49627 2.27742 4.68006 2.45898C5.03595 2.81054 5.69612 3.65584 6.66726 5.00862C6.61698 5.07104 6.55419 5.14157 6.47778 5.22188C6.42169 5.28083 6.37497 5.32819 6.27282 5.43044L5.63447 6.06914C4.54851 7.15501 5.47335 9.00311 7.23081 10.7623C8.98707 12.5203 10.8359 13.4462 11.9214 12.36Z" fill="#DBF5F8"/>
</svg>
