<svg width="34" height="34" viewBox="0 0 34 34" fill="none" xmlns="http://www.w3.org/2000/svg">
<path d="M24.234 0.33313C29.884 0.33313 33.6673 4.2998 33.6673 10.1998V23.8181C33.6673 29.6998 29.884 33.6665 24.234 33.6665H9.78399C4.13398 33.6665 0.333984 29.6998 0.333984 23.8181V10.1998C0.333984 4.2998 4.13398 0.33313 9.78399 0.33313H24.234ZM23.9673 11.9998C23.4007 11.4331 22.4673 11.4331 21.9007 11.9998L15.0173 18.8831L12.1007 15.9665C11.534 15.3998 10.6007 15.3998 10.034 15.9665C9.46732 16.5331 9.46732 17.4498 10.034 18.0331L14.0007 21.9831C14.284 22.2665 14.6507 22.3998 15.0173 22.3998C15.4007 22.3998 15.7673 22.2665 16.0507 21.9831L23.9673 14.0665C24.534 13.4998 24.534 12.5831 23.9673 11.9998Z" fill="#FAA017"/>
</svg>
