<svg width="18" height="18" viewBox="0 0 18 18" fill="none" xmlns="http://www.w3.org/2000/svg">
<path d="M14.8333 2.33335H13.1666V1.50002C13.1666 1.27901 13.0788 1.06704 12.9225 0.910765C12.7663 0.754484 12.5543 0.666687 12.3333 0.666687C12.1123 0.666687 11.9003 0.754484 11.744 0.910765C11.5878 1.06704 11.5 1.27901 11.5 1.50002V2.33335H6.49996V1.50002C6.49996 1.27901 6.41216 1.06704 6.25588 0.910765C6.0996 0.754484 5.88764 0.666687 5.66663 0.666687C5.44561 0.666687 5.23365 0.754484 5.07737 0.910765C4.92109 1.06704 4.83329 1.27901 4.83329 1.50002V2.33335H3.16663C2.50358 2.33335 1.8677 2.59675 1.39886 3.06559C0.930018 3.53443 0.666626 4.17031 0.666626 4.83335V14.8334C0.666626 15.4964 0.930018 16.1323 1.39886 16.6011C1.8677 17.07 2.50358 17.3334 3.16663 17.3334H14.8333C15.4963 17.3334 16.1322 17.07 16.6011 16.6011C17.0699 16.1323 17.3333 15.4964 17.3333 14.8334V4.83335C17.3333 4.17031 17.0699 3.53443 16.6011 3.06559C16.1322 2.59675 15.4963 2.33335 14.8333 2.33335ZM15.6666 14.8334C15.6666 15.0544 15.5788 15.2663 15.4225 15.4226C15.2663 15.5789 15.0543 15.6667 14.8333 15.6667H3.16663C2.94561 15.6667 2.73365 15.5789 2.57737 15.4226C2.42109 15.2663 2.33329 15.0544 2.33329 14.8334V9.00002H15.6666V14.8334ZM15.6666 7.33335H2.33329V4.83335C2.33329 4.61234 2.42109 4.40038 2.57737 4.2441C2.73365 4.08782 2.94561 4.00002 3.16663 4.00002H4.83329V4.83335C4.83329 5.05437 4.92109 5.26633 5.07737 5.42261C5.23365 5.57889 5.44561 5.66669 5.66663 5.66669C5.88764 5.66669 6.0996 5.57889 6.25588 5.42261C6.41216 5.26633 6.49996 5.05437 6.49996 4.83335V4.00002H11.5V4.83335C11.5 5.05437 11.5878 5.26633 11.744 5.42261C11.9003 5.57889 12.1123 5.66669 12.3333 5.66669C12.5543 5.66669 12.7663 5.57889 12.9225 5.42261C13.0788 5.26633 13.1666 5.05437 13.1666 4.83335V4.00002H14.8333C15.0543 4.00002 15.2663 4.08782 15.4225 4.2441C15.5788 4.40038 15.6666 4.61234 15.6666 4.83335V7.33335Z" fill="#11BDCF"/>
</svg>
