<svg width="248" height="140" viewBox="0 0 248 140" fill="none" xmlns="http://www.w3.org/2000/svg">
<g style="mix-blend-mode:screen" opacity="0.2">
<mask id="mask0" style="mask-type:alpha" maskUnits="userSpaceOnUse" x="-167" y="-136" width="415" height="415">
<circle r="207.5" transform="matrix(-1 0 0 1 40.5 71.5)" fill="#C4C4C4"/>
</mask>
<g mask="url(#mask0)">
<path d="M303.54 17.9645C303.54 17.9645 178.653 -2.94439 146.501 -81.5948C115.837 -156.822 -10.9859 -175.127 -10.9859 -175.127" stroke="#F7A43F" stroke-width="5" stroke-miterlimit="10"/>
<path d="M303.54 44.7518C303.54 44.7518 159.153 21.3875 122.014 -68.7964C86.6617 -154.813 -59.8838 -175.127 -59.8838 -175.127" stroke="#F7A43F" stroke-width="5" stroke-miterlimit="10"/>
<path d="M303.54 71.5392C303.54 71.5392 139.653 45.7193 97.528 -55.9238C57.4868 -152.804 -108.708 -175.127 -108.708 -175.127" stroke="#F7A43F" stroke-width="5" stroke-miterlimit="10"/>
<path d="M303.54 98.4006C303.54 98.4006 120.228 70.1252 73.1161 -43.0512C28.2372 -150.87 -157.606 -175.127 -157.606 -175.127" stroke="#F7A43F" stroke-width="5" stroke-miterlimit="10"/>
<path d="M303.54 125.188C303.54 125.188 100.728 94.3824 48.6297 -30.1781C-0.938238 -148.861 -206.504 -175.127 -206.504 -175.127" stroke="#F7A43F" stroke-width="5" stroke-miterlimit="10"/>
<path d="M303.54 151.975C303.54 151.975 81.2284 118.714 24.2182 -17.3796C-30.1131 -146.852 -255.402 -175.127 -255.402 -175.127" stroke="#F7A43F" stroke-width="5" stroke-miterlimit="10"/>
<path d="M303.54 178.837C303.54 178.837 61.8035 143.121 -0.268222 -4.43291C-59.2886 -144.917 -304.226 -175.127 -304.226 -175.127" stroke="#F7A43F" stroke-width="5" stroke-miterlimit="10"/>
<path d="M303.54 205.622C303.54 205.622 42.3034 167.453 -24.6804 8.44024C-88.4635 -142.908 -353.124 -175.127 -353.124 -175.127" stroke="#F7A43F" stroke-width="5" stroke-miterlimit="10"/>
<path d="M303.54 232.484C303.54 232.484 22.8039 191.784 -49.1666 21.3127C-117.639 -140.899 -402.022 -175.127 -402.022 -175.127" stroke="#F7A43F" stroke-width="5" stroke-miterlimit="10"/>
<path d="M303.54 259.274C303.54 259.274 3.37854 216.116 -73.5783 34.1859C-146.814 -138.964 -450.919 -175.127 -450.919 -175.127" stroke="#F7A43F" stroke-width="5" stroke-miterlimit="10"/>
<path d="M303.54 286.058C303.54 286.058 -16.121 240.448 -98.0646 46.9838C-175.989 -136.955 -499.816 -175.127 -499.816 -175.127" stroke="#F7A43F" stroke-width="5" stroke-miterlimit="10"/>
<path d="M303.54 312.92C303.54 312.92 -35.6211 264.78 -122.551 59.9311C-205.164 -134.946 -548.642 -175.127 -548.642 -175.127" stroke="#F7A43F" stroke-width="5" stroke-miterlimit="10"/>
<path d="M303.54 339.709C303.54 339.709 -55.046 289.112 -146.963 72.7295C-234.34 -133.012 -597.54 -175.127 -597.54 -175.127" stroke="#F7A43F" stroke-width="5" stroke-miterlimit="10"/>
<path d="M303.54 366.499C303.54 366.499 -74.546 313.444 -171.449 85.6022C-263.514 -131.002 -646.438 -175.127 -646.438 -175.127" stroke="#F7A43F" stroke-width="5" stroke-miterlimit="10"/>
<path d="M303.54 393.361C303.54 393.361 -94.0456 337.848 -195.861 98.4753C-292.689 -128.993 -695.336 -175.127 -695.336 -175.127" stroke="#F7A43F" stroke-width="5" stroke-miterlimit="10"/>
<path d="M303.54 420.145C303.54 420.145 -113.471 362.107 -220.347 111.348C-321.865 -127.059 -744.161 -175.127 -744.161 -175.127" stroke="#F7A43F" stroke-width="5" stroke-miterlimit="10"/>
</g>
</g>
</svg>
