<svg width="24" height="25" viewBox="0 0 24 25" fill="none" xmlns="http://www.w3.org/2000/svg">
<circle cx="12" cy="12.4707" r="12" fill="#DBF5F8"/>
<g clip-path="url(#clip0)">
<path d="M15 4.4707H9C6.239 4.4707 4 6.7097 4 9.4707V15.4707C4 18.2317 6.239 20.4707 9 20.4707H15C17.761 20.4707 20 18.2317 20 15.4707V9.4707C20 6.7097 17.761 4.4707 15 4.4707ZM18.5 15.4707C18.5 17.4007 16.93 18.9707 15 18.9707H9C7.07 18.9707 5.5 17.4007 5.5 15.4707V9.4707C5.5 7.5407 7.07 5.9707 9 5.9707H15C16.93 5.9707 18.5 7.5407 18.5 9.4707V15.4707Z" fill="#113255"/>
<path d="M12 8.4707C9.791 8.4707 8 10.2617 8 12.4707C8 14.6797 9.791 16.4707 12 16.4707C14.209 16.4707 16 14.6797 16 12.4707C16 10.2617 14.209 8.4707 12 8.4707ZM12 14.9707C10.622 14.9707 9.5 13.8487 9.5 12.4707C9.5 11.0917 10.622 9.9707 12 9.9707C13.378 9.9707 14.5 11.0917 14.5 12.4707C14.5 13.8487 13.378 14.9707 12 14.9707Z" fill="#113255"/>
<path d="M16.3001 8.70369C16.5945 8.70369 16.8331 8.46506 16.8331 8.17069C16.8331 7.87633 16.5945 7.6377 16.3001 7.6377C16.0057 7.6377 15.7671 7.87633 15.7671 8.17069C15.7671 8.46506 16.0057 8.70369 16.3001 8.70369Z" fill="#113255"/>
</g>
<defs>
<clipPath id="clip0">
<rect width="16" height="16" fill="white" transform="translate(4 4.4707)"/>
</clipPath>
</defs>
</svg>
