<svg width="24" height="25" viewBox="0 0 24 25" fill="none" xmlns="http://www.w3.org/2000/svg">
<circle cx="12" cy="12.4707" r="12" fill="#DBF5F8"/>
<g clip-path="url(#clip0)">
<path d="M20.7416 14.2803V20.4707H17.1539V14.6926C17.1539 13.2409 16.6356 12.2531 15.3357 12.2531C14.9311 12.2555 14.5372 12.3827 14.2076 12.6174C13.8781 12.8521 13.6291 13.1829 13.4946 13.5645C13.4019 13.8469 13.3611 14.1437 13.3744 14.4406V20.4707H9.78669C9.78669 20.4707 9.83536 10.6897 9.78669 9.67614H13.3744V11.2051L13.3515 11.2395H13.3744V11.2051C13.6983 10.6424 14.1699 10.1787 14.7381 9.86437C15.3063 9.55 15.9495 9.3968 16.5984 9.42131C18.9721 9.42131 20.7416 10.9646 20.7416 14.2803ZM6.03006 4.4707C4.80458 4.4707 4 5.27528 4 6.3347C4 7.39411 4.77881 8.19297 5.98425 8.19297H6.00429C7.25555 8.19297 8.03436 7.36261 8.03436 6.32611C8.03436 5.2896 7.25841 4.4707 6.03006 4.4707ZM4.21188 20.4707H7.80243V9.67328H4.21188V20.4707Z" fill="#113255"/>
</g>
<defs>
<clipPath id="clip0">
<rect width="16.7416" height="16" fill="white" transform="translate(4 4.4707)"/>
</clipPath>
</defs>
</svg>
