<svg width="49" height="48" viewBox="0 0 49 48" fill="none" xmlns="http://www.w3.org/2000/svg">
<g clip-path="url(#clip0)">
<path d="M48.6275 42.6009C48.6224 44.0347 48.0486 45.4081 47.0316 46.4202C46.0146 47.4322 44.6375 48.0005 43.2018 48.0005H5.40023C3.96845 47.9955 2.59684 47.4248 1.58501 46.4131C0.573173 45.4013 0.00334823 44.0308 0 42.6009L0 10.2413C0.0295108 8.76537 0.587069 7.34872 1.57178 6.24774C2.55648 5.14675 3.90329 4.43417 5.36846 4.23894L43.2526 0.0322009C43.9319 -0.0586814 44.6229 -0.00154981 45.2779 0.199667C45.933 0.400883 46.5367 0.741411 47.0474 1.19783C47.5582 1.65425 47.9638 2.21573 48.2366 2.84366C48.5094 3.47159 48.6427 4.15107 48.6275 4.83538V42.6009Z" fill="#11BDCF"/>
<path d="M33.189 28.755V39.1672C33.1896 39.2533 33.169 39.3382 33.1292 39.4145C33.0893 39.4908 33.0313 39.5562 32.9602 39.605C29.4473 41.8521 25.3837 43.0922 21.2132 43.1899C12.4457 43.1899 5.81934 36.8449 5.81934 28.4695C5.81934 20.0941 12.6109 13.8379 21.7024 13.8379C25.8265 13.8498 29.8296 15.2315 33.0809 17.7655C33.187 17.8575 33.2529 17.9872 33.2647 18.1269C33.2766 18.2667 33.2335 18.4056 33.1445 18.5142L29.701 22.6638C29.6569 22.7175 29.6025 22.7618 29.541 22.7941C29.4794 22.8264 29.412 22.8461 29.3428 22.852C29.2735 22.8579 29.2037 22.85 29.1376 22.8285C29.0715 22.8071 29.0103 22.7727 28.9577 22.7272C26.911 21.0058 24.3392 20.0302 21.6642 19.9608C20.5535 19.957 19.4533 20.176 18.4289 20.6047C17.4045 21.0335 16.4767 21.6633 15.7006 22.4568C14.9244 23.2503 14.3157 24.1913 13.9104 25.2242C13.5052 26.257 13.3118 27.3606 13.3415 28.4695C13.3091 29.5899 13.5029 30.7054 13.9113 31.7494C14.3197 32.7934 14.9344 33.7446 15.7188 34.5463C16.5032 35.348 17.4411 35.9838 18.4768 36.4158C19.5124 36.8478 20.6245 37.0671 21.7468 37.0606C23.4193 36.9793 25.0559 36.5469 26.5499 35.7916C26.6407 35.7477 26.7175 35.6793 26.7714 35.5941C26.8253 35.5088 26.8542 35.4102 26.8548 35.3094V28.755C26.8548 28.6153 26.9104 28.4814 27.0092 28.3826C27.1081 28.2839 27.2423 28.2284 27.3821 28.2284H32.6616C32.8015 28.2284 32.9356 28.2839 33.0345 28.3826C33.1334 28.4814 33.189 28.6153 33.189 28.755Z" fill="#113255"/>
<path d="M42.8078 40.215C42.8259 40.6106 42.7612 41.0056 42.6179 41.3748C42.4745 41.744 42.2557 42.0794 41.9753 42.3594C41.6949 42.6394 41.3592 42.8579 40.9895 43.0011C40.6198 43.1443 40.2243 43.2089 39.8282 43.1908C39.2443 43.1871 38.6745 43.0109 38.1906 42.6846C37.7067 42.3583 37.3302 41.8963 37.1084 41.3568C36.8867 40.8173 36.8297 40.2244 36.9445 39.6526C37.0594 39.0808 37.341 38.5557 37.7539 38.1434C38.1668 37.731 38.6925 37.4498 39.265 37.3351C39.8376 37.2204 40.4313 37.2773 40.9714 37.4988C41.5116 37.7202 41.9742 38.0962 42.301 38.5795C42.6277 39.0628 42.8041 39.6319 42.8078 40.215Z" fill="#113255"/>
</g>
<defs>
<clipPath id="clip0">
<rect width="48.6275" height="48" fill="white"/>
</clipPath>
</defs>
</svg>
