<svg width="20" height="21" viewBox="0 0 20 21" fill="none" xmlns="http://www.w3.org/2000/svg">
<path fill-rule="evenodd" clip-rule="evenodd" d="M3.3335 4.63737C2.87707 4.63737 2.50016 5.01427 2.50016 5.4707V15.4707C2.50016 15.9271 2.87707 16.304 3.3335 16.304H16.6668C17.1233 16.304 17.5002 15.9271 17.5002 15.4707V5.4707C17.5002 5.01427 17.1233 4.63737 16.6668 4.63737H3.3335ZM0.833496 5.4707C0.833496 4.0938 1.95659 2.9707 3.3335 2.9707H16.6668C18.0437 2.9707 19.1668 4.0938 19.1668 5.4707V15.4707C19.1668 16.8476 18.0437 17.9707 16.6668 17.9707H3.3335C1.95659 17.9707 0.833496 16.8476 0.833496 15.4707V5.4707Z" fill="#DBF5F8"/>
<path fill-rule="evenodd" clip-rule="evenodd" d="M0.984208 4.99273C1.24814 4.61569 1.76775 4.52399 2.14479 4.78792L10.0002 10.2867L17.8557 4.78792C18.2327 4.52399 18.7523 4.61569 19.0163 4.99273C19.2802 5.36977 19.1885 5.88938 18.8115 6.15331L10.4781 11.9866C10.1912 12.1875 9.80928 12.1875 9.52235 11.9866L1.18902 6.15331C0.811975 5.88938 0.720279 5.36977 0.984208 4.99273Z" fill="#DBF5F8"/>
</svg>
