<svg width="35" height="33" viewBox="0 0 35 33" fill="none" xmlns="http://www.w3.org/2000/svg">
<rect y="0.5" width="35" height="32" rx="2" fill="#009745"/>
<path d="M21.608 22.5H19.928L13.816 13.012H13.752C13.7733 13.3853 13.8 13.8493 13.832 14.404C13.864 14.9587 13.88 15.5293 13.88 16.116V22.5H12.552V11.076H14.216L20.312 20.532H20.376C20.3653 20.3613 20.3493 20.1053 20.328 19.764C20.3173 19.4227 20.3013 19.0493 20.28 18.644C20.2693 18.2387 20.264 17.8653 20.264 17.524V11.076H21.608V22.5Z" fill="white"/>
<line x1="11" y1="15" x2="24" y2="15" stroke="white"/>
<line x1="11" y1="18" x2="24" y2="18" stroke="white"/>
</svg>
