<svg width="24" height="24" viewBox="0 0 24 24" fill="none" xmlns="http://www.w3.org/2000/svg">
<path d="M7.20045 15.1994C7.42166 15.1994 7.60044 15.0202 7.60044 14.7994V11.8882C7.83842 11.7494 8.00042 11.4942 8.00042 11.1994C8.00042 10.7582 7.64164 10.3994 7.20041 10.3994C6.75922 10.3994 6.40039 10.7582 6.40039 11.1994C6.40039 11.4942 6.56239 11.7494 6.80038 11.8882V14.7994C6.80047 15.0202 6.97925 15.1994 7.20045 15.1994Z" fill="#113255"/>
<path d="M4.01483 6.3008C4.09123 7.06959 4.42564 7.74637 4.44162 7.77839C4.80444 8.50359 5.35241 9.59958 7.19961 9.59958C9.04681 9.59958 9.59483 8.50359 9.95759 7.77839C9.97358 7.74637 10.308 7.06959 10.3844 6.3008C10.6316 6.16481 10.7996 5.90119 10.7996 5.59959V4.79958C10.7996 4.50398 10.6388 4.24556 10.3996 4.10719V3.99961C10.3996 2.676 9.32323 1.59961 7.99963 1.59961H6.39964C5.07603 1.59961 3.99964 2.676 3.99964 3.99961V4.10719C3.76039 4.24556 3.59961 4.50398 3.59961 4.79958V5.59959C3.59961 5.90119 3.76761 6.16477 4.01483 6.3008ZM4.39962 4.79958C4.62083 4.79958 4.79961 4.62037 4.79961 4.39959V3.99961C4.79961 3.11719 5.51722 2.39963 6.39959 2.39963H7.99958C8.882 2.39963 9.59956 3.11723 9.59956 3.99961V4.39959C9.59956 4.62037 9.77834 4.79958 9.99955 4.79958V5.59959C9.77834 5.59959 9.59956 5.7788 9.59956 5.99958C9.59956 6.69159 9.24519 7.41398 9.24158 7.42078C8.82519 8.25356 8.45797 8.79956 7.19956 8.79956C5.94116 8.79956 5.57394 8.25356 5.15797 7.42116C5.15398 7.41394 4.79956 6.69155 4.79956 5.99958C4.79956 5.7788 4.62078 5.59959 4.39958 5.59959V4.79958H4.39962Z" fill="#113255"/>
<path d="M7.99959 5.59977H8.39958C8.62078 5.59977 8.79956 5.42057 8.79956 5.19979C8.79956 4.97901 8.62078 4.7998 8.39958 4.7998H7.99959C7.77839 4.7998 7.59961 4.97901 7.59961 5.19979C7.59956 5.42057 7.77839 5.59977 7.99959 5.59977Z" fill="#113255"/>
<path d="M5.99959 5.59977H6.39958C6.62078 5.59977 6.79956 5.42057 6.79956 5.19979C6.79956 4.97901 6.62078 4.7998 6.39958 4.7998H5.99959C5.77839 4.7998 5.59961 4.97901 5.59961 5.19979C5.59961 5.42057 5.77839 5.59977 5.99959 5.59977Z" fill="#113255"/>
<path d="M2.80038 15.1992C2.57917 15.1992 2.40039 15.3784 2.40039 15.5992V21.9992C2.40039 22.22 2.57917 22.3992 2.80038 22.3992C3.02158 22.3992 3.20036 22.22 3.20036 21.9992V15.5992C3.20041 15.3784 3.02158 15.1992 2.80038 15.1992Z" fill="#113255"/>
<path d="M21.2262 15.1992H21.2246C21.0046 15.1992 20.8254 15.3772 20.8246 15.5976L20.7998 21.9976C20.799 22.2184 20.977 22.3984 21.1982 22.3992H21.1998C21.4202 22.3992 21.599 22.2212 21.5998 22.0008L21.6246 15.6008C21.6254 15.38 21.4474 15.2 21.2262 15.1992Z" fill="#113255"/>
<path d="M17.5794 5.07341C17.5254 4.90982 17.3726 4.7998 17.2002 4.7998C17.0278 4.7998 16.8754 4.90982 16.821 5.07341C16.5202 5.97543 15.635 5.99943 15.6002 5.9998C15.379 5.9998 15.2002 6.17901 15.2002 6.39979V7.99977C15.2002 9.33576 16.113 11.1998 17.6002 11.1998C19.0874 11.1998 20.0002 9.3358 20.0002 7.99977V6.39979C20.0002 6.17901 19.8214 5.9998 19.6002 5.9998C19.583 5.9998 17.8802 5.97459 17.5794 5.07341ZM19.2002 7.99982C19.2002 9.08704 18.4866 10.3998 17.6002 10.3998C16.7139 10.3998 16.0003 9.08704 16.0003 7.99982V6.75102C16.3919 6.66224 16.8755 6.43902 17.2307 5.98462C17.7911 6.54501 18.6847 6.72023 19.2003 6.77502V7.99982H19.2002Z" fill="#113255"/>
<path d="M23.0193 12.3997C22.2353 11.6173 21.0577 11.2041 19.6121 11.2041C19.3881 11.2085 19.2013 11.3789 19.2001 11.6029C19.1997 11.6845 19.1721 13.5993 17.6001 13.5993C16.0281 13.5993 16.0005 11.6849 16.0002 11.6033C15.9997 11.3829 15.821 11.2045 15.6002 11.2045C15.379 11.2045 15.2002 11.3833 15.2002 11.6045C15.2002 12.4989 15.6322 14.1281 17.2002 14.3669V16.3993C17.2002 16.6201 17.379 16.7993 17.6002 16.7993C17.8214 16.7993 18.0002 16.6201 18.0002 16.3993V14.3665C19.3502 14.1605 19.8586 12.9253 19.9734 12.0141C21.0342 12.0736 21.8866 12.3993 22.4542 12.966C22.9354 13.4465 23.2002 14.0972 23.2002 14.7992V21.1992C23.2002 21.42 23.379 21.5992 23.6002 21.5992C23.8214 21.5992 24.0002 21.42 24.0002 21.1992V14.7993C24.0001 13.8833 23.6518 13.0313 23.0193 12.3997Z" fill="#113255"/>
<path d="M11.6002 15.1992C11.379 15.1992 11.2002 15.3784 11.2002 15.5992V21.9992C11.2002 22.22 11.379 22.3992 11.6002 22.3992C11.8214 22.3992 12.0002 22.22 12.0002 21.9992V15.5992C12.0002 15.3784 11.8214 15.1992 11.6002 15.1992Z" fill="#113255"/>
<path d="M17.1996 3.19943H17.9996C19.0524 3.19943 20.3316 4.28023 20.4008 5.23024L20.8008 10.4302C20.8168 10.6398 20.992 10.7994 21.1992 10.7994C21.2092 10.7994 21.22 10.799 21.2304 10.7982C21.4504 10.7814 21.6152 10.589 21.5984 10.3686L21.1984 5.1702C21.0916 3.70423 19.3208 2.39941 17.9996 2.39941H17.1996C15.7436 2.39941 14.1296 3.7938 14.0008 5.1686L13.6008 10.3686C13.584 10.589 13.7488 10.7814 13.9688 10.7982C14.1932 10.8126 14.3816 10.6502 14.3984 10.4302L14.798 5.23657C14.8872 4.28463 16.1664 3.19943 17.1996 3.19943Z" fill="#113255"/>
<path d="M9.22598 10.4044C9.02798 10.4012 8.84841 10.5283 8.80838 10.7228L7.2 18.4399L5.59158 10.7227C5.55117 10.5283 5.36559 10.4047 5.17317 10.4043C3.07195 10.4043 1.46438 10.8543 0.644766 11.6719C0.217219 12.0991 0 12.6132 0 13.1991V21.1992C0 21.4199 0.178781 21.5991 0.399984 21.5991C0.621188 21.5991 0.799969 21.4199 0.799969 21.1992V13.1991C0.799969 12.8279 0.934359 12.5135 1.20998 12.2379C1.83319 11.6159 3.15877 11.2459 4.87519 11.2075L6.80761 20.4751C6.80761 20.4759 6.80803 20.4767 6.80803 20.4775L6.80841 20.4807C6.81122 20.4931 6.81961 20.5027 6.82322 20.5147C6.8348 20.5523 6.84722 20.5895 6.8692 20.6219C6.882 20.6415 6.90122 20.6551 6.9172 20.6719C6.93722 20.6919 6.954 20.7147 6.97762 20.7307C7.00402 20.7483 7.03481 20.7567 7.06481 20.7675C7.08323 20.7743 7.09842 20.7867 7.11839 20.7907H7.1212C7.14642 20.7959 7.17398 20.7911 7.20042 20.7911C7.22681 20.7911 7.25442 20.7959 7.28002 20.7907H7.28161C7.29483 20.7879 7.30481 20.7795 7.31719 20.7755C7.35441 20.7639 7.39158 20.7515 7.42359 20.7299C7.44361 20.7163 7.45758 20.6967 7.47478 20.6799C7.494 20.6611 7.51598 20.6447 7.53117 20.6219C7.55278 20.5903 7.56436 20.5535 7.57598 20.5167C7.57997 20.5043 7.58878 20.4939 7.59159 20.4807L7.59197 20.4775C7.59197 20.4767 7.59239 20.4759 7.59239 20.4751L9.52481 11.2075C11.2416 11.2459 12.5668 11.6163 13.19 12.2379C13.4656 12.5135 13.6 12.8279 13.6 13.1991V21.1992C13.6 21.4199 13.7788 21.5991 14 21.5991C14.2212 21.5991 14.4 21.4199 14.4 21.1992V13.1991C14.4 12.6132 14.1828 12.0991 13.7552 11.6719C12.9356 10.8539 11.328 10.4044 9.22598 10.4044Z" fill="#113255"/>
</svg>
