<svg width="20" height="19" viewBox="0 0 20 19" fill="none" xmlns="http://www.w3.org/2000/svg">
<path fill-rule="evenodd" clip-rule="evenodd" d="M0.833496 9.47087C0.833496 14.5335 4.93755 18.6375 10.0002 18.6375C15.0628 18.6375 19.1668 14.5335 19.1668 9.47087C19.1668 4.40826 15.0628 0.304199 10.0002 0.304199C4.93755 0.304199 0.833496 4.40826 0.833496 9.47087ZM17.5002 9.47087C17.5002 13.613 14.1423 16.9709 10.0002 16.9709C5.85803 16.9709 2.50016 13.613 2.50016 9.47087C2.50016 5.32873 5.85803 1.97087 10.0002 1.97087C14.1423 1.97087 17.5002 5.32873 17.5002 9.47087ZM10.0004 13.6362C10.4608 13.6362 10.834 13.2631 10.834 12.8028C10.834 12.3426 10.4608 11.9695 10.0004 11.9695C9.54005 11.9695 9.16683 12.3426 9.16683 12.8028C9.16683 13.2631 9.54005 13.6362 10.0004 13.6362ZM9.16683 11.1375H10.8335C10.8335 10.4722 10.938 10.3503 11.6228 10.0079C12.813 9.4128 13.3335 8.80557 13.3335 7.38753C13.3335 5.57139 11.9038 4.47087 10.0002 4.47087C8.15921 4.47087 6.66683 5.96325 6.66683 7.8042H8.3335C8.3335 6.88372 9.07969 6.13753 10.0002 6.13753C11.0645 6.13753 11.6668 6.6012 11.6668 7.38753C11.6668 8.05283 11.5623 8.17476 10.8775 8.51718C9.68731 9.11226 9.16683 9.71949 9.16683 11.1375Z" fill="#DBF5F8"/>
</svg>
