<svg width="42" height="32" viewBox="0 0 42 32" fill="none" xmlns="http://www.w3.org/2000/svg">
<path d="M20.2629 4.22641C16.2171 8.31866 13.0286 12.6792 10.6971 17.3082L19.0286 22.4402C19.0286 25.1908 18.0686 27.4717 16.1486 29.283C14.2971 31.0943 12.1029 32 9.56572 32C6.48 32 4.11429 31.1614 2.46857 29.4843C0.822857 27.74 0 25.2914 0 22.1384C0 18.2474 1.64571 14.1551 4.93714 9.86163C8.29714 5.56813 11.7943 2.28092 15.4286 0L20.2629 4.22641ZM41.3486 4.22641C37.3029 8.31866 34.1143 12.6792 31.7829 17.3082L40.1143 22.4402C40.1143 25.1908 39.1543 27.4717 37.2343 29.283C35.3829 31.0943 33.1886 32 30.6514 32C27.5657 32 25.2 31.1614 23.5543 29.4843C21.9086 27.74 21.0857 25.2914 21.0857 22.1384C21.0857 18.2474 22.7314 14.1551 26.0229 9.86163C29.3829 5.56813 32.88 2.28092 36.5143 0L41.3486 4.22641Z" fill="#11BDCF"/>
</svg>
