<svg width="15" height="14" viewBox="0 0 15 14" fill="none" xmlns="http://www.w3.org/2000/svg">
<path d="M9.9735 7.47325C10.0342 7.40985 10.0818 7.33509 10.1135 7.25325C10.1802 7.09095 10.1802 6.9089 10.1135 6.74659C10.0818 6.66475 10.0342 6.58999 9.9735 6.52659L7.9735 4.52659C7.84796 4.40105 7.6777 4.33053 7.50017 4.33053C7.32263 4.33053 7.15237 4.40105 7.02683 4.52659C6.9013 4.65212 6.83077 4.82239 6.83077 4.99992C6.83077 5.17746 6.9013 5.34772 7.02683 5.47325L7.8935 6.33325H5.50017C5.32335 6.33325 5.15379 6.40349 5.02876 6.52852C4.90374 6.65354 4.8335 6.82311 4.8335 6.99992C4.8335 7.17673 4.90374 7.3463 5.02876 7.47133C5.15379 7.59635 5.32335 7.66659 5.50017 7.66659H7.8935L7.02683 8.52659C6.96435 8.58856 6.91475 8.6623 6.8809 8.74354C6.84706 8.82478 6.82963 8.91191 6.82963 8.99992C6.82963 9.08793 6.84706 9.17507 6.8809 9.25631C6.91475 9.33755 6.96435 9.41128 7.02683 9.47325C7.08881 9.53574 7.16254 9.58534 7.24378 9.61918C7.32502 9.65303 7.41216 9.67045 7.50017 9.67045C7.58817 9.67045 7.67531 9.65303 7.75655 9.61918C7.83779 9.58534 7.91152 9.53574 7.9735 9.47325L9.9735 7.47325ZM14.1668 6.99992C14.1668 5.68138 13.7758 4.39245 13.0433 3.29612C12.3108 2.19979 11.2696 1.34531 10.0514 0.840725C8.83321 0.336141 7.49277 0.204118 6.19956 0.461353C4.90636 0.718588 3.71847 1.35353 2.78612 2.28588C1.85377 3.21823 1.21883 4.40611 0.961597 5.69932C0.704362 6.99253 0.836385 8.33297 1.34097 9.55114C1.84555 10.7693 2.70004 11.8105 3.79636 12.5431C4.89269 13.2756 6.18162 13.6666 7.50017 13.6666C9.26828 13.6666 10.964 12.9642 12.2142 11.714C13.4645 10.4637 14.1668 8.76803 14.1668 6.99992ZM2.16683 6.99992C2.16683 5.94509 2.47963 4.91394 3.06566 4.03688C3.6517 3.15982 4.48465 2.47623 5.45919 2.07256C6.43373 1.6689 7.50608 1.56328 8.54065 1.76907C9.57521 1.97485 10.5255 2.48281 11.2714 3.22869C12.0173 3.97457 12.5252 4.92487 12.731 5.95944C12.9368 6.99401 12.8312 8.06636 12.4275 9.0409C12.0239 10.0154 11.3403 10.8484 10.4632 11.4344C9.58614 12.0205 8.555 12.3333 7.50017 12.3333C6.08568 12.3333 4.72912 11.7714 3.72893 10.7712C2.72874 9.77096 2.16683 8.41441 2.16683 6.99992Z" fill="#555555"/>
</svg>
