<svg width="32" height="32" viewBox="0 0 32 32" fill="none" xmlns="http://www.w3.org/2000/svg">
<g clip-path="url(#clip0)">
<path d="M30.4863 30.25H1.48633V16.75H7.48639L15.9863 8.25L24.4865 16.75H30.4863V30.25Z" fill="#E6BE94"/>
<path d="M18.9863 24.25H12.9863V30.25H18.9863V24.25Z" fill="#996459"/>
<path d="M18.8613 22.25H13.1113C13.0423 22.25 12.9863 22.3059 12.9863 22.375V24.25H18.9863V22.375C18.9863 22.3059 18.9304 22.25 18.8613 22.25Z" fill="#4BB9EC"/>
<path d="M20.6011 4.25L21.416 3.02737C21.5181 2.87406 21.5278 2.67681 21.4409 2.51419C21.3539 2.35156 21.1846 2.25 21 2.25H16C15.7236 2.25 15.5 2.47363 15.5 2.75V5.75C15.5 6.02638 15.7236 6.25 16 6.25H21C21.1846 6.25 21.354 6.14844 21.4409 5.98581C21.5279 5.82319 21.5181 5.62594 21.4161 5.47262L20.6011 4.25Z" fill="#FF4F19"/>
<path d="M16 8.75C15.7236 8.75 15.5 8.52637 15.5 8.25V1.75C15.5 1.47363 15.7236 1.25 16 1.25C16.2764 1.25 16.5 1.47363 16.5 1.75V8.25C16.5 8.52637 16.2764 8.75 16 8.75Z" fill="#5C546A"/>
<path d="M18.0245 10.5586C18.1017 10.3716 18.2843 10.25 18.4865 10.25H27.9865C28.1574 10.25 28.3165 10.3374 28.4084 10.4814L31.9084 15.9814C32.0065 16.1358 32.0124 16.3306 31.925 16.4907C31.8371 16.6504 31.6691 16.7499 31.4865 16.7499H23.9865C23.8537 16.7499 23.7267 16.6972 23.633 16.6034L18.133 11.1034C17.9899 10.9604 17.9469 10.7456 18.0245 10.5586Z" fill="#FF4F19"/>
<path d="M13.9619 10.5586C13.8848 10.3716 13.7021 10.25 13.5 10.25H4.00001C3.82913 10.25 3.66994 10.3374 3.57813 10.4814L0.0781308 15.9814C-0.0199942 16.1358 -0.0258692 16.3306 0.0615058 16.4907C0.149443 16.6504 0.317381 16.75 0.500006 16.75H8.00001C8.13282 16.75 8.25976 16.6973 8.35351 16.6035L13.8535 11.1035C13.9966 10.9604 14.0396 10.7456 13.9619 10.5586Z" fill="#FF4F19"/>
<path d="M24.4932 17.2432C24.3653 17.2432 24.2373 17.1944 24.1397 17.0967L16 8.95711L7.86038 17.0967C7.66507 17.292 7.34863 17.292 7.15332 17.0967C6.95801 16.9014 6.95801 16.585 7.15332 16.3897L15.6465 7.89648C15.8418 7.70117 16.1583 7.70117 16.3536 7.89648L24.8468 16.3897C25.0421 16.585 25.0421 16.9014 24.8468 17.0967C24.749 17.1944 24.6211 17.2432 24.4932 17.2432Z" fill="#E3001E"/>
<path d="M16 19.75C17.6569 19.75 19 18.4069 19 16.75C19 15.0931 17.6569 13.75 16 13.75C14.3431 13.75 13 15.0931 13 16.75C13 18.4069 14.3431 19.75 16 19.75Z" fill="#FFEBB7"/>
<path d="M16 14.75C15.7236 14.75 15.5 14.9736 15.5 15.25V16.25H14.5C14.2236 16.25 14 16.4736 14 16.75C14 17.0264 14.2236 17.25 14.5 17.25H16C16.2764 17.25 16.5 17.0264 16.5 16.75V15.25C16.5 14.9736 16.2764 14.75 16 14.75Z" fill="#5C546A"/>
<path d="M23.4863 20C23.4863 19.3096 22.9267 18.75 22.2363 18.75C21.546 18.75 20.9863 19.3096 20.9863 20C20.9863 20.0856 20.9951 20.1692 21.0115 20.25H20.9863V22.25H23.4863V20.25H23.4612C23.4776 20.1692 23.4863 20.0856 23.4863 20Z" fill="#4BB9EC"/>
<path d="M22.25 18.25C21.2851 18.25 20.5 19.0351 20.5 20V22.25C20.5 22.5264 20.7236 22.75 21 22.75H23.5C23.7764 22.75 24 22.5264 24 22.25V20C24 19.0351 23.2149 18.25 22.25 18.25ZM22.25 19.25C22.6636 19.25 23 19.5864 23 20V20.25H21.5V20C21.5 19.5864 21.8364 19.25 22.25 19.25ZM21.5 21.75V21.25H23V21.75H21.5Z" fill="#7E5C62"/>
<path d="M11 24.75H8.5V27.75H11V24.75Z" fill="#4BB9EC"/>
<path d="M11 24.25H8.5C8.22363 24.25 8 24.4736 8 24.75V27.75C8 28.0264 8.22363 28.25 8.5 28.25H11C11.2764 28.25 11.5 28.0264 11.5 27.75V24.75C11.5 24.4736 11.2764 24.25 11 24.25ZM10.5 25.25V25.75H9V25.25H10.5ZM9 27.25V26.75H10.5V27.25H9Z" fill="#7E5C62"/>
<path d="M6.48731 24.75H3.9873V27.75H6.48731V24.75Z" fill="#4BB9EC"/>
<path d="M6.48633 24.25H3.98633C3.70995 24.25 3.48633 24.4736 3.48633 24.75V27.75C3.48633 28.0264 3.70995 28.25 3.98633 28.25H6.48633C6.7627 28.25 6.98633 28.0264 6.98633 27.75V24.75C6.98633 24.4736 6.7627 24.25 6.48633 24.25ZM5.98633 25.25V25.75H4.48633V25.25H5.98633ZM4.48633 27.25V26.75H5.98633V27.25H4.48633Z" fill="#7E5C62"/>
<path d="M28 24.75H25.5V27.75H28V24.75Z" fill="#4BB9EC"/>
<path d="M28 24.25H25.5C25.2236 24.25 25 24.4736 25 24.75V27.75C25 28.0264 25.2236 28.25 25.5 28.25H28C28.2764 28.25 28.5 28.0264 28.5 27.75V24.75C28.5 24.4736 28.2764 24.25 28 24.25ZM27.5 25.25V25.75H26V25.25H27.5ZM26 27.25V26.75H27.5V27.25H26Z" fill="#7E5C62"/>
<path d="M23.4873 24.75H20.9873V27.75H23.4873V24.75Z" fill="#4BB9EC"/>
<path d="M23.4863 24.25H20.9863C20.71 24.25 20.4863 24.4736 20.4863 24.75V27.75C20.4863 28.0264 20.71 28.25 20.9863 28.25H23.4863C23.7627 28.25 23.9863 28.0264 23.9863 27.75V24.75C23.9863 24.4736 23.7627 24.25 23.4863 24.25ZM22.9863 25.25V25.75H21.4863V25.25H22.9863ZM21.4863 27.25V26.75H22.9863V27.25H21.4863Z" fill="#7E5C62"/>
<path d="M27.9727 20C27.9727 19.3096 27.413 18.75 26.7227 18.75C26.0323 18.75 25.4727 19.3096 25.4727 20C25.4727 20.0856 25.4815 20.1692 25.4978 20.25H25.4727V22.25H27.9727V20.25H27.9475C27.9638 20.1692 27.9727 20.0856 27.9727 20Z" fill="#4BB9EC"/>
<path d="M26.7363 18.25C25.7715 18.25 24.9863 19.0351 24.9863 20V22.25C24.9863 22.5264 25.21 22.75 25.4863 22.75H27.9863C28.2627 22.75 28.4863 22.5264 28.4863 22.25V20C28.4863 19.0351 27.7012 18.25 26.7363 18.25ZM26.7363 19.25C27.1499 19.25 27.4863 19.5864 27.4863 20V20.25H25.9863V20C25.9863 19.5864 26.3228 19.25 26.7363 19.25ZM25.9863 21.75V21.25H27.4863V21.75H25.9863Z" fill="#7E5C62"/>
<path d="M6.47266 20C6.47266 19.3096 5.91303 18.75 5.22266 18.75C4.53228 18.75 3.97266 19.3096 3.97266 20C3.97266 20.0856 3.98147 20.1692 3.99784 20.25H3.97266V22.25H6.47266V20.25H6.44747C6.46384 20.1692 6.47266 20.0856 6.47266 20Z" fill="#4BB9EC"/>
<path d="M5.23633 18.25C4.27145 18.25 3.48633 19.0351 3.48633 20V22.25C3.48633 22.5264 3.70995 22.75 3.98633 22.75H6.48633C6.7627 22.75 6.98633 22.5264 6.98633 22.25V20C6.98633 19.0351 6.2012 18.25 5.23633 18.25ZM5.23633 19.25C5.64989 19.25 5.98633 19.5864 5.98633 20V20.25H4.48633V20C4.48633 19.5864 4.82276 19.25 5.23633 19.25ZM4.48633 21.75V21.25H5.98633V21.75H4.48633Z" fill="#7E5C62"/>
<path d="M10.958 20C10.958 19.3096 10.3984 18.75 9.70801 18.75C9.01763 18.75 8.45801 19.3096 8.45801 20C8.45801 20.0856 8.46682 20.1692 8.4832 20.25H8.45801V22.25H10.958V20.25H10.9328C10.9492 20.1692 10.958 20.0856 10.958 20Z" fill="#4BB9EC"/>
<path d="M9.72266 18.25C8.75778 18.25 7.97266 19.0351 7.97266 20V22.25C7.97266 22.5264 8.19628 22.75 8.47266 22.75H10.9727C11.249 22.75 11.4727 22.5264 11.4727 22.25V20C11.4727 19.0351 10.6875 18.25 9.72266 18.25ZM9.72266 19.25C10.1362 19.25 10.4727 19.5864 10.4727 20V20.25H8.97266V20C8.97266 19.5864 9.30903 19.25 9.72266 19.25ZM8.97266 21.75V21.25H10.4727V21.75H8.97266Z" fill="#7E5C62"/>
<path d="M16 20.25C14.0701 20.25 12.5 18.6799 12.5 16.75C12.5 14.8201 14.0701 13.25 16 13.25C17.9299 13.25 19.5 14.8201 19.5 16.75C19.5 18.6799 17.9299 20.25 16 20.25ZM16 14.25C14.6216 14.25 13.5 15.3714 13.5 16.75C13.5 18.1286 14.6216 19.25 16 19.25C17.3784 19.25 18.5 18.1286 18.5 16.75C18.5 15.3714 17.3784 14.25 16 14.25Z" fill="#7E5C62"/>
<path d="M18 21.75H14C13.1729 21.75 12.5 22.4229 12.5 23.25V30.25C12.5 30.5264 12.7236 30.75 13 30.75C13.2764 30.75 13.5 30.5264 13.5 30.25V24.75H15.4863V30.25H16.4863V24.75H18.5V30.25C18.5 30.5264 18.7236 30.75 19 30.75C19.2764 30.75 19.5 30.5264 19.5 30.25V23.25C19.5 22.4229 18.8271 21.75 18 21.75ZM18.5 23.75H13.5V23.25C13.5 22.9741 13.7241 22.75 14 22.75H18C18.2759 22.75 18.5 22.9741 18.5 23.25V23.75Z" fill="#7E5C62"/>
<path d="M31.5 30.75H0.5C0.223625 30.75 0 30.5264 0 30.25C0 29.9736 0.223625 29.75 0.5 29.75H31.5C31.7764 29.75 32 29.9736 32 30.25C32 30.5264 31.7764 30.75 31.5 30.75Z" fill="#5C546A"/>
</g>
<defs>
<clipPath id="clip0">
<rect width="32" height="32" fill="white"/>
</clipPath>
</defs>
</svg>
