<svg width="24" height="15" viewBox="0 0 24 15" fill="none" xmlns="http://www.w3.org/2000/svg">
<g opacity="0.5">
<path d="M23.75 6.7C20.15 2.2 16.25 0 12.15 0C10.55 0 8.85 0.4 7.25 1.1C5.95 1.7 4.65 2.4 3.45 3.4C1.35 5.1 0.15 6.7 0.15 6.8C-0.05 7.1 -0.05 7.6 0.15 7.9C3.75 12.4 7.65 14.6 11.75 14.6C13.35 14.6 15.05 14.2 16.65 13.5C17.95 12.9 19.15 12.2 20.45 11.2C22.55 9.5 23.75 7.9 23.75 7.8C24.05 7.5 24.05 7.1 23.75 6.7ZM19.35 9.8C17.65 11.2 14.95 12.8 11.85 12.8C8.45 12.8 5.15 10.9 2.05 7.3C2.45 6.7 3.35 5.7 4.55 4.8C6.25 3.4 8.95 1.8 12.05 1.8C15.45 1.8 18.75 3.7 21.85 7.3C21.45 7.9 20.55 8.9 19.35 9.8Z" fill="#2A4F77"/>
<path d="M15.1501 6.40001C14.6501 6.40001 14.2501 6.80001 14.2501 7.30001C14.2501 8.60001 13.1501 9.70001 11.8501 9.70001C10.5501 9.70001 9.4501 8.60001 9.4501 7.30001C9.4501 6.00001 10.5501 4.90001 11.8501 4.90001C12.3501 4.90001 12.7501 4.50001 12.7501 4.00001C12.7501 3.50001 12.4501 3.20001 11.9501 3.20001C9.6501 3.20001 7.8501 5.10001 7.8501 7.30001C7.8501 9.50001 9.7501 11.4 11.9501 11.4C14.1501 11.4 16.0501 9.50001 16.0501 7.30001C16.0501 6.80001 15.6501 6.40001 15.1501 6.40001Z" fill="#2A4F77"/>
</g>
</svg>
