<svg width="32" height="32" viewBox="0 0 32 32" fill="none" xmlns="http://www.w3.org/2000/svg">
<path d="M23.7762 17.0158L23.6112 18.5002L23.5 19.5002H9.5L9.38875 18.5002L9.22375 17.0158C9.07707 15.6947 9.27517 14.3582 9.79875 13.1364C10.2599 12.0597 10.4694 10.8919 10.4112 9.72204L10.3244 7.99204C10.2826 7.15512 10.4114 6.31845 10.7029 5.53282C10.9944 4.7472 11.4425 4.02903 12.0201 3.42191C12.5977 2.8148 13.2926 2.33141 14.0627 2.00111C14.8328 1.67081 15.662 1.50049 16.5 1.50049C17.338 1.50049 18.1672 1.67081 18.9373 2.00111C19.7074 2.33141 20.4023 2.8148 20.9799 3.42191C21.5575 4.02903 22.0056 4.7472 22.2971 5.53282C22.5886 6.31845 22.7174 7.15512 22.6756 7.99204L22.5887 9.72204C22.5306 10.8919 22.7401 12.0597 23.2012 13.1364C23.725 14.3581 23.9231 15.6947 23.7762 17.0158Z" fill="#8F4D2E"/>
<path d="M23.7766 17.0156L23.6116 18.5H18.0004V13L19.0004 11V7C18.9997 5.79464 18.6035 4.62281 17.8726 3.66436C17.1416 2.70592 16.1164 2.01385 14.9541 1.69438C15.8931 1.45334 16.8757 1.43623 17.8225 1.64443C18.7694 1.85263 19.6541 2.28032 20.4054 2.89304C21.1567 3.50576 21.7536 4.28639 22.148 5.17202C22.5424 6.05766 22.7232 7.02355 22.676 7.99188L22.5891 9.72188C22.5309 10.8918 22.7404 12.0595 23.2016 13.1362C23.7254 14.3579 23.9235 15.6945 23.7766 17.0156Z" fill="#82462A"/>
<path d="M19.2 17.5C19.1081 17.5 19.017 17.482 18.9321 17.4468C18.8471 17.4117 18.7699 17.3601 18.7049 17.2951C18.6399 17.2301 18.5883 17.1529 18.5532 17.0679C18.518 16.983 18.5 16.8919 18.5 16.8V13.5H14.5V16.8C14.5 16.8919 14.482 16.983 14.4468 17.0679C14.4117 17.1529 14.3601 17.2301 14.2951 17.2951C14.2301 17.3601 14.1529 17.4117 14.0679 17.4468C13.983 17.482 13.8919 17.5 13.8 17.5H13V20.5H20V17.5H19.2Z" fill="#FEC9A3"/>
<path d="M16.8015 16C17.4206 15.9932 18.0192 15.7772 18.5 15.3871V13.5H14.5V15.3869C14.9808 15.7771 15.5794 15.9932 16.1985 16H16.8015Z" fill="#FEB784"/>
<path d="M21 8V10.5C21 11.6935 20.5259 12.8381 19.682 13.682C18.8381 14.5259 17.6935 15 16.5 15C15.3065 15 14.1619 14.5259 13.318 13.682C12.4741 12.8381 12 11.6935 12 10.5V8C12.9831 7.34486 13.7781 6.44431 14.3062 5.3875L14.5 5L14.7837 5.23688C16.0261 6.2721 17.4582 7.05543 19 7.54313C19.653 7.75009 20.3219 7.9029 21 8Z" fill="#FEC9A3"/>
<path d="M20.9997 8.00003V10.5C20.9994 11.5445 20.6361 12.5564 19.9718 13.3624C19.3075 14.1684 18.3836 14.7184 17.3584 14.9182C17.879 14.4072 18.2923 13.7974 18.5741 13.1246C18.8559 12.4518 19.0006 11.7295 18.9997 11V7.54315C19.6526 7.75012 20.3216 7.90293 20.9997 8.00003Z" fill="#FEC093"/>
<path d="M14.25 10C14.1017 10 13.9567 9.95601 13.8333 9.8736C13.71 9.79119 13.6139 9.67406 13.5571 9.53701C13.5003 9.39997 13.4855 9.24917 13.5144 9.10368C13.5434 8.9582 13.6148 8.82456 13.7197 8.71967C13.8246 8.61478 13.9582 8.54335 14.1037 8.51441C14.2492 8.48547 14.4 8.50033 14.537 8.55709C14.6741 8.61386 14.7912 8.70999 14.8736 8.83332C14.956 8.95666 15 9.10166 15 9.25C14.9998 9.44885 14.9207 9.63949 14.7801 9.78009C14.6395 9.9207 14.4488 9.99978 14.25 10Z" fill="#7A432A"/>
<path d="M18.75 10C18.6017 10 18.4567 9.95601 18.3333 9.8736C18.21 9.79119 18.1139 9.67406 18.0571 9.53701C18.0003 9.39997 17.9855 9.24917 18.0144 9.10368C18.0434 8.9582 18.1148 8.82456 18.2197 8.71967C18.3246 8.61478 18.4582 8.54335 18.6037 8.51441C18.7492 8.48547 18.9 8.50033 19.037 8.55709C19.1741 8.61386 19.2912 8.70999 19.3736 8.83332C19.456 8.95666 19.5 9.10166 19.5 9.25C19.4998 9.44885 19.4207 9.63949 19.2801 9.78009C19.1395 9.9207 18.9488 9.99978 18.75 10Z" fill="#7A432A"/>
<path d="M16.5 12.5C16.1023 12.4996 15.721 12.3414 15.4398 12.0602C15.1586 11.779 15.0004 11.3977 15 11H16C16 11.1326 16.0527 11.2598 16.1464 11.3536C16.2402 11.4473 16.3674 11.5 16.5 11.5C16.6326 11.5 16.7598 11.4473 16.8536 11.3536C16.9473 11.2598 17 11.1326 17 11H18C17.9996 11.3977 17.8414 11.779 17.5602 12.0602C17.279 12.3414 16.8977 12.4996 16.5 12.5Z" fill="#F7A468"/>
<path d="M14 19.5H19V23H14V19.5Z" fill="#E0E0DE"/>
<path d="M26.6862 30.4794C26.3315 30.5385 25.9674 30.4697 25.6586 30.2853C25.3499 30.1009 25.1167 29.8128 25.0006 29.4725L21.6981 23.2769C21.9084 23.9055 21.9547 24.5774 21.8326 25.229C21.7105 25.8805 21.4242 26.4901 21.0006 27V31H12.0006V27C11.5709 26.4842 11.2816 25.8663 11.1607 25.2059C11.0398 24.5456 11.0915 23.8652 11.3106 23.2306L7.95433 29.4725C7.82551 29.8513 7.55224 30.1639 7.19403 30.3422C6.83582 30.5205 6.42167 30.5501 6.04177 30.4244C5.66188 30.2988 5.34699 30.0282 5.16567 29.6715C4.98436 29.3148 4.9513 28.9009 5.0737 28.52L8.74496 19.3819C8.96804 18.8261 9.3524 18.3499 9.84853 18.0145C10.3447 17.6791 10.9298 17.4999 11.5287 17.5H13.5006L16.5006 23L19.5006 17.5H21.465C22.0655 17.5004 22.6521 17.6809 23.1491 18.0182C23.646 18.3554 24.0303 18.8339 24.2525 19.3919L27.8818 28.52C27.9481 28.7274 27.9691 28.9466 27.9432 29.1628C27.9173 29.379 27.8451 29.587 27.7317 29.7729C27.6183 29.9587 27.4663 30.118 27.2859 30.2399C27.1055 30.3618 26.901 30.4435 26.6862 30.4794Z" fill="#EC8C8C"/>
<path d="M4.63973 28.6881L5.00035 24H8.00036V28.8172C8.00036 29.2635 7.82306 29.6915 7.50747 30.0071C7.19188 30.3227 6.76385 30.5 6.31754 30.5C6.08568 30.5 5.85631 30.4521 5.64384 30.3593C5.43137 30.2664 5.24037 30.1307 5.08283 29.9606C4.92529 29.7905 4.80461 29.5896 4.72836 29.3706C4.65211 29.1517 4.62194 28.9193 4.63973 28.6881Z" fill="#F59898"/>
<path d="M6.17631 16.7063C6.03501 16.7416 5.90345 16.8083 5.79133 16.9012C5.67922 16.9942 5.58941 17.1112 5.52855 17.2435C5.46769 17.3758 5.43732 17.5201 5.43969 17.6657C5.44207 17.8114 5.47711 17.9546 5.54225 18.0849L6 19.0001H4.20819C3.74246 19.0001 3.28313 18.8917 2.86656 18.6834L2.36831 18.4343C2.27684 18.3885 2.17519 18.3669 2.07303 18.3715C1.97086 18.3761 1.87157 18.4068 1.78457 18.4605C1.69757 18.5143 1.62576 18.5894 1.57596 18.6787C1.52615 18.768 1.50001 18.8686 1.5 18.9709V20.382C1.5 20.5677 1.55172 20.7498 1.64936 20.9077C1.747 21.0657 1.8867 21.1934 2.05281 21.2764L2.86656 21.6834C3.28313 21.8916 3.74246 22.0001 4.20819 22.0001H8V19.0001L7.31531 17.2884C7.22791 17.0701 7.06436 16.8908 6.85495 16.7838C6.64554 16.6768 6.40445 16.6493 6.17631 16.7063Z" fill="#FEC9A3"/>
<path d="M5 22H8V24H5V22Z" fill="#E0E0DE"/>
<path d="M26.6853 30.4793C26.3306 30.5384 25.9664 30.4696 25.6577 30.2852C25.349 30.1008 25.1158 29.8128 24.9997 29.4725L21.6972 23.2768C21.9075 23.9055 21.9537 24.5774 21.8317 25.2289C21.7096 25.8805 21.4232 26.4901 20.9997 27V31H12.1641C16.2909 28.305 19.7728 24.885 22.6953 17.765C23.4059 18.0842 23.9641 18.6678 24.2516 19.3918L27.8809 28.52C27.9472 28.7273 27.9681 28.9466 27.9422 29.1627C27.9163 29.3789 27.8442 29.587 27.7308 29.7728C27.6174 29.9587 27.4654 30.118 27.285 30.2399C27.1046 30.3618 26.9001 30.4434 26.6853 30.4793Z" fill="#E07F7F"/>
<path d="M23.5 29L18.5 28V21L23.5 22V29Z" fill="#A36548"/>
<path d="M25.5 29L30.5 28V21L25.5 22V29Z" fill="#8F4D2E"/>
<path d="M23.5 22H25.5V29H23.5V22Z" fill="#95573A"/>
<path d="M24.5 22C24.5 21.5809 24.3513 21.1753 24.0804 20.8555C23.8095 20.5357 23.4339 20.3223 23.0204 20.2534L18.5 19.5V21L23.5 22H24.5C24.5 21.5809 24.6487 21.1753 24.9196 20.8555C25.1905 20.5357 25.5661 20.3223 25.9796 20.2534L30.5 19.5V21L25.5 22H24.5Z" fill="#D4BD81"/>
<path d="M29.5822 28.9527L27.5822 29.2861C27.5106 29.298 27.4372 29.2942 27.3672 29.2749C27.2972 29.2556 27.2322 29.2213 27.1768 29.1744C27.1214 29.1274 27.0769 29.069 27.0464 29.0031C27.0158 28.9372 27 28.8655 27 28.7929V26.9344C27 26.7804 27.0546 26.6313 27.1542 26.5138C27.2538 26.3962 27.3918 26.3178 27.5438 26.2924L29.242 26.0094C29.3353 25.9938 29.4308 25.9987 29.5219 26.0238C29.6131 26.0489 29.6977 26.0936 29.7698 26.1547C29.842 26.2158 29.8999 26.2919 29.9397 26.3777C29.9794 26.4635 30 26.5569 30 26.6514V28.4595C30 28.5779 29.958 28.6924 29.8815 28.7827C29.805 28.873 29.6989 28.9332 29.5822 28.9527Z" fill="#FEC9A3"/>
</svg>
