<svg width="118" height="118" viewBox="0 0 118 118" fill="none" xmlns="http://www.w3.org/2000/svg">
<g clip-path="url(#clip0)">
<path d="M107.88 2.80704V115.193C107.88 116.744 106.624 118 105.073 118H71.4813L40.6957 106.774L13.6778 116.628C11.8484 117.294 9.91016 115.937 9.91016 113.99V4.0125C9.91016 2.06252 11.8484 0.705811 13.6778 1.37471L40.6957 11.229L71.4813 0H105.073C106.624 0 107.88 1.25858 107.88 2.80704Z" fill="#EB9664"/>
<path d="M40.6957 11.229V106.774L13.6778 116.628C11.8484 117.294 9.91016 115.937 9.91016 113.99V4.01244C9.91016 2.06246 11.8484 0.705757 13.6778 1.37466L40.6957 11.229Z" fill="#95CCC2"/>
<path d="M40.6957 11.229V106.774L13.6778 116.628C11.8484 117.294 9.91016 115.937 9.91016 113.99V4.01244C9.91016 2.06246 11.8484 0.705757 13.6778 1.37466L40.6957 11.229Z" fill="#FFAC73"/>
<path d="M15.6188 113.99V4.01236C15.6188 3.35337 15.8438 2.76549 16.2075 2.29735L13.6778 1.37458C11.8484 0.706579 9.91016 2.06238 9.91016 4.01236V113.99C9.91016 115.938 11.8484 117.294 13.6778 116.628L16.2084 115.705C15.8438 115.237 15.6188 114.648 15.6188 113.99Z" fill="#EB9664"/>
<path d="M107.88 2.80704V115.193C107.88 116.744 106.624 118 105.073 118H71.4814V0H105.073C106.624 0 107.88 1.25858 107.88 2.80704Z" fill="#FFAC73"/>
<path d="M100.069 16.8304V32.0531C100.069 33.7591 98.6875 35.141 96.9814 35.141H82.3827C80.6767 35.141 79.293 33.7591 79.293 32.0531V16.8304C79.293 15.1253 80.6767 13.7434 82.3827 13.7434H96.9814C98.6875 13.7434 100.069 15.1253 100.069 16.8304Z" fill="#F5DCB4"/>
<path d="M86.4284 32.0531V16.8304C86.4284 15.1253 87.813 13.7434 89.5181 13.7434H82.3817C80.6766 13.7434 79.292 15.1253 79.292 16.8304V32.0531C79.292 33.7591 80.6766 35.141 82.3817 35.141H89.5181C87.813 35.141 86.4284 33.7591 86.4284 32.0531Z" fill="#EBC9A0"/>
<path d="M64.0985 18.7885V99.7497C64.0985 101.814 62.1098 103.296 60.131 102.708L50.2884 99.7848C48.9785 99.395 48.0791 98.1913 48.0791 96.8265V21.7117C48.0791 20.3433 48.9776 19.1397 50.2884 18.7498L60.131 15.8267C62.1098 15.2397 64.0985 16.7233 64.0985 18.7885Z" fill="#EBC9A0"/>
<path d="M33.5645 21.7117V96.8256C33.5645 98.1913 32.6651 99.395 31.3552 99.7848L21.5144 102.708C19.5329 103.296 17.5469 101.814 17.5469 99.7488V18.7885C17.5469 16.7233 19.5329 15.2397 21.5144 15.8267L31.3552 18.7498C32.6651 19.1397 33.5645 20.3442 33.5645 21.7117Z" fill="#FAEBC8"/>
<path d="M24.6833 99.7497V18.7885C24.6833 18.0881 24.9156 17.458 25.2946 16.9493L21.5144 15.8267C19.5329 15.2397 17.5469 16.7233 17.5469 18.7885V99.7497C17.5469 101.814 19.5329 103.296 21.5144 102.708L25.2937 101.585C24.9147 101.078 24.6833 100.448 24.6833 99.7497Z" fill="#EBC9A0"/>
<path d="M100.069 103.087V107.963C100.069 109.668 98.6875 111.05 96.9814 111.05H82.3827C80.6767 111.05 79.293 109.668 79.293 107.963V103.087C79.293 101.381 80.6767 99.9973 82.3827 99.9973H96.9814C98.6875 99.9964 100.069 101.381 100.069 103.087Z" fill="#F5DCB4"/>
<path d="M86.4284 107.963V103.087C86.4284 101.381 87.813 99.9973 89.5181 99.9973H82.3817C80.6766 99.9973 79.292 101.381 79.292 103.087V107.963C79.292 109.668 80.6766 111.05 82.3817 111.05H89.5181C87.813 111.05 86.4284 109.668 86.4284 107.963Z" fill="#EBC9A0"/>
<path d="M100.069 68.0883H79.2932C78.3083 68.0883 77.5098 67.2897 77.5098 66.3048C77.5098 65.319 78.3083 64.5205 79.2932 64.5205H100.069C101.054 64.5205 101.853 65.319 101.853 66.3048C101.853 67.2897 101.054 68.0883 100.069 68.0883Z" fill="#EB9664"/>
<path d="M100.069 52.9225H79.2932C78.3083 52.9225 77.5098 52.124 77.5098 51.1391C77.5098 50.1533 78.3083 49.3547 79.2932 49.3547H100.069C101.054 49.3547 101.853 50.1533 101.853 51.1391C101.853 52.124 101.054 52.9225 100.069 52.9225Z" fill="#EB9664"/>
<path d="M100.069 46.6898H79.2932C78.3083 46.6898 77.5098 45.8913 77.5098 44.9055C77.5098 43.9206 78.3083 43.1221 79.2932 43.1221H100.069C101.054 43.1221 101.853 43.9206 101.853 44.9055C101.853 45.8913 101.054 46.6898 100.069 46.6898Z" fill="#EB9664"/>
</g>
<defs>
<clipPath id="clip0">
<rect width="118" height="118" fill="white"/>
</clipPath>
</defs>
</svg>
