<svg width="24" height="25" viewBox="0 0 24 25" fill="none" xmlns="http://www.w3.org/2000/svg">
<circle cx="12" cy="12.4707" r="12" fill="#DBF5F8"/>
<g clip-path="url(#clip0)">
<path d="M20 7.0088C19.4011 7.27411 18.7659 7.44821 18.1154 7.52528C18.8002 7.11462 19.3127 6.46936 19.5577 5.70935C18.9096 6.09266 18.2006 6.36212 17.4615 6.50605C16.9632 5.98923 16.3099 5.6492 15.6007 5.53762C14.8915 5.42604 14.1652 5.54902 13.5323 5.88786C12.8994 6.22671 12.3944 6.7629 12.094 7.41496C11.7936 8.06702 11.7143 8.79931 11.8681 9.50055C10.5651 9.43325 9.29065 9.09304 8.1274 8.50195C6.96415 7.91086 5.938 7.08207 5.11538 6.06924C4.69411 6.79354 4.56444 7.65109 4.75275 8.46757C4.94105 9.28405 5.43318 9.99819 6.12912 10.4648C5.60789 10.4482 5.09824 10.3069 4.64286 10.0528V10.094C4.6456 10.8508 4.90868 11.5837 5.38793 12.1695C5.86718 12.7553 6.53341 13.1584 7.27473 13.311C6.79113 13.4433 6.28362 13.4631 5.79121 13.3687C6.00467 14.018 6.41464 14.5848 6.96441 14.9909C7.51418 15.3969 8.17655 15.6221 8.85989 15.6352C7.69702 16.5478 6.2612 17.0432 4.78297 17.0418C4.52155 17.0465 4.26009 17.0354 4 17.0088C5.50032 17.9733 7.24661 18.4855 9.03022 18.4841C15.0742 18.4841 18.3709 13.4813 18.3709 9.14341C18.3709 9.00055 18.3709 8.86869 18.3709 8.72033C19.0172 8.2573 19.5755 7.6823 20.0192 7.02253L20 7.0088Z" fill="#113255"/>
</g>
<defs>
<clipPath id="clip0">
<rect width="16" height="13.0027" fill="white" transform="translate(4 5.4707)"/>
</clipPath>
</defs>
</svg>
