<svg width="373" height="8" viewBox="0 0 373 8" fill="none" xmlns="http://www.w3.org/2000/svg">
<path d="M54.3779 -1.69214L55.3115 -1.79759L53.4948 -1.94877L54.3656 -2.05944C55.239 -2.05843 56.3704 -1.89261 56.9861 -1.98071C57.0614 -2.06602 56.1104 -2.0934 55.8678 -2.16137C55.6531 -2.23104 55.4778 -2.30025 55.3441 -2.36818C55.8197 -2.36744 56.3426 -2.35101 56.8817 -2.31985C57.6068 -2.26895 58.3181 -2.24421 58.9369 -2.24835C60.2025 -2.23461 61.4251 -2.24832 62.801 -2.2453L62.3432 -2.45061L64.1165 -2.40258C64.3044 -2.38694 64.5284 -2.41209 64.7131 -2.39274C66.2499 -2.22903 66.9001 -2.31824 67.6378 -2.39221C67.7891 -2.41135 67.9713 -2.42564 68.1797 -2.43471C70.2297 -2.39549 72.0783 -2.16601 73.9246 -2.04821C74.2721 -2.01813 74.6053 -1.97952 74.9008 -1.93512C75.5429 -1.8488 76.2572 -1.77832 76.9783 -1.73014C77.6994 -1.68196 78.4043 -1.65761 79.0285 -1.6593C80.4088 -1.66121 81.9683 -1.60412 83.556 -1.49355C84.0282 -1.45713 84.5006 -1.4331 84.9433 -1.423C85.3859 -1.4129 85.7891 -1.41694 86.1269 -1.43488L87.2003 -1.31768C87.6656 -1.36523 88.2556 -1.39133 88.9346 -1.39437C89.6135 -1.39741 90.3672 -1.37735 91.1498 -1.33539C91.9839 -1.28987 92.8311 -1.25918 93.6964 -1.21105C95.484 -1.11905 97.2237 -1.06278 98.8615 -1.04399C101.301 -0.988333 103.684 -0.945297 106.144 -0.875902C107.683 -0.842406 109.183 -0.823982 110.635 -0.820729C112.373 -0.807626 114.254 -0.744199 116.185 -0.633509C116.094 -0.529656 115.247 -0.560337 114.678 -0.563852C112.844 -0.581113 110.967 -0.625842 109.08 -0.659444C108.23 -0.67256 107.403 -0.677529 106.605 -0.674311C105.27 -0.678617 103.863 -0.706289 102.408 -0.756854C100.109 -0.812494 97.883 -0.839239 95.7536 -0.836818C95.5867 -0.832704 95.4337 -0.825416 95.2973 -0.815072C95.2688 -0.806113 95.2632 -0.794816 95.281 -0.782265C95.2987 -0.769715 95.3393 -0.756327 95.3987 -0.743388C95.4582 -0.73045 95.5345 -0.718395 95.6205 -0.708372C95.7064 -0.698349 95.7992 -0.690694 95.8897 -0.686144C96.7355 -0.615763 97.6438 -0.540172 98.4414 -0.529538C98.4722 -0.528743 98.5051 -0.526929 98.5376 -0.524224C98.5701 -0.521519 98.6014 -0.517992 98.6293 -0.513898C100.415 -0.365316 101.883 -0.39046 103.274 -0.366287C105.583 -0.300953 107.809 -0.270436 109.918 -0.275196C110.237 -0.274872 110.581 -0.266379 110.938 -0.250023C113.147 -0.183724 115.213 -0.176308 117.038 -0.228112C117.789 -0.241237 118.488 -0.2707 119.295 -0.271192C119.793 -0.273221 120.226 -0.292022 120.568 -0.326472C120.91 -0.360923 121.155 -0.410309 121.288 -0.471661C121.628 -0.439359 121.974 -0.410572 122.322 -0.385643C122.529 -0.371389 122.728 -0.367604 122.878 -0.375062C123.028 -0.382522 123.118 -0.400667 123.13 -0.42583C123.193 -0.496303 122.719 -0.531693 122.309 -0.561871C122.556 -0.576984 122.835 -0.585875 123.139 -0.58833C124.85 -0.604432 126.684 -0.585428 128.604 -0.531732C130.094 -0.467458 131.283 -0.519772 132.85 -0.429134C133.038 -0.413494 133.193 -0.43645 133.366 -0.441962C133.817 -0.470988 134.379 -0.477511 135.003 -0.460963C135.627 -0.444415 136.294 -0.405294 136.947 -0.346993C137.76 -0.506274 139.516 -0.324309 140.813 -0.307956C141.212 -0.226953 140.754 -0.241194 140.735 -0.21894C140.715 -0.196686 140.735 -0.218945 140.578 -0.231977C139.283 -0.117265 137.509 -0.0922507 135.505 -0.160453C135.134 -0.16017 134.781 -0.154944 134.449 -0.144825C133.946 -0.130504 133.378 -0.131935 132.771 -0.149053C132.109 -0.161625 131.5 -0.155654 130.974 -0.131427C130.671 -0.131822 130.416 -0.119685 130.23 -0.0961344C130.045 -0.0725846 129.936 -0.0383828 129.914 0.00329084C130.116 0.0354163 130.339 0.0648129 130.577 0.0903107C131.815 0.19099 133.049 0.232664 134.038 0.207132C135.758 0.163142 137.804 0.206069 139.633 0.191052C140.87 0.184969 142.185 0.202297 143.555 0.242716C143.555 0.242716 143.519 0.283515 143.516 0.287224C143.678 0.304889 143.848 0.319062 144.017 0.328932C144.017 0.328932 144.017 0.328933 144.034 0.310387C143.958 0.292578 143.857 0.275824 143.74 0.262065L143.333 0.228177C143.609 0.219358 143.868 0.193102 144.157 0.209144C144.764 0.238949 145.345 0.251531 145.864 0.246144C146.383 0.240757 146.83 0.217508 147.177 0.177796C147.792 0.126897 148.557 0.103751 149.422 0.10985C150.085 0.104295 150.724 0.0923516 151.336 0.0740814C151.336 0.0740814 151.376 0.029577 151.666 0.005923C151.391 -0.0232526 151.105 -0.0470766 150.82 -0.0644557C149.581 -0.107875 148.338 -0.147585 147.12 -0.177271C146.671 -0.180477 146.25 -0.175504 145.863 -0.162446C144.791 -0.147166 143.587 -0.168853 142.321 -0.22624C142.321 -0.22624 142.071 -0.247092 141.946 -0.257519C142.301 -0.355355 143.526 -0.25741 144.021 -0.323667C144.323 -0.32246 144.853 -0.314129 144.835 -0.331572C144.794 -0.354849 144.789 -0.376472 144.821 -0.394891C144.853 -0.413311 144.92 -0.428071 145.019 -0.438112C145.118 -0.448152 145.245 -0.453229 145.392 -0.45297C145.539 -0.452712 145.702 -0.447125 145.869 -0.436618C147.264 -0.379775 148.577 -0.363969 149.729 -0.390165C150.165 -0.389658 150.655 -0.372811 151.088 -0.368597C151.353 -0.363521 151.596 -0.366344 151.802 -0.376912C152.849 -0.45474 154.258 -0.460424 155.817 -0.393109C156.571 -0.368908 157.275 -0.365671 157.893 -0.383565C158.333 -0.386769 158.52 -0.331434 158.833 -0.305367L160.163 -0.250418L158.455 -0.181565C158.82 -0.0237758 159.11 0.0282527 159.707 0.0380828C160.577 0.0529286 161.425 0.0596352 162.245 0.0581616C162.851 0.0568645 163.352 0.0228835 164.173 0.0832385C164.318 0.0930839 164.457 0.0962702 164.568 0.0922636C165.529 0.0386814 166.687 0.0263827 167.962 0.0562103C168.622 -0.0441272 169.747 0.0534271 170.787 0.132031C171.123 0.0564486 170.514 0.0217545 170.152 -0.0243616C171.022 -0.0196421 171.898 -0.0223369 172.796 -0.0113004C173.066 -0.0153188 173.375 -0.00844594 173.698 0.00877668C174.022 0.0259984 174.35 0.0530986 174.659 0.0879578C174.809 0.110481 174.991 0.127433 175.165 0.135294C175.34 0.143154 175.494 0.141321 175.597 0.130173C176.063 0.0972973 176.809 0.127577 177.195 0.0720458C177.332 0.0592742 177.527 0.0574906 177.747 0.0670079C177.967 0.0765252 178.196 0.0967269 178.393 0.123991C178.177 0.132497 177.984 0.145894 177.82 0.163882C177.23 0.222319 177.447 0.319961 178.196 0.461916C179.346 0.454108 180.521 0.456326 181.587 0.429571C182.181 0.405555 182.909 0.413063 183.689 0.451252C184.469 0.489441 185.27 0.556797 186.002 0.645745C186.267 0.67995 186.569 0.703638 186.848 0.71211C187.128 0.720583 187.363 0.713216 187.509 0.69147C187.599 0.66632 187.627 0.634492 187.59 0.598744L186.839 0.536185C186.839 0.536185 186.868 0.502804 186.875 0.495386L187.956 0.489777C188.527 0.489583 189.124 0.499416 189.664 0.496615C190.458 0.477985 191.364 0.48837 192.327 0.527122C193.215 0.566859 194.088 0.596895 194.938 0.616966C195.76 0.637625 196.356 0.571766 197.139 0.561248C197.731 0.55332 198.382 0.561792 199.067 0.586334C200.251 0.629859 201.337 0.629941 202.227 0.586568C203.265 0.82025 203.77 0.858245 204.733 0.795101L205.186 0.777062L205.31 0.827183L205.656 0.816161C206.304 0.806344 206.951 0.796532 207.627 0.79303C208.566 0.814716 209.58 0.873062 210.571 0.96237C210.759 0.97801 211.014 1.03115 211.18 1.07275C211.345 1.11436 211.705 1.23986 211.969 1.32156C211.681 1.38121 211.361 1.43824 211.133 1.50681C211.11 1.51852 211.112 1.53249 211.139 1.54759C211.167 1.56269 211.218 1.5785 211.29 1.59375C211.361 1.609 211.451 1.62326 211.552 1.63539C211.652 1.64752 211.761 1.65719 211.869 1.6636C212.079 1.67743 212.287 1.68665 212.484 1.69087C213.451 1.69817 214.378 1.69275 215.255 1.67467C215.575 1.64916 216.013 1.64673 216.5 1.66778C216.987 1.68884 217.495 1.73215 217.943 1.79087C219.09 1.75562 220.423 1.76603 221.85 1.82139C223.359 1.78772 225.182 1.85581 226.592 1.78204C226.56 1.81913 226.705 1.88299 226.908 1.91978C227.229 1.97567 227.592 2.02746 227.983 2.07297L230.964 2.16182C231.076 2.2075 231.215 2.25375 231.381 2.29996C231.494 2.33646 231.691 2.37218 231.931 2.39954C232.17 2.4269 232.433 2.44376 232.664 2.44653C233.257 2.46007 233.754 2.4298 234.462 2.50459C233.372 2.57529 231.903 2.5659 230.316 2.47809C228.824 2.4113 227.39 2.37793 226.065 2.3792C225.629 2.37869 225.054 2.38259 224.917 2.42299C224.615 2.53717 223.824 2.51912 222.901 2.49805C222.176 2.475 221.514 2.47759 220.969 2.5056C220.424 2.53362 220.012 2.58627 219.766 2.65921C219.704 2.72968 219.853 2.78984 220.489 2.83084L223.135 2.99528C223.525 2.97413 223.895 2.94911 224.243 2.9203C224.83 2.88205 225.555 2.87154 226.362 2.88962C227.168 2.90769 228.034 2.95385 228.892 3.02451C229.331 3.061 229.769 3.09749 230.087 3.08016C230.366 3.06024 230.623 3.03639 230.856 3.00879C230.903 2.99029 230.922 2.969 230.912 2.94573C231.081 2.95655 231.25 2.97062 231.413 2.98744C232.719 3.18374 233.731 3.18034 234.65 3.12942C234.899 3.11429 235.088 3.09023 235.34 3.07139C235.592 3.05254 235.681 3.02809 235.91 3.03521C237.736 3.09958 238.262 2.88456 239.801 2.8932C239.876 2.8848 239.923 2.87224 239.937 2.85668C239.95 2.84113 239.931 2.82308 239.88 2.80418C239.771 2.78712 239.645 2.77245 239.514 2.76152C239.382 2.75059 239.25 2.74375 239.128 2.74162C238.42 2.71403 237.794 2.72249 237.358 2.76556C237.05 2.78316 236.723 2.79718 236.38 2.80755L234.839 2.49617C236.332 2.52471 237.744 2.52453 239.042 2.49561C239.326 2.47938 239.805 2.50735 240.204 2.51267L243.137 2.54177C243.74 2.54418 244.254 2.49537 245.095 2.60916C245.095 2.60916 245.651 2.62751 245.799 2.61197C245.947 2.59643 246.604 2.4998 246.996 2.43685C247.45 2.4548 248.08 2.50323 248.364 2.48699C248.858 2.44711 249.287 2.39599 249.641 2.33453L251.413 2.42226C251.411 2.5002 251.346 2.57351 251.22 2.6411C251.082 2.70627 251.087 2.78452 251.234 2.86942C251.381 2.95432 251.666 3.04348 252.067 3.1296L253.817 3.58574C254.102 3.61629 254.406 3.63684 254.688 3.64463C254.97 3.65242 255.216 3.64705 255.392 3.62926C256.145 3.57643 256.988 3.53514 257.741 3.48232C258.712 3.56313 258.462 3.69365 259.168 3.80814L261.455 3.99842C261.804 4.17475 262.159 4.34367 261.098 4.40271C260.887 4.41303 261.03 4.4806 260.837 4.50836C261.662 4.6407 262.568 4.68031 263.404 4.76182C263.734 4.82043 264.009 4.88248 264.218 4.94497C264.446 5.03905 264.91 5.13515 265.509 5.21253C266.107 5.2899 266.793 5.34234 267.417 5.35851C268.464 5.40805 269.536 5.48245 270.585 5.57838C270.944 5.61174 271.312 5.63604 271.665 5.64966C272.019 5.66327 272.349 5.66587 272.634 5.65729C273.649 5.64219 274.508 5.59025 275.156 5.50485C275.796 5.43237 276.659 5.39744 277.666 5.40322C279.389 5.54659 279.737 5.76263 280.779 5.9529L278.978 5.97424C278.913 6.04842 279.032 6.14195 278.294 6.14023C277.556 6.13852 277.93 6.2095 278.17 6.28118C278.254 6.31723 278.419 6.35432 278.636 6.38617C278.853 6.41801 279.109 6.44265 279.36 6.45592L280.893 6.54766C281.437 6.58258 281.963 6.59748 282.414 6.59075C282.865 6.58402 283.223 6.5559 283.449 6.50949C283.708 6.46542 284.066 6.43561 284.501 6.42189C285.055 6.38594 285.511 6.33248 285.851 6.26352L288.015 6.36399C288.108 6.29469 288.405 6.2461 288.857 6.22643C289.31 6.20676 289.889 6.21722 290.498 6.25605L291.957 6.31771C293.578 6.385 293.934 6.36285 294.409 6.16747L292.464 5.8185C292.747 5.72657 293.02 5.64578 293.293 5.56498C292.808 5.45001 292.162 5.34127 291.419 5.2498C290.726 5.15151 290.013 5.05631 289.283 4.96458C288.492 4.87084 287.656 4.78933 286.673 4.68366C286.502 4.64948 286.252 4.58892 285.934 4.53058C285.615 4.47388 285.283 4.4183 284.938 4.36406C285.003 4.28988 285.062 4.22312 284.936 4.13701C285.541 4.16448 286.167 4.21254 286.756 4.27684C287.345 4.34115 287.879 4.41967 288.31 4.50534C288.382 4.52054 288.471 4.53481 288.57 4.54719C288.67 4.55958 288.777 4.56979 288.885 4.57713C289.949 4.62977 290.457 4.73974 290.977 4.87457C291.327 4.9435 291.778 5.00471 292.268 5.04971C293.208 5.12791 294.128 5.22837 295.026 5.31509C295.301 5.34399 295.587 5.36778 295.872 5.38547C296.811 5.44173 297.757 5.5204 298.66 5.61747C298.955 5.64214 299.238 5.67479 299.485 5.71269C299.732 5.75059 299.937 5.79263 300.082 5.83531C299.858 5.88208 299.737 5.94111 299.727 6.00883C299.688 6.05334 300.347 6.14408 300.659 6.20984C300.971 6.2756 300.36 6.24462 300.152 6.25123C299.3 6.26396 299.142 6.29062 299.652 6.43658C299.823 6.48247 299.936 6.5284 299.985 6.5715C300.033 6.61459 300.017 6.65394 299.936 6.6871C299.815 6.82434 299.446 6.93701 299.193 7.07124C299.586 7.15965 300.243 7.25409 300.314 7.36355C300.348 7.38784 300.421 7.41357 300.527 7.43888C300.632 7.46419 300.768 7.48846 300.925 7.50992C301.337 7.55625 301.712 7.61165 302.02 7.67184C302.329 7.73202 302.562 7.79538 302.703 7.85699C302.749 7.88247 302.861 7.9095 303.015 7.93267C303.169 7.95584 303.355 7.97343 303.535 7.98191C303.75 7.99232 303.942 7.99095 304.072 7.97807C304.203 7.9652 304.261 7.9418 304.234 7.91274C304.24 7.85813 304.211 7.80119 304.149 7.74242C304.185 7.70163 304.221 7.66083 304.079 7.59326C304.721 7.61792 305.395 7.66733 306.028 7.73614C306.661 7.80495 307.228 7.89052 307.669 7.98355C308.155 8.07979 308.604 8.18084 309.144 8.29343C309.033 8.41953 309.033 8.41953 310.181 8.64249L316.272 8.75122L317.52 8.89889C318.684 9.02762 318.961 9.0188 319.692 8.95225L320.184 8.88969C321.218 8.97571 322.408 9.07477 323.055 8.91358C323.265 9.01864 323.402 9.05393 323.354 9.06987C323.046 9.22491 322.509 9.35646 321.767 9.45931C321.577 9.48337 321.444 9.52005 321.223 9.5415C320.512 9.66257 320.347 9.84965 320.762 10.0645C320.968 10.1595 321.267 10.2569 321.65 10.3534C321.09 10.4873 320.347 10.5982 319.443 10.6833C318.675 10.749 318.043 10.8371 317.564 10.945C317.135 11.0538 316.491 11.1355 315.671 11.1856C315.255 11.2068 314.951 11.2488 314.79 11.3074C314.743 11.4658 314.853 11.6354 315.118 11.8124C315.168 11.8663 315.31 11.9244 315.533 11.9824C315.757 12.0403 316.054 12.0964 316.404 12.1463C316.404 12.1463 316.572 12.1842 316.653 12.2069C316.721 12.3987 316.468 12.5678 315.913 12.7027C315.822 12.741 315.636 12.7686 315.375 12.7827C315.114 12.7967 314.787 12.7966 314.431 12.7824C313.678 12.7595 312.974 12.7567 312.246 12.7438C311.461 12.7257 310.769 12.74 310.244 12.7853C309.719 12.8306 309.38 12.9051 309.262 13.0011C309.254 13.0283 309.231 13.0544 309.193 13.079C309.171 13.0917 309.159 13.1054 309.157 13.1198L310.83 13.4342L308.937 13.5594C308.826 13.6855 309.734 13.7611 310.19 13.8547L309.908 13.907C309.546 13.9365 309.058 13.88 308.616 13.8472L308.178 13.8107L308.125 13.87C307.852 13.9508 306.856 13.86 306.468 13.9193C306.079 13.9785 306.357 14.0454 306.939 14.1097C307.343 14.1576 307.778 14.1957 308.21 14.2213C308.641 14.2469 309.059 14.2592 309.431 14.2574C309.653 14.2511 309.838 14.2366 309.973 14.2149C310.758 14.1225 311.626 14.043 312.57 13.9772C313.293 13.918 314.199 13.8928 315.224 13.9034C315.525 13.8989 315.887 13.913 316.248 13.943C316.609 13.973 316.945 14.0171 317.197 14.0676L317.728 14.0759C317.728 14.0759 318.018 14.128 317.977 14.1365C317.775 14.2906 318.01 14.4791 318.646 14.6739L318.093 14.6916C317.302 14.6735 317.803 14.7909 317.685 14.8487C317.123 14.8378 316.393 14.789 316.127 14.8624L315.728 14.857L315.884 14.8701L316.074 14.846L316.818 14.9557C316.465 14.9741 316.21 14.9967 315.898 15.0066C315.726 15.0152 315.59 15.0305 315.496 15.0514C315.402 15.0724 315.354 15.0986 315.354 15.1285C315.355 15.1745 315.262 15.2132 315.084 15.241C314.907 15.2687 314.651 15.2846 314.34 15.287C313.969 15.288 313.757 15.338 313.539 15.3557L314.484 15.6573C314.484 15.6573 314.014 15.6182 314.27 15.6713L314.303 15.6342L314.875 15.7097C315.287 15.7759 315.576 15.7919 315.819 15.7445C316.063 15.6971 316.007 15.7602 316.124 15.742C316.081 15.7902 315.816 15.8239 315.589 15.8528C315.327 15.8754 315.03 15.8921 314.705 15.9026C315.291 16.1146 315.319 16.1209 314.463 16.1771C313.606 16.2332 313.902 16.3175 313.185 16.3295C312.468 16.3415 313.283 16.485 313.763 16.513C314.118 16.5314 314.481 16.56 314.826 16.5969C315.17 16.6339 315.489 16.6782 315.76 16.7269L315.616 16.8901C315.405 16.8766 315.193 16.859 314.989 16.838C314.295 16.7484 313.663 16.6639 313.046 16.7161L313.34 16.8401L311.184 16.7682C311.24 16.8611 311.568 16.967 312.1 17.0634C312.02 17.1164 311.971 17.1721 311.953 17.2303C311.917 17.2711 311.704 17.2454 311.566 17.2499C311.072 17.2567 310.667 17.2843 310.386 17.3304C310.105 17.3764 309.957 17.4394 309.955 17.5139C309.899 17.5769 310.658 17.7078 311.132 17.7035C312.317 17.716 313.598 17.7645 314.907 17.8463C315.704 17.857 315.817 17.6912 317.129 17.8044C317.155 17.8809 316.987 17.9429 316.65 17.981C316.314 18.019 315.826 18.031 315.262 18.0153C315.583 18.1853 317.359 18.2296 317.438 18.4073C316.996 18.3948 316.523 18.3653 316.066 18.3216C315.609 18.278 315.184 18.2219 314.833 18.1587C314.757 18.1432 314.662 18.1288 314.556 18.117C314.451 18.1052 314.338 18.0963 314.229 18.0912C314.119 18.086 314.016 18.0848 313.93 18.0876C313.844 18.0904 313.777 18.0971 313.735 18.1072C313.981 18.1714 314.252 18.2457 314.56 18.3152C314.869 18.3847 314.943 18.4147 315.166 18.4293C316.826 18.5674 317.615 18.8162 319.052 18.9796C319.427 19.0108 319.474 19.1103 319.148 19.0991C318.837 19.0878 318.556 19.0893 318.336 19.1033C318.116 19.1173 317.965 19.1433 317.901 19.1784C317.66 19.2194 317.36 19.252 317.009 19.2754C318.482 19.5307 320.238 19.7563 322.113 19.931C322.468 19.9655 322.838 19.9866 323.169 19.9911C324.216 19.9913 325.326 20.0116 326.478 20.0515C326.887 20.0623 327.264 20.0613 327.59 20.0485C328.66 20.018 329.509 20.0847 330.284 20.2726L331.568 20.5706C331.526 20.6188 331.31 20.6725 331.144 20.7463L332.147 20.9054L339.8 20.539L341.336 20.8938L343.539 20.874C343.708 20.8843 343.878 20.8984 344.041 20.9158C344.486 21.0205 344.835 21.1212 345.318 21.2211C345.801 21.3211 346.665 21.3332 347.267 21.451C347.869 21.5688 348.472 21.5712 349.218 21.6412C349.288 21.7324 349.215 21.8144 349.005 21.8823C348.936 21.9602 348.558 22.0083 348.492 22.0825C348.499 22.1574 348.359 22.2211 348.083 22.2676C347.807 22.3142 347.404 22.3422 346.912 22.3491C345.533 22.5087 343.87 22.6224 341.974 22.6867C341.808 22.6913 341.67 22.7021 341.568 22.7184C341.467 22.7346 341.406 22.756 341.387 22.7811C341.389 22.8539 341.263 22.9167 341.016 22.9651C340.77 23.0135 340.41 23.0462 339.963 23.0608C339.844 23.0637 339.754 23.0728 339.705 23.087C339.535 23.0962 339.411 23.1137 339.346 23.1379C339.28 23.1622 339.275 23.1922 339.33 23.2253C339.386 23.2583 339.5 23.2931 339.662 23.3265C339.824 23.3598 340.028 23.3905 340.255 23.4155C340.585 23.4559 340.921 23.4945 341.263 23.5312C341.243 23.5535 340.904 23.5571 340.953 23.5771C341.087 23.6411 341.118 23.7011 341.044 23.7523C340.97 23.8034 340.792 23.8444 340.525 23.8719L342.354 24.3904C343.465 24.4623 344.554 24.584 345.415 24.7327C345.416 24.7571 345.366 24.7775 345.271 24.7919C345.176 24.8063 345.038 24.8142 344.872 24.8149C344.425 24.8255 344.003 24.8462 343.522 24.8579C343.228 24.8666 342.984 24.8859 342.802 24.9146C342.621 24.9433 342.507 24.9808 342.467 25.0249L343.541 25.2178C343.197 25.2648 342.942 25.2873 342.715 25.3162C342.843 25.3768 343.065 25.4395 343.362 25.4994C343.659 25.5594 344.023 25.6149 344.427 25.6618C344.535 25.6714 344.646 25.6785 344.752 25.6825C344.858 25.6866 344.958 25.6875 345.045 25.6853C345.877 25.6192 346.85 25.736 347.795 25.8464C348.74 25.9569 349.253 26.0235 349.95 26.1094L351.285 26.121C351.623 26.1616 351.924 26.2095 352.165 26.2606C352.406 26.3118 352.58 26.3649 352.672 26.4156C352.6 26.4972 351.967 26.4525 351.59 26.4609C350.695 26.5117 349.518 26.5008 348.255 26.4302C347.942 26.4041 347.621 26.4252 347.316 26.4277C346.658 26.4378 346.026 26.4543 345.423 26.4772C345.025 26.4984 344.654 26.5247 344.311 26.5559C344.219 26.6597 345.662 26.7399 344.843 26.7912C345.125 26.8147 345.231 26.8474 345.376 26.8355C346.304 26.903 347.219 26.9363 348.014 26.9317C349.54 26.9174 351.273 26.9647 353.071 27.0698C355.011 27.1787 356.872 27.2244 358.501 27.2032C359.121 27.2019 359.814 27.2242 360.528 27.2684C361.37 27.3295 362.207 27.3679 362.984 27.3812C363.241 27.3816 363.527 27.392 363.82 27.4115C364.112 27.431 364.402 27.4591 364.667 27.4934C364.644 27.5193 364.392 27.5382 364.448 27.5508C365.252 27.7451 365.578 27.9474 366.815 28.1459C367.661 28.2163 368.632 28.2971 369.185 28.2037C369.738 28.1104 369.539 28.0302 368.439 27.7913C368.678 27.7879 368.965 27.799 369.252 27.8229C369.538 27.8467 369.805 27.8816 370.005 27.9217L370.957 28.1004L371.815 28.2713C371.74 28.3566 371.681 28.4234 371.619 28.4939C371.52 28.5687 371.628 28.6598 371.927 28.7544C372.107 28.8061 372.264 28.8577 372.396 28.9089C372.932 29.1136 373.087 29.3072 372.844 29.4678C372.378 29.6987 371.73 29.9111 370.906 30.1027C370.035 30.289 369.559 30.5241 368.842 30.7272C368.476 30.8197 368.032 30.9026 367.514 30.975C366.531 31.1361 365.454 31.2893 364.468 31.4541C363.482 31.6189 362.369 31.7373 361.274 31.8731C359.644 32.0343 357.882 32.1735 355.998 32.29C354.832 32.392 353.634 32.4915 352.556 32.6087C351.282 32.7409 349.786 32.8359 348.104 32.8912C346.618 32.9574 345.291 33.0553 344.148 33.183C344.028 33.1969 343.933 33.2145 343.866 33.2353C343.661 33.3656 343.084 33.4574 342.224 33.4967C342.276 33.5348 342.343 33.5736 342.424 33.6129C342.543 33.6597 342.568 33.7035 342.495 33.7386C342.422 33.7737 342.255 33.7985 342.015 33.8098C341.327 33.842 340.755 33.8968 340.325 33.9717C340.167 33.9905 340.069 34.0179 340.04 34.0515C340.01 34.0851 340.05 34.1239 340.155 34.1646C340.248 34.2065 340.255 34.2451 340.175 34.2753C340.094 34.3055 339.93 34.3259 339.703 34.334C339.121 34.3737 338.497 34.4056 337.837 34.4295C336.431 34.4824 334.796 34.4817 333.03 34.4277C332.842 34.412 332.653 34.4361 332.434 34.4179C331.185 34.3573 330.025 34.3479 329.095 34.3909C328.004 34.4076 326.864 34.4043 325.714 34.4121C324.053 34.4068 322.52 34.4387 321.159 34.5068C319.603 34.441 318.728 34.5553 317.415 34.5575C316.203 34.5693 315.054 34.5975 313.979 34.6418C312.246 34.7006 310.519 34.752 308.811 34.8209C307.208 34.8537 305.733 34.9164 304.409 35.008C303.902 35.0494 302.984 34.9849 302.638 35.0716C302.293 35.1584 301.596 35.1481 301.032 35.1769L299.255 35.2479C298.949 35.2648 298.613 35.2756 298.252 35.2799C296.599 35.2857 295.455 35.4015 293.921 35.4251L293.764 35.4121C291.04 35.5842 287.924 35.6787 284.505 35.6927C282.509 35.7455 280.325 35.743 278.207 35.7816C277.701 35.859 276.508 35.7637 275.874 35.8343C275.24 35.905 274.205 35.8587 273.387 35.8703C272.57 35.8819 271.771 35.911 270.898 35.91C270.14 35.9103 269.499 35.9419 269.035 36.0018C267.976 36.1008 266.684 36.1591 265.218 36.1739C263.279 36.1996 261.446 36.258 259.473 36.2452C259.501 36.3174 259.38 36.3788 259.122 36.4231C258.865 36.4674 258.48 36.493 258.006 36.4974C255.898 36.5249 253.985 36.5967 251.848 36.6179L251.276 36.6181L244.885 36.6595C243.163 36.6675 241.504 36.6807 239.747 36.6899C239.09 36.6351 239.074 36.7293 238.619 36.7114C238.492 36.665 238.341 36.6445 238.118 36.6697L238.068 36.7253L230.774 36.7991C227.919 36.8531 224.914 36.8693 221.788 36.8475C221.046 36.853 220.354 36.8714 219.722 36.9026C219.136 36.9139 218.525 36.9189 217.893 36.9176C217.038 36.9036 216.202 36.8965 215.39 36.8964C213.253 36.9176 211.01 36.9062 208.67 36.8906C206.33 36.8751 204.558 36.9027 202.475 36.9006C201.064 36.8987 199.66 36.8893 198.2 36.8674C197.503 36.8571 196.644 36.8016 195.923 36.7813C195.201 36.7611 194.965 36.7614 194.87 36.7932C194.556 36.8826 193.766 36.8248 193.135 36.8161C191.904 36.8012 191.729 36.7708 191.395 36.5399L192.905 36.4665C193.275 36.4428 193.741 36.4387 194.257 36.4544C194.773 36.4702 195.323 36.5053 195.852 36.5565C196.06 36.5784 196.278 36.5957 196.493 36.6074C196.708 36.6191 196.915 36.625 197.103 36.6247C198.627 36.6122 200.13 36.586 201.594 36.5646L201.809 36.5505L201.822 36.3446C201.628 36.3244 201.427 36.3077 201.227 36.2951L193.88 36.1615C192.195 36.1287 190.444 36.0547 188.79 36.0245C187.135 35.9943 186.243 35.9758 184.96 35.9447C184.418 35.9269 183.866 35.9035 183.307 35.8748C183.339 35.8549 183.358 35.8339 183.362 35.8117C183.392 35.7783 183.431 35.7338 183.193 35.6981C182.934 35.6477 182.588 35.6047 182.224 35.5776C181.881 35.5597 181.55 35.5496 181.241 35.5476C179.752 35.5304 178.05 35.4216 176.499 35.2446L175.958 35.3627C173.629 35.2964 171.266 35.2311 168.833 35.168C168.346 35.1508 167.835 35.1178 167.338 35.0714C166.805 35.0271 166.315 34.9346 165.755 34.884C165.201 34.8475 164.651 34.8191 164.115 34.7992C164.26 34.7688 164.451 34.7445 164.683 34.7271C164.911 34.721 165.077 34.702 165.157 34.6728C165.237 34.6437 165.227 34.606 165.128 34.5651C164.955 34.4949 164.879 34.4288 165.256 34.4204C165.605 34.4044 165.854 34.3698 165.975 34.3206C166.096 34.2714 166.083 34.2097 165.938 34.1428C165.874 34.1036 165.83 34.0653 165.804 34.0281L165.647 34.015C165.13 33.8765 164.099 33.8265 163.358 33.7131C163.009 33.6802 162.647 33.6613 162.33 33.6593C161.51 33.635 160.713 33.6243 159.866 33.5937C159.461 33.5795 159.038 33.5538 158.621 33.518C158.026 33.4684 157.963 33.4632 157.618 33.2832C158.154 33.2863 158.58 33.2594 158.822 33.207C159.064 33.1546 159.109 33.08 158.947 32.9957C158.505 32.8115 158.037 32.6173 156.034 32.4865C156.687 32.4801 157.316 32.4672 157.917 32.4481C158.092 32.444 158.223 32.4305 158.293 32.4094C158.362 32.3882 158.367 32.3605 158.306 32.3299C158.245 32.2993 158.122 32.2673 157.953 32.2381C157.783 32.2089 157.576 32.184 157.359 32.1667C156.301 32.0626 155.199 31.9928 154.174 31.9654C153.31 31.9533 152.531 31.9601 151.522 31.9598L150.332 31.8607C150.352 31.8385 150.177 31.808 150.221 31.7958C150.524 31.6816 150.858 31.57 151.201 31.4473C150.652 31.3811 150.177 31.3011 149.829 31.2165C149.482 31.132 149.276 31.0463 149.236 30.9692C149.206 30.946 149.214 30.9248 149.258 30.9072C149.303 30.8896 149.383 30.8759 149.494 30.8673C149.807 30.8524 150.049 30.8239 150.201 30.7841C150.352 30.7442 150.41 30.6941 150.369 30.6375L149.443 30.4291C146.656 30.2804 143.919 30.1741 141.283 30.1123L138.903 30.0656C138.616 30.0099 138.705 29.9854 138.975 29.984C139.245 29.9826 140.005 29.9981 140.536 30.0064C140.994 30.0173 141.401 30.0101 141.717 29.9855C142.034 29.9609 142.248 29.9197 142.341 29.8659L141.542 29.6283C141.581 29.5838 141.637 29.5207 142.07 29.5249C142.366 29.5198 142.584 29.4974 142.689 29.4613C142.794 29.4253 142.78 29.3777 142.649 29.3262C142.629 29.289 142.659 29.2551 142.737 29.2261C143.378 29.2237 144.016 29.225 144.597 29.2137C144.868 29.2099 145.097 29.1961 145.268 29.1733C145.439 29.1504 145.548 29.119 145.589 29.0812C145.609 29.0442 145.558 29.0022 145.439 28.9584C145.32 28.9146 145.136 28.8703 144.903 28.829C143.992 28.778 143.158 28.7774 142.585 28.8272C142.38 28.8663 142.052 28.8876 141.643 28.8884C141.234 28.8892 140.764 28.8695 140.294 28.8317C139.756 28.7882 139.22 28.769 138.781 28.7778C138.341 28.7865 138.029 28.8224 137.899 28.8792C137.347 28.8571 136.857 28.8403 136.374 28.816C135.805 28.7854 135.266 28.7764 134.817 28.7899C134.098 28.7995 133.324 28.7939 132.512 28.7733C130.17 28.7217 127.825 28.6739 125.557 28.6524C124.957 28.6463 124.438 28.6628 123.845 28.6493C123.252 28.6357 122.783 28.6723 122.041 28.5986C121.899 28.5872 121.757 28.5798 121.625 28.5772C121.493 28.5745 121.375 28.5765 121.281 28.5832C119.978 28.6415 118.45 28.6497 116.788 28.6074C114.51 28.5971 112.149 28.5678 109.868 28.5611C109.2 28.5668 108.567 28.5822 107.979 28.6069C107.531 28.6219 107.061 28.632 106.573 28.6373C106.199 28.642 105.842 28.6281 105.905 28.709C105.968 28.7899 105.407 28.7393 105.084 28.7244C103.974 28.6851 102.84 28.632 101.694 28.5657C100.565 28.4935 99.458 28.4515 98.4405 28.4422C97.7056 28.4368 96.9477 28.4573 96.0029 28.3469C96.0388 28.3061 96.0748 28.2653 96.2805 28.2227C95.5099 28.1054 94.6308 28.0046 93.7157 27.9284C92.8006 27.8523 91.8759 27.803 91.0181 27.7847L89.8352 27.5629C89.5439 27.5368 89.2466 27.5178 88.9613 27.5071C88.676 27.4964 88.4086 27.4941 88.1755 27.5004C87.9953 27.5036 87.7757 27.4954 87.5571 27.4772C87.3384 27.459 87.1354 27.4321 86.9851 27.4013C86.7605 27.3623 86.4862 27.3286 86.1964 27.3045C85.9067 27.2804 85.6144 27.2669 85.3563 27.2658C84.5435 27.2417 83.676 27.186 82.8424 27.1044C82.6261 27.0565 82.4906 27.0071 82.4525 26.9622C82.4144 26.9173 82.4756 26.8789 82.6283 26.8517C82.8745 26.8036 83.0128 26.7423 83.0347 26.6716C83.0566 26.6009 82.9617 26.5222 82.7558 26.4403C82.6503 26.3899 82.6151 26.3423 82.6522 26.3003C82.6893 26.2582 82.798 26.2225 82.9717 26.1955C83.6201 26.0703 83.4467 26.0001 82.3858 25.7924C82.2135 25.7577 82.0057 25.7254 81.7758 25.6973C81.5459 25.6693 81.2988 25.6462 81.0501 25.6295C80.4666 25.5956 79.8912 25.5704 79.3343 25.5544C79.0211 25.5283 78.6998 25.5493 78.3389 25.5392C76.5343 25.4886 76.2701 25.4069 75.6857 25.2308L75.2597 25.1038C74.4698 25.0009 73.6059 24.9155 72.7302 24.8536C71.8544 24.7918 70.9888 24.755 70.1956 24.7461C69.8803 24.7454 69.5178 24.7278 69.1638 24.6961C68.0114 24.5989 66.8444 24.5316 65.7401 24.4987C65.0519 24.4802 64.3101 24.4324 63.6037 24.3609C62.8974 24.2894 62.2565 24.1973 61.7581 24.0957C61.3104 24.0042 60.7247 23.922 60.0825 23.8607C59.3307 23.7981 59.2611 23.7247 59.6809 23.668C60.1007 23.6114 60.8038 23.5385 61.428 23.479C61.6451 23.4588 61.7797 23.4259 61.8167 23.3839C61.8536 23.342 61.7916 23.2928 61.6373 23.2416C61.5383 23.1541 61.5211 23.0711 61.5863 22.9945C61.6211 22.9627 61.597 22.9262 61.5158 22.8875C61.4346 22.8489 61.2981 22.8089 61.1154 22.7703C60.9328 22.7317 60.7083 22.6954 60.4571 22.6638C60.2059 22.6323 59.9337 22.6062 59.6591 22.5873C58.5001 22.4908 57.3724 22.397 56.1905 22.3265C55.6952 22.2933 55.2004 22.2521 54.7183 22.204C53.7313 22.085 52.6755 21.9863 51.612 21.9137C51.1073 21.8812 50.6139 21.8244 50.2385 21.7556C49.0545 21.5702 47.9635 21.3752 46.9853 21.1743C46.7495 21.112 46.441 21.0512 46.0792 20.9957C45.7173 20.9403 45.3098 20.8913 44.8824 20.852C44.5378 20.8233 44.2573 20.7602 43.9917 20.7182C43.7988 20.6209 43.7781 20.5309 43.9318 20.4566C44.0855 20.3824 44.4086 20.3263 44.8705 20.2936C45.3086 20.2544 45.7185 20.2089 46.0972 20.1608C46.5537 20.1219 47.0963 20.0985 47.705 20.0916C48.4259 20.0707 48.959 20.011 49.2347 19.9203C47.2613 19.756 45.3846 19.5202 43.6548 19.5754L42.3405 19.4262C42.3929 19.3668 42.4387 19.3149 42.4812 19.2667C42.7938 19.1789 42.8914 19.0682 42.7658 18.944C42.6623 18.8839 42.6717 18.8292 42.7929 18.7855C42.9141 18.7417 43.143 18.7105 43.4563 18.6949C45.3123 18.5348 47.4586 18.4268 49.1991 18.2452C49.7449 18.2111 50.3837 18.1956 51.0888 18.1994C51.7709 18.1885 51.7424 18.1064 50.9574 18.0053C50.5168 17.9524 50.0677 17.9018 49.6118 17.8535C47.6015 17.8455 46.7825 18.0879 44.4884 18.0204L43.4252 17.701C43.1376 17.696 42.8585 17.6941 42.5897 17.6951L38.7431 17.8249C38.4227 17.8314 38.1733 17.8536 38.0232 17.889C37.8731 17.9244 37.8284 17.9715 37.8941 18.025C37.9201 18.0905 37.8672 18.1506 37.7371 18.203C37.6532 18.2398 37.7068 18.2886 37.8863 18.3389C38.2907 18.4522 37.7718 18.4687 37.4441 18.4972C37.3603 18.4999 37.2637 18.4996 37.1599 18.4963C37.0561 18.4929 36.9471 18.4866 36.8393 18.4776C36.7315 18.4686 36.627 18.4572 36.5318 18.444C36.4367 18.4308 36.3528 18.4161 36.2851 18.4007C35.7077 18.2929 35.2027 18.1793 34.6351 18.0604C35.0381 17.9466 34.5639 17.7598 35.1927 17.6569C35.263 17.6363 35.2912 17.6113 35.2754 17.5832C35.2596 17.5552 35.2003 17.5249 35.101 17.494C34.845 17.4143 34.723 17.3366 34.7475 17.2687C34.7719 17.2008 34.9419 17.1452 35.2402 17.1074L35.2762 17.0666C34.4894 16.9295 34.6979 16.8075 34.3888 16.6623L33.6319 16.5675C31.7486 16.3391 31.7454 16.3428 30.124 16.3512C29.7972 16.2643 30.2124 16.2511 30.5238 16.2412L33.1316 16.1437C34.8366 16.0785 36.5911 16.0334 38.4958 16.0088C40.4004 15.9841 42.5238 15.9021 44.4925 15.8429C44.592 15.8384 44.6682 15.8293 44.7145 15.8165C44.7609 15.8038 44.7761 15.7877 44.7589 15.7696C44.6807 15.75 44.5783 15.7311 44.4592 15.7143C44.3402 15.6975 44.2076 15.6832 44.0712 15.6725C43.4447 15.6204 42.8019 15.5868 42.1343 15.5432L40.8897 15.4675L40.5068 15.3679C40.2576 15.3074 40.0874 15.2335 39.7559 15.19C39.4827 15.1575 39.1862 15.1329 38.8972 15.1187C38.6081 15.1044 38.3372 15.1011 38.1126 15.109C37.4899 15.1288 36.9265 15.1576 36.3318 15.1837C35.7372 15.2099 35.4094 15.2384 34.8938 15.2512C33.8461 15.257 32.8336 15.2725 31.8606 15.2974C31.0411 15.3564 30.2831 15.4263 29.5914 15.5067C29.1599 15.5384 28.7563 15.5765 28.0195 15.5351C27.67 15.4976 27.3685 15.4482 27.1685 15.3959C26.9684 15.3435 26.8829 15.2915 26.9269 15.2491C26.9664 15.2159 27.0783 15.1895 27.2521 15.1727C27.4258 15.1558 27.6556 15.1489 27.9198 15.1526C28.6594 15.1465 29.3433 15.1259 29.9578 15.0913C30.813 15.0285 31.8542 15.0015 33.0204 15.0117C33.4159 15.0207 33.681 14.987 34.027 14.976C34.3729 14.965 34.666 14.9376 35.0517 14.9578C36.25 15.0097 36.8245 14.9301 37.5426 14.8784C37.7857 14.8555 37.9363 14.8184 37.9779 14.7713C38.0194 14.7242 37.9503 14.6688 37.7782 14.6114C37.4467 14.4969 37.0413 14.3818 36.5682 14.2678C36.3247 14.2118 36.0127 14.1586 35.6568 14.1124C35.3009 14.0662 34.9106 14.0283 34.5166 14.0015C34.2808 13.9314 34.1551 13.8625 34.1506 13.8009C34.1462 13.7394 34.2633 13.6872 34.4913 13.6491C35.0724 13.5621 35.5876 13.4736 36.8896 13.5222C37.5018 13.5408 38.0779 13.5443 38.5951 13.5327C39.7422 13.5168 41.0654 13.5516 42.44 13.6337C42.7956 13.6548 43.1452 13.6691 43.4783 13.6763C45.8547 13.7268 48.1189 13.752 50.3896 13.7697C51.5925 13.7783 52.8052 13.7757 54.061 13.8005C57.0059 13.8545 59.6866 13.8268 62.5291 13.8443C64.0178 13.8534 65.3503 13.817 66.4567 13.7372C66.6721 13.7105 66.8572 13.6792 67.0097 13.6439C66.2765 13.5512 65.4711 13.4777 64.6708 13.4307C63.8704 13.3836 63.1019 13.3644 62.4387 13.375C62.0742 13.401 61.603 13.4057 61.0777 13.3887C60.5525 13.3717 59.9938 13.3336 59.4639 13.2787L61.0044 13.2477C62.0259 13.2331 63.0722 13.2286 64.0656 13.2078C65.644 13.1719 67.1068 13.1145 68.7412 13.0913C70.0607 13.0699 71.2416 13.0153 72.2465 12.9291C72.9726 12.8663 73.8018 12.8217 74.7174 12.7963C75.3681 12.7828 75.3681 12.7828 75.7842 12.6542C75.4541 12.571 75.0273 12.5593 74.6252 12.5577C72.2147 12.5054 69.9208 12.4962 67.7901 12.5304C66.7151 12.5334 65.7614 12.5687 64.9748 12.6345C64.7822 12.6623 64.2894 12.6491 63.8939 12.6401C62.654 12.6264 61.4689 12.6304 60.353 12.652C58.81 12.6881 57.0916 12.6795 55.2645 12.6267C54.918 12.562 55.3168 12.5673 55.3365 12.5451C56.7516 12.5036 58.1387 12.4558 59.5819 12.4206C59.9765 12.4081 60.3982 12.4019 60.8423 12.4021C62.5006 12.4239 63.8824 12.3635 64.7942 12.2293C64.84 12.1774 65.4398 12.1835 65.7049 12.1498C65.8353 12.1207 65.9221 12.0864 65.9629 12.0479C65.5767 11.952 65.1401 11.9515 64.8039 11.9514C63.8285 11.9621 62.8901 11.9824 61.9933 12.0122C61.1596 12.0405 60.2368 12.048 59.2499 12.0347C58.5215 12.0218 57.8988 12.0417 57.1638 12.0363C56.7652 12.0249 56.3525 12.0065 55.9342 11.9817C56.4 11.9149 57.033 11.8738 57.7889 11.8613C58.3621 11.8215 59.0787 11.8094 59.1703 11.7056C58.8996 11.6313 58.5981 11.6301 58.3559 11.6378C57.8518 11.6375 57.3649 11.6422 56.8977 11.6518C55.9071 11.6729 54.8346 11.6732 53.7027 11.6527C53.1067 11.645 52.5411 11.6473 52.0155 11.6596C50.8242 11.6759 49.6826 11.7123 48.5919 11.729C46.3576 11.7461 44.3198 11.8075 42.173 11.8398C41.6952 11.8478 41.2669 11.8759 40.6372 11.8275C40.0074 11.7791 39.9794 11.7727 39.905 11.7427C39.7288 11.6925 39.6754 11.6438 39.7559 11.6068C39.8808 11.5723 40.1242 11.553 40.4426 11.5525C42.3617 11.4975 44.182 11.4202 45.892 11.3212C46.6445 11.3014 47.3039 11.2609 47.847 11.2012C48.2778 11.1601 48.7888 11.1329 49.3641 11.1204C50.2007 11.0907 51.0728 11.069 51.977 11.0552C52.3977 11.0478 52.7554 11.0258 53.0291 10.9905C53.3028 10.9551 53.487 10.9072 53.5707 10.8494L52.4622 10.6576C52.288 10.6487 52.1153 10.641 51.9446 10.6345L42.7444 10.7726L41.8333 10.7764C40.8347 10.765 40.5906 10.7367 39.6434 10.5146C41.8052 10.4623 43.5046 10.31 44.5723 10.0727C44.3157 10.0472 44.0526 10.0253 43.7892 10.0076C42.0616 9.95146 40.4284 9.93654 38.9527 9.96341C38.0761 9.96611 37.1748 9.95878 36.2701 9.95516C36.5347 9.8458 37.5483 9.87838 38.2089 9.85373C39.7872 9.81515 41.183 9.73546 42.3515 9.6172C42.7543 9.57109 43.2583 9.5416 43.8404 9.5301C44.4229 9.52614 44.9095 9.49823 45.2579 9.4488C45.6062 9.39938 45.8057 9.32993 45.8389 9.24652C45.8938 9.17099 46.0121 9.10081 46.1919 9.03702C45.8737 8.9465 45.3685 8.85982 44.771 8.79324C44.1735 8.72666 43.5249 8.68476 42.9468 8.6754C41.7127 8.63813 40.4327 8.57712 39.1393 8.49392C38.4951 8.45195 37.8633 8.42787 37.2851 8.42322C36.7753 8.41965 36.1957 8.38934 35.6348 8.33692C35.074 8.2845 34.5627 8.21284 34.1789 8.13288C33.6609 8.03403 33.1774 7.93408 32.6939 7.83413C32.2105 7.73418 31.6495 7.60787 31.0852 7.48527C30.5876 7.46609 30.1031 7.45377 29.6382 7.44846C29.2765 7.45296 28.8545 7.43959 28.4219 7.40994C27.9893 7.38029 27.5642 7.33559 27.1968 7.28112C27.4123 7.22739 27.6559 7.17998 27.9125 7.11773C27.5602 7.03553 27.3048 6.9517 27.1618 6.87135C27.0188 6.79101 26.9912 6.71582 27.0807 6.65038C27.133 6.59104 26.7501 6.49149 26.6178 6.41279C26.4474 6.34495 26.4154 6.28164 26.526 6.23116C26.6365 6.18068 26.8844 6.14539 27.2372 6.12991C27.6748 6.10134 28.0309 6.05832 28.2909 6.00261C28.3769 5.98815 28.4207 5.96834 28.4183 5.945C28.4158 5.92166 28.3672 5.89554 28.2769 5.86901C28.1866 5.84249 28.0574 5.81641 27.9013 5.79316C27.7451 5.76992 27.5669 5.75025 27.383 5.73595C26.8195 5.69542 26.2599 5.66914 25.7363 5.65864C24.8343 5.63932 23.9708 5.62718 23.1458 5.62223C22.2334 5.61477 21.2183 5.56876 20.2037 5.48887C19.2953 5.41327 18.4809 5.3455 18.0367 5.20104C17.5925 5.05658 16.8823 5.06119 16.3363 4.95602C16.643 4.86123 17.1882 4.79536 17.9169 4.76507C18.3937 4.75426 18.7918 4.72589 19.0855 4.68177C19.3791 4.63764 19.562 4.57875 19.6223 4.50887L17.9644 4.21563C16.6404 4.07758 15.9078 4.18383 14.4772 4.12848L15.9513 4.02023C15.9809 4.00953 15.992 3.99697 15.984 3.98314C15.8409 3.76421 15.6132 3.71739 14.1063 3.59598L13.2606 3.5256L11.9221 3.44208C11.7077 3.39721 11.5594 3.35042 11.4921 3.30638C11.4247 3.26235 11.4406 3.22262 11.5382 3.19116C11.7343 3.13826 11.7939 3.07066 11.7116 2.99458C11.5818 2.94418 11.5711 2.89773 11.6813 2.86327C11.7915 2.82881 12.0158 2.80852 12.3151 2.80593C12.554 2.80192 12.5718 2.74368 12.7017 2.7107C12.8308 2.66524 13.0519 2.63036 13.3497 2.60843C13.6475 2.5865 14.0152 2.57803 14.4277 2.5836C15.6439 2.58815 16.7864 2.57109 17.8349 2.53271L17.647 2.51707C18.7398 2.55076 19.7616 2.55485 20.6624 2.52913C21.5652 2.49676 22.7237 2.51753 23.6826 2.49779C24.4632 2.50232 25.0575 2.45752 25.3394 2.3729C25.6124 2.2921 26.6045 2.31096 27.3642 2.32641C27.8142 2.33639 28.2492 2.34063 28.6644 2.33905C29.2217 2.32077 29.9186 2.33801 30.6387 2.3879C30.8548 2.40323 31.0677 2.41134 31.2568 2.41146C33.0876 2.43243 34.915 2.45711 36.7211 2.46805C37.1379 2.46175 37.6267 2.47618 38.1301 2.50966C38.3417 2.5242 38.5476 2.53022 38.7202 2.52692C41.5739 2.49367 44.7941 2.5785 47.5917 2.53262C47.9308 2.52179 48.3062 2.51953 48.7072 2.52592C49.6085 2.55288 50.3911 2.53553 50.9363 2.47652C51.2305 2.44513 51.6076 2.42784 52.0436 2.42574C52.4797 2.42364 52.9651 2.43678 53.4688 2.46432C54.3072 2.50078 55.082 2.50474 55.7114 2.47576C56.9388 2.44899 58.2296 2.43799 59.5736 2.44283C59.9854 2.44751 60.3474 2.43711 60.6316 2.41243C60.9157 2.38774 61.1144 2.34944 61.2121 2.30049C60.8821 2.21728 60.5212 2.20716 60.1785 2.21447C58.8503 2.19551 57.5253 2.17284 56.2219 2.16391C55.0552 2.13839 53.9358 2.13058 52.8801 2.14062C52.3559 2.15194 51.7018 2.12613 51.0605 2.06882C50.2746 1.99625 49.4651 1.96019 48.7958 1.96795C48.2996 1.96988 47.7758 1.96362 47.232 1.94929C46.884 1.932 46.5272 1.90231 46.1983 1.86327C46.0678 1.84631 45.9258 1.83206 45.7813 1.82141C45.6368 1.81077 45.4932 1.80397 45.3593 1.80145C45.2255 1.79893 45.1044 1.80074 45.004 1.80677C44.9036 1.81281 44.826 1.82293 44.7762 1.83649C44.2727 1.94986 43.1469 1.89201 42.1829 1.87947C40.7382 1.68758 39.663 1.80116 38.3128 1.69278C38.206 1.68559 38.1008 1.68124 38.0036 1.68C37.9064 1.67875 37.8193 1.68065 37.7475 1.68555C35.1346 1.75078 32.0892 1.69642 29.3459 1.71894C29.0433 1.72224 28.6921 1.71095 28.3323 1.68636C25.9805 1.52359 23.7193 1.47739 21.9909 1.55677C21.7806 1.56392 21.5413 1.56422 21.284 1.55767C20.1023 1.49298 18.9721 1.46719 17.988 1.48245C16.4457 1.47752 14.9628 1.48152 13.3956 1.46656C12.3154 1.44529 11.3677 1.46802 10.6476 1.53249C10.6247 1.55846 10.145 1.53048 9.77748 1.52777C9.56615 1.46241 9.38293 1.40337 9.16505 1.34542C8.97028 1.27374 8.67852 1.20119 8.30963 1.13272C7.94075 1.06424 7.5034 1.00143 7.02703 0.948531C6.2126 0.880757 6.13115 0.782408 6.70104 0.746227C8.16993 0.626517 10.017 0.577521 12.1064 0.602835C13.8531 0.604857 15.6311 0.609493 17.4025 0.62154C18.4357 0.631875 19.5249 0.654834 20.5301 0.658855C20.8692 0.667687 21.2177 0.680704 21.5717 0.697764C22.0061 0.7225 22.4279 0.735977 22.8144 0.737475C24.0553 0.716642 25.4401 0.734791 26.9029 0.791049C27.4386 0.803319 27.9531 0.807452 28.4386 0.803394C29.5872 0.788121 30.8324 0.799359 32.1413 0.836811C32.9548 0.857929 33.7436 0.868974 34.4995 0.869821C34.7664 0.87213 34.9838 0.854389 35.241 0.867824C37.5043 1.00839 39.1069 0.90686 41.1438 0.960913C42.1338 0.975985 43.0797 0.976027 43.9681 0.961042C45.7018 0.961766 47.4838 0.977178 49.3071 1.00721C51.7181 1.05656 53.9523 1.03943 56.2543 1.05981C56.7088 1.06409 57.1476 1.06336 57.5676 1.05762C59.6106 1.0197 61.8295 1.02774 64.1703 1.08155C64.7019 1.08932 65.1792 1.07982 65.5726 1.05364C65.966 1.02745 66.2669 0.98516 66.4564 0.929397C66.5366 0.891125 66.4846 0.841415 66.3105 0.789856C66.0216 0.724012 65.6953 0.659498 65.3371 0.597378L52.3069 0.388926C51.7596 0.378042 51.226 0.372182 50.7085 0.371371C49.1867 0.369559 47.6181 0.353342 46.0105 0.322803C44.4218 0.294116 42.9043 0.29921 41.3652 0.290572C40.9119 0.287679 40.4465 0.280852 39.9711 0.270112C36.7576 0.18511 33.6241 0.133192 30.5927 0.11473C29.3173 0.112111 27.9395 0.0730998 26.6394 0.060456C25.3392 0.0478109 23.5612 0.0431821 22.0189 0.0382534L17.2438 0.0390112C16.3046 0.0364944 15.3901 0.0440005 14.4789 0.0478007C13.3731 -0.223374 12.9921 -0.286935 11.5166 -0.40574C11.0118 -0.449565 10.4984 -0.475718 10.0365 -0.481138C8.57174 -0.459699 6.73391 -0.548936 5.34493 -0.537122C4.5068 -0.542949 3.79561 -0.512826 3.28417 -0.449832C2.8402 -0.400393 2.33251 -0.361273 1.76895 -0.333065C0.225151 -0.565048 0.0890977 -0.715716 1.25039 -0.774347C1.56502 -0.787977 1.9984 -0.78376 2.2256 -0.812628C2.35597 -0.830209 2.53406 -0.840264 2.74568 -0.842003C2.95731 -0.84374 3.19661 -0.837116 3.44483 -0.822643C4.22822 -0.784681 4.96248 -0.775752 5.57394 -0.796756C6.1494 -0.824554 6.85477 -0.823445 7.62207 -0.793531C8.18591 -0.74661 8.68149 -0.812863 9.1691 -0.832005C9.65671 -0.851146 10.0569 -0.885532 10.8185 -0.834098C10.9579 -0.823856 11.0964 -0.817708 11.2232 -0.816125C11.35 -0.814543 11.4619 -0.817566 11.5501 -0.824967C12.3681 -0.858091 13.3442 -0.854611 14.3992 -0.814811C16.0172 -0.775644 17.5353 -0.774176 18.9009 -0.810454C19.7183 -0.842198 20.4152 -0.89849 20.9644 -0.977137C21.1141 -1.00344 21.3364 -1.01922 21.61 -1.02295C22.984 -1.00653 24.4758 -0.944776 25.9893 -0.841655C26.5595 -0.800334 27.1289 -0.767651 27.6855 -0.744299C28.8293 -0.692424 29.9356 -0.663355 30.9716 -0.657954C32.4771 -0.657098 34.0445 -0.637139 35.6599 -0.598258C36.6569 -0.57661 37.6175 -0.568619 38.5304 -0.574374C39.4687 -0.577087 40.4706 -0.560572 41.5132 -0.525217C42.5501 -0.496405 43.4639 -0.513006 44.1443 -0.573009C44.3684 -0.605345 44.5489 -0.64374 44.6824 -0.687482C43.1643 -0.829816 41.5941 -0.902154 40.2882 -0.889927C39.7921 -0.899355 39.3803 -0.889836 38.8576 -0.945278L38.8412 -0.926732C38.7372 -0.914699 38.5803 -0.911859 38.4003 -0.918757C38.2204 -0.925654 38.03 -0.941804 37.8655 -0.964131C37.9277 -1.0346 37.9866 -1.10137 38.0291 -1.14958C39.0241 -1.14108 39.9903 -1.14176 40.9226 -1.15165C41.7085 -1.16588 42.7753 -1.04127 43.4556 -1.08818C44.7824 -1.02952 45.6272 -1.11051 46.817 -1.08714C48.0068 -1.06377 49.3173 -0.986564 50.5071 -0.963195C51.5454 -0.95037 52.5535 -0.947583 53.5258 -0.954845C53.8615 -0.965039 54.2484 -0.962648 54.6628 -0.947818C55.2455 -0.919915 55.7874 -0.915239 56.2264 -0.934329C56.6655 -0.953419 56.9839 -0.995506 57.1453 -1.05576C56.9933 -1.1122 56.7886 -1.18497 56.5525 -1.26036C56.9868 -1.3223 57.6465 -1.34839 58.4337 -1.33473L59.5459 -1.33772C59.8407 -1.33608 60.066 -1.35283 60.1752 -1.38449C60.2845 -1.41615 60.2695 -1.46031 60.1331 -1.50783C58.0241 -1.74703 57.9464 -1.7734 56.3985 -1.61954L54.3433 -1.69104L54.3779 -1.69214ZM82.1765 -1.03504L82.0199 -1.04807L82.1765 -1.03504ZM338.298 24.4152L338.262 24.456L338.301 24.4114L338.646 24.4401L338.668 24.4142L338.298 24.4152ZM288.27 6.5325C287.783 6.48799 287.292 6.44707 286.798 6.40999C286.669 6.40423 286.548 6.40293 286.445 6.4062C286.343 6.40946 286.262 6.41718 286.21 6.42872C286.171 6.47323 286.446 6.50411 286.697 6.52496C287.013 6.55303 287.335 6.57087 287.632 6.57663C287.928 6.5824 288.187 6.57589 288.383 6.55777L288.666 6.54152L288.27 6.5325ZM37.4203 17.3804C37.741 17.3879 38.0451 17.3891 38.325 17.384C39.5672 17.3481 40.7565 17.2958 42.03 17.2624C43.6368 17.1777 45.4832 17.1432 47.4999 17.1602C48.2877 17.1685 48.9534 17.141 49.4191 17.081C49.6978 17.0488 50.0576 17.03 50.4765 17.0257L55.808 16.9279C56.1376 16.9076 56.4225 16.8792 56.6561 16.8432C56.1862 16.8041 55.873 16.7781 55.685 16.7624C55.2951 16.758 54.9599 16.7699 54.7131 16.797C54.448 16.8428 53.9999 16.861 53.4578 16.8478C52.9105 16.8369 52.3768 16.831 51.8594 16.8302C50.8823 16.8325 49.8986 16.8422 48.9182 16.8482C48.5368 16.9758 47.411 16.9179 46.4469 16.9054L45.7022 16.9111C43.2678 16.9772 40.9424 17.0681 38.7372 17.1835C38.3111 17.203 37.9439 17.2341 37.6471 17.2759C37.5352 17.3085 37.4994 17.3491 37.5424 17.3946L37.3858 17.3815L37.4203 17.3804ZM146.13 29.5722C146.721 29.5809 147.336 29.5987 147.966 29.6254C148.452 29.6527 148.926 29.6693 149.369 29.6745C151.852 29.703 154.439 29.7691 157.096 29.8716C157.444 29.8871 157.778 29.8948 158.085 29.8942L160.26 29.8681C160.946 29.8535 160.959 29.8387 160.46 29.6419C160.046 29.6037 159.627 29.5689 159.207 29.5376C158.956 29.5168 158.549 29.4829 158.454 29.5148C157.873 29.6018 156.813 29.5454 155.921 29.527C153.34 29.4794 150.679 29.4092 148.073 29.3517C147.523 29.3376 146.989 29.3305 146.478 29.3304C146.161 29.3274 145.872 29.333 145.623 29.3468C145.55 29.3482 145.489 29.3524 145.444 29.3589C145.399 29.3654 145.371 29.3743 145.362 29.3848C145.353 29.3953 145.362 29.4073 145.391 29.4199C145.419 29.4326 145.464 29.4456 145.525 29.4581C145.738 29.5019 145.985 29.5439 146.256 29.5826L146.13 29.5722ZM165.035 1.01102L167.578 0.987687C167.883 0.985184 168.141 0.958923 168.467 0.970155C170.208 1.00575 171.82 0.995834 173.234 0.940834C173.716 0.918389 174.279 0.9139 174.893 0.927617C176.774 0.968261 178.548 0.969934 180.168 0.932585C181.215 0.925089 182.194 0.899915 183.092 0.857433C183.161 0.847572 183.204 0.834185 183.219 0.818183C183.233 0.802181 183.217 0.78394 183.174 0.764707C183.163 0.752557 183.132 0.739486 183.084 0.726395C183.036 0.713306 182.971 0.700504 182.895 0.68888C182.819 0.677254 182.733 0.667082 182.643 0.659058C182.553 0.651034 182.461 0.645344 182.374 0.642395C181.24 0.584893 180.163 0.564861 179.231 0.583925C178.368 0.606734 177.438 0.613407 176.457 0.603843C175.517 0.601326 174.88 0.675702 173.72 0.61895C173.229 0.600263 172.796 0.606415 172.494 0.636378C171.886 0.686039 171.038 0.688802 170.1 0.644173C169.539 0.621586 169.002 0.611899 168.511 0.615483C167.32 0.631811 166.182 0.664479 165.078 0.696045C164.73 0.703346 164.357 0.704354 163.966 0.699045L158.439 0.637235C157.11 0.618275 155.786 0.595605 154.482 0.58667C153.416 0.567269 152.424 0.573345 151.541 0.604685C150.599 0.637625 149.573 0.650999 148.48 0.644551C146.783 0.662579 145.095 0.669473 143.248 0.667049C142.07 0.668539 140.864 0.663719 139.633 0.648869C139.01 0.629759 138.482 0.645323 138.149 0.692564C137.946 0.731456 137.47 0.699771 137.074 0.690746C134.965 0.603749 132.986 0.583136 131.277 0.63034C131.059 0.638032 130.819 0.640817 130.564 0.638646C128.917 0.637026 127.212 0.626482 125.632 0.626365C125.216 0.630033 124.824 0.640097 124.462 0.656429C124.501 0.683074 124.611 0.711955 124.771 0.737079C124.93 0.762204 125.126 0.781646 125.318 0.79137C126.813 0.865812 128.256 0.905136 129.587 0.907695C131.802 0.898212 134.122 0.919533 136.524 0.971427C138.388 1.02375 140.087 1.01273 141.495 0.939201C142.596 0.884336 144.028 0.904979 145.546 0.997585C146.195 1.04181 146.825 1.0595 147.35 1.04822C147.856 1.03343 148.435 1.03702 149.056 1.05877C150.364 1.10013 151.622 1.11932 152.805 1.11595C153.961 1.10073 155.04 1.05913 156.228 1.04652C157.416 1.0339 159.226 1.04113 160.69 1.01969C162.155 0.998253 163.603 0.995365 165.035 1.01102ZM59.6904 -1.15848C59.8246 -1.0438 60.2997 -0.972415 60.8107 -0.941834C62.5724 -0.80605 64.3142 -0.748268 65.7434 -0.778188C66.5155 -0.819921 67.5447 -0.803857 68.6289 -0.73315C69.8914 -0.659649 71.0713 -0.647459 71.9609 -0.69873C72.1788 -0.707689 72.3457 -0.726628 72.4466 -0.753859C72.4663 -0.776114 72.5022 -0.816911 72.5088 -0.824329C72.4153 -0.843143 72.3007 -0.860574 72.1738 -0.87528C72.0468 -0.889985 71.911 -0.90157 71.7767 -0.909143L65.9412 -1.04042L64.9242 -1.06931C63.0668 -1.145 61.2969 -1.17515 59.6904 -1.15848ZM71.1689 0.656683C72.0797 0.84395 72.0828 0.840233 72.5494 0.883043C74.8004 1.06086 77.0499 1.15685 79.0302 1.15959C79.4703 1.15904 79.8439 1.14097 80.1191 1.10688C80.2607 1.10226 80.3509 1.08758 80.3699 1.06604C80.3889 1.0445 80.3352 1.01785 80.2205 0.991895L79.4963 0.859966C78.181 0.802851 76.8847 0.757468 75.615 0.724093C74.1367 0.68468 72.8266 0.683159 71.2941 0.667104L71.1689 0.656683ZM146.021 28.7429C146.87 29.0007 146.873 28.997 148.294 29.0634C149.284 29.1106 150.244 29.1382 151.147 29.1456C152.249 29.1537 153.38 29.1682 154.479 29.18C154.747 29.1882 154.975 29.1814 155.117 29.1609C155.259 29.1403 155.307 29.1076 155.249 29.0689C155.105 29.027 154.879 28.9864 154.609 28.9538C154.339 28.9212 154.039 28.8984 153.76 28.8893L153.16 28.8832C152.432 28.8703 151.675 28.8512 150.972 28.8483C150.515 28.859 149.986 28.8508 149.426 28.8242C148.867 28.7976 148.291 28.7535 147.745 28.6952L146.021 28.7429ZM75.7005 -0.821486C75.9271 -0.776851 76.1834 -0.734101 76.4626 -0.694373C77.5434 -0.584258 78.6874 -0.521717 79.6702 -0.519011C80.1349 -0.512189 80.5599 -0.536544 81.033 -0.501153C81.8816 -0.45386 82.704 -0.428668 83.4558 -0.42694C83.4558 -0.42694 83.6666 -0.437267 83.7358 -0.439472L83.8797 -0.602669C83.5238 -0.640476 83.1527 -0.671361 82.7834 -0.693905C81.544 -0.737325 80.3261 -0.767008 79.1115 -0.800403C77.8969 -0.833796 77.4733 -0.849136 76.679 -0.86348C76.3247 -0.855595 75.997 -0.841529 75.7005 -0.821486ZM48.861 19.4672L50.4829 19.8012C51.0078 19.8302 51.4981 19.8355 51.8793 19.8162C52.2605 19.7969 52.5116 19.754 52.5946 19.6942C52.7281 19.6663 52.7415 19.6248 52.6319 19.5786C52.5222 19.5323 52.298 19.4849 52.0064 19.4462C51.7257 19.4004 51.4053 19.3593 51.0649 19.3255C50.7246 19.2917 50.3716 19.2659 50.0279 19.2497L48.861 19.4672ZM62.3651 17.804C61.3043 17.7474 60.2897 17.7242 59.3987 17.7363C58.8374 17.7695 58.0769 17.7589 57.273 17.7067C55.8111 17.6028 54.4018 17.574 53.3426 17.6265C53.3426 17.6265 53.3033 17.671 53.1237 17.6839C52.9442 17.6969 53.6562 17.7282 53.8129 17.7413C54.9616 17.7732 56.1168 17.7976 57.1154 17.8091C57.7354 17.8086 58.3912 17.8191 59.0715 17.8405C60.0075 17.8734 60.8952 17.8841 61.6999 17.8721C61.6999 17.8721 62.0112 17.8622 62.3618 17.8077L62.3651 17.804ZM175.656 0.405848C175.15 0.342939 174.6 0.29181 174.049 0.256301C173.498 0.220791 172.96 0.201824 172.475 0.200813C172.103 0.197531 171.803 0.21414 171.62 0.248015C171.438 0.281892 171.385 0.331101 171.469 0.38786C171.845 0.419141 172.346 0.460847 172.628 0.484308C173.605 0.482011 174.439 0.451847 175.656 0.405848ZM270.505 5.7071C270.099 5.65645 269.651 5.61773 269.213 5.59536C268.775 5.57299 268.364 5.56786 268.028 5.58057C267.855 5.58608 267.972 5.64362 267.943 5.677C267.924 5.68457 267.924 5.69398 267.944 5.70425C267.963 5.71453 268.002 5.72528 268.055 5.73539C268.108 5.74549 268.173 5.75458 268.245 5.7617C268.316 5.76882 268.391 5.7737 268.461 5.77584C268.902 5.79766 269.318 5.80415 269.673 5.79475C270.027 5.78534 270.309 5.76033 270.492 5.72193L270.505 5.7071ZM276.861 6.43103C276.798 6.40115 276.664 6.37 276.484 6.3433C276.303 6.3166 276.089 6.29614 275.879 6.28567C275.509 6.28426 275.172 6.29255 274.882 6.31021C274.568 6.32384 274.794 6.41036 275.22 6.46169C275.4 6.4823 275.592 6.49837 275.782 6.50863C275.971 6.51889 276.153 6.52306 276.311 6.5208C276.47 6.51854 276.602 6.50992 276.696 6.49563C276.79 6.48133 276.844 6.46175 276.854 6.43845L276.861 6.43103ZM92.1982 -0.503641C91.2501 -0.610413 90.5203 -0.583552 89.7176 -0.626465C88.9149 -0.669378 88.7171 -0.673893 88.8246 -0.605224C88.9322 -0.536555 89.4824 -0.550481 89.827 -0.521808C90.2926 -0.48376 90.7609 -0.461912 91.1797 -0.458704C91.5984 -0.455495 91.9511 -0.471054 92.1982 -0.503641ZM289.772 17.5622C289.269 17.5382 288.778 17.5213 288.303 17.5117C288.241 17.5216 288.202 17.5346 288.188 17.5499C288.175 17.5651 288.187 17.5824 288.225 17.6007C288.225 17.6007 288.546 17.6553 288.734 17.6709C289.427 17.7246 289.461 17.6478 289.772 17.5622ZM360.752 27.51C361.092 27.582 361.25 27.631 361.522 27.6656C361.647 27.6776 361.777 27.6864 361.9 27.6912C362.024 27.696 362.139 27.6967 362.238 27.6933C362.357 27.6725 362.385 27.6408 362.316 27.6043C362.316 27.6043 361.97 27.5396 361.838 27.5366C361.462 27.5214 361.097 27.5124 360.752 27.51ZM76.0595 -1.1141C75.339 -1.17405 74.6499 -1.23141 74.1511 -1.16144C75.2951 -1.08614 75.2951 -1.08614 76.0595 -1.1141ZM87.7283 -0.429707C87.0009 -0.557928 86.574 -0.569564 86.2248 -0.554831C86.1505 -0.551121 86.1014 -0.542849 86.0848 -0.531275C86.0683 -0.519701 86.0851 -0.505451 86.1329 -0.490681C86.1806 -0.475909 86.2567 -0.461423 86.3495 -0.449411C86.4423 -0.437399 86.5469 -0.428515 86.6474 -0.424105C87.0268 -0.420414 87.3886 -0.422288 87.7283 -0.429707ZM125.171 -0.375488C125.187 -0.394033 125.207 -0.416287 125.019 -0.431927C124.969 -0.439866 124.912 -0.446694 124.851 -0.451727C124.791 -0.456761 124.73 -0.459819 124.674 -0.460596C124.674 -0.460596 124.654 -0.438341 124.641 -0.423505L125.171 -0.375488ZM151.171 30.4137L150.753 30.4306L150.941 30.4463L151.437 30.4557L151.171 30.4137ZM298.5 6.14165C298.344 6.12862 298.187 6.11558 298.164 6.14154C298.131 6.14557 298.111 6.15137 298.104 6.15847C298.098 6.16556 298.106 6.17375 298.128 6.18234C298.128 6.18234 298.347 6.20059 298.441 6.20841L298.5 6.14165ZM274.108 6.3493C274.005 6.34781 273.912 6.34955 273.835 6.35442L273.815 6.37667L274.128 6.40274L274.108 6.3493ZM61.5378 11.6518C61.4168 11.6382 61.2886 11.6276 61.162 11.6205L61.0053 11.6075C61.0053 11.6075 61.1736 11.6453 61.2675 11.6532C61.3615 11.661 61.4373 11.6514 61.5378 11.6518Z" fill="#FAA017"/>
</svg>
