<svg width="385" height="12" viewBox="0 0 385 12" fill="none" xmlns="http://www.w3.org/2000/svg">
<mask id="mask0" style="mask-type:alpha" maskUnits="userSpaceOnUse" x="-1" y="0" width="386" height="12">
<rect x="-0.000976562" width="385" height="12" fill="#C4C4C4"/>
</mask>
<g mask="url(#mask0)">
<path d="M57.8272 -2.53796L58.7681 -2.69614L56.9371 -2.92292L57.8148 -3.08892C58.695 -3.0874 59.8353 -2.83866 60.4559 -2.97083C60.5317 -3.09879 59.5733 -3.13986 59.3287 -3.24181C59.1123 -3.34631 58.9357 -3.45013 58.801 -3.55202C59.2803 -3.55092 59.8073 -3.52628 60.3506 -3.47953C61.0814 -3.40319 61.7983 -3.36607 62.422 -3.37229C63.6975 -3.35167 64.9297 -3.37224 66.3164 -3.36771L65.8551 -3.67567L67.6422 -3.60362C67.8316 -3.58016 68.0574 -3.61789 68.2435 -3.58887C69.7923 -3.34329 70.4477 -3.47711 71.1912 -3.58807C71.3437 -3.61678 71.5273 -3.63822 71.7373 -3.65182C73.8035 -3.59299 75.6666 -3.24878 77.5273 -3.07207C77.8775 -3.02695 78.2134 -2.96904 78.5112 -2.90243C79.1584 -2.77295 79.8783 -2.66724 80.6051 -2.59497C81.3318 -2.52269 82.0422 -2.48616 82.6713 -2.48871C84.0625 -2.49157 85.6342 -2.40593 87.2344 -2.24008C87.7103 -2.18545 88.1864 -2.14941 88.6325 -2.13426C89.0787 -2.11911 89.485 -2.12517 89.8255 -2.15207L90.9074 -1.97627C91.3763 -2.04761 91.971 -2.08675 92.6552 -2.09131C93.3395 -2.09587 94.0991 -2.06577 94.8879 -2.00283C95.7285 -1.93455 96.5823 -1.88852 97.4545 -1.81634C99.2561 -1.67832 101.009 -1.59392 102.66 -1.56575C105.118 -1.48225 107.52 -1.4177 110 -1.31361C111.551 -1.26336 113.063 -1.23573 114.526 -1.23085C116.278 -1.21119 118.173 -1.11605 120.12 -0.950018C120.028 -0.794239 119.174 -0.840261 118.601 -0.845533C116.753 -0.871425 114.861 -0.938519 112.959 -0.988921C112.102 -1.0086 111.269 -1.01605 110.464 -1.01122C109.119 -1.01768 107.701 -1.05919 106.234 -1.13504C103.917 -1.2185 101.674 -1.25861 99.5278 -1.25498C99.3595 -1.24881 99.2054 -1.23788 99.0679 -1.22236C99.0392 -1.20893 99.0335 -1.19198 99.0514 -1.17315C99.0693 -1.15433 99.1102 -1.13424 99.1701 -1.11484C99.23 -1.09543 99.307 -1.07735 99.3936 -1.06231C99.4803 -1.04728 99.5737 -1.0358 99.665 -1.02897C100.517 -0.9234 101.433 -0.810013 102.237 -0.794063C102.268 -0.792869 102.301 -0.790148 102.334 -0.78609C102.366 -0.782033 102.398 -0.776742 102.426 -0.770603C104.226 -0.54773 105.705 -0.585445 107.107 -0.549184C109.434 -0.451184 111.678 -0.405408 113.803 -0.412547C114.125 -0.412062 114.472 -0.399322 114.832 -0.374789C117.058 -0.275339 119.14 -0.264217 120.98 -0.341923C121.737 -0.361611 122.441 -0.405805 123.254 -0.406544C123.756 -0.409586 124.192 -0.437788 124.537 -0.489463C124.882 -0.541139 125.129 -0.615218 125.263 -0.707246C125.606 -0.658794 125.955 -0.615613 126.304 -0.57822C126.513 -0.556839 126.714 -0.551159 126.865 -0.562348C127.016 -0.573536 127.107 -0.600756 127.12 -0.638501C127.182 -0.744209 126.705 -0.797294 126.292 -0.842561C126.541 -0.865231 126.822 -0.878568 127.128 -0.88225C128.852 -0.906404 130.702 -0.877896 132.636 -0.797352C134.137 -0.700943 135.336 -0.779413 136.916 -0.643457C137.105 -0.619996 137.261 -0.65443 137.436 -0.662698C137.89 -0.706236 138.457 -0.716022 139.086 -0.6912C139.714 -0.666377 140.387 -0.607695 141.045 -0.520245C141.864 -0.759166 143.634 -0.486219 144.941 -0.461688C145.344 -0.340185 144.882 -0.361545 144.862 -0.328164C144.842 -0.294782 144.862 -0.328171 144.704 -0.347722C143.399 -0.175652 141.611 -0.138132 139.591 -0.240435C139.218 -0.240009 138.862 -0.232171 138.527 -0.216993C138.02 -0.19551 137.448 -0.197655 136.836 -0.223334C136.168 -0.242193 135.554 -0.233236 135.025 -0.196896C134.72 -0.197488 134.462 -0.179283 134.275 -0.143957C134.089 -0.108631 133.979 -0.0573284 133.956 0.00518023C134.16 0.0533705 134.385 0.0974645 134.624 0.135713C135.872 0.28673 137.116 0.34924 138.112 0.310944C139.846 0.244959 141.909 0.309349 143.752 0.286823C144.998 0.277698 146.324 0.303691 147.705 0.36432C147.705 0.36432 147.669 0.425519 147.665 0.431082C147.829 0.45758 148 0.478839 148.17 0.493644C148.17 0.493644 148.17 0.493645 148.187 0.465827C148.111 0.439112 148.009 0.413982 147.891 0.393344L147.481 0.342512C147.759 0.329283 148.02 0.289898 148.311 0.313962C148.923 0.358668 149.509 0.377542 150.032 0.369462C150.555 0.361381 151.005 0.326508 151.355 0.266939C151.975 0.19059 152.745 0.155872 153.618 0.165022C154.286 0.156686 154.93 0.138772 155.547 0.111367C155.547 0.111367 155.587 0.0446111 155.879 0.00912881C155.602 -0.0346331 155.314 -0.0703692 155.027 -0.0964382C153.777 -0.161568 152.525 -0.221133 151.298 -0.26566C150.845 -0.270471 150.42 -0.26301 150.031 -0.243424C148.951 -0.220505 147.737 -0.253035 146.461 -0.339115C146.461 -0.339115 146.209 -0.370393 146.082 -0.386033C146.441 -0.532787 147.675 -0.385869 148.174 -0.485254C148.478 -0.483446 149.013 -0.470948 148.995 -0.497113C148.953 -0.532026 148.948 -0.564463 148.98 -0.592091C149.012 -0.61972 149.081 -0.641861 149.18 -0.656921C149.28 -0.671984 149.408 -0.679596 149.556 -0.67921C149.705 -0.678822 149.869 -0.670442 150.037 -0.654682C151.442 -0.569418 152.766 -0.545706 153.927 -0.585001C154.367 -0.584244 154.86 -0.558972 155.297 -0.55265C155.564 -0.545034 155.808 -0.549269 156.016 -0.565121C157.071 -0.681863 158.491 -0.690389 160.063 -0.589418C160.822 -0.553115 161.532 -0.548262 162.155 -0.575103C162.599 -0.579906 162.787 -0.496907 163.103 -0.457806L164.443 -0.375382L162.721 -0.272102C163.089 -0.0354174 163.382 0.0426247 163.983 0.0573704C164.86 0.0796373 165.715 0.0896969 166.541 0.087487C167.152 0.0855414 167.657 0.034571 168.484 0.125104C168.63 0.139871 168.771 0.144649 168.883 0.138642C169.852 0.0582657 171.018 0.0398196 172.303 0.0845627C172.969 -0.0659458 174.102 0.0803877 175.15 0.198292C175.489 0.0849194 174.876 0.0328776 174.51 -0.0362977C175.387 -0.0292163 176.27 -0.0332602 177.176 -0.0167062C177.448 -0.0227315 177.759 -0.0124229 178.085 0.0134106C178.41 0.0392431 178.742 0.0798925 179.053 0.132182C179.204 0.165969 179.387 0.191396 179.563 0.203188C179.739 0.214977 179.895 0.212227 179.998 0.195506C180.468 0.146192 181.22 0.191613 181.608 0.108313C181.746 0.0891562 181.944 0.0864818 182.165 0.100759C182.386 0.115034 182.617 0.145336 182.816 0.186233C182.598 0.198993 182.404 0.219086 182.239 0.24607C181.644 0.333725 181.863 0.480188 182.617 0.693119C183.777 0.681409 184.961 0.684733 186.035 0.644603C186.634 0.608579 187.368 0.61984 188.154 0.677125C188.94 0.734407 189.747 0.835442 190.485 0.968864C190.752 1.02017 191.057 1.0557 191.338 1.06841C191.619 1.08112 191.857 1.07007 192.003 1.03745C192.095 0.999727 192.123 0.951984 192.086 0.898361L191.328 0.804525C191.328 0.804525 191.358 0.754453 191.365 0.743326L192.454 0.734912C193.03 0.73462 193.631 0.74937 194.176 0.745168C194.976 0.717224 195.89 0.732799 196.86 0.790928C197.755 0.850535 198.635 0.895589 199.491 0.925695C200.32 0.956682 200.921 0.857894 201.709 0.842118C202.306 0.830226 202.962 0.842935 203.653 0.879746C204.846 0.945035 205.941 0.945157 206.838 0.880098C207.884 1.23062 208.392 1.28761 209.363 1.1929L209.82 1.16584L209.945 1.24102L210.293 1.22449C210.946 1.20976 211.599 1.19504 212.28 1.18979C213.226 1.22232 214.249 1.30984 215.247 1.4438C215.436 1.46726 215.694 1.54697 215.86 1.60937C216.027 1.67178 216.389 1.86004 216.656 1.98259C216.365 2.07206 216.044 2.15761 215.813 2.26046C215.79 2.27803 215.792 2.29898 215.82 2.32163C215.847 2.34428 215.899 2.36799 215.971 2.39087C216.043 2.41374 216.134 2.43513 216.235 2.45333C216.337 2.47153 216.446 2.48602 216.555 2.49565C216.767 2.51639 216.976 2.53021 217.174 2.53656C218.15 2.5475 219.084 2.53937 219.968 2.51224C220.29 2.47398 220.732 2.47034 221.223 2.50192C221.714 2.5335 222.225 2.59848 222.677 2.68655C223.833 2.63368 225.177 2.6493 226.615 2.73233C228.136 2.68183 229.973 2.78396 231.394 2.67331C231.361 2.72895 231.508 2.82473 231.712 2.87992C232.035 2.96375 232.402 3.04144 232.796 3.1097L235.801 3.24297C235.913 3.3115 236.053 3.38087 236.22 3.45018C236.334 3.50493 236.533 3.55851 236.774 3.59955C237.016 3.64059 237.281 3.66588 237.513 3.67005C238.111 3.69035 238.612 3.64495 239.325 3.75713C238.227 3.86318 236.746 3.84909 235.147 3.71738C233.644 3.6172 232.198 3.56714 230.863 3.56904C230.423 3.56828 229.843 3.57413 229.706 3.63473C229.401 3.80599 228.604 3.77892 227.674 3.74733C226.943 3.71275 226.276 3.71663 225.726 3.75865C225.177 3.80068 224.762 3.87965 224.514 3.98907C224.452 4.09477 224.602 4.185 225.243 4.24651L227.909 4.49316C228.302 4.46145 228.675 4.42391 229.027 4.3807C229.618 4.32331 230.349 4.30756 231.162 4.33467C231.974 4.36178 232.847 4.43102 233.712 4.53701C234.154 4.59175 234.596 4.64649 234.916 4.62048C235.198 4.5906 235.457 4.55483 235.691 4.51343C235.739 4.48568 235.758 4.45374 235.748 4.41885C235.918 4.43507 236.088 4.45617 236.253 4.48141C237.569 4.77585 238.589 4.77075 239.515 4.69438C239.766 4.67168 239.957 4.63559 240.211 4.60733C240.465 4.57906 240.554 4.54238 240.785 4.55305C242.626 4.64962 243.156 4.32709 244.707 4.34004C244.782 4.32744 244.829 4.30861 244.843 4.28527C244.857 4.26194 244.837 4.23486 244.786 4.20652C244.676 4.18093 244.549 4.15893 244.417 4.14253C244.285 4.12613 244.151 4.11587 244.028 4.11268C243.314 4.07129 242.684 4.08398 242.245 4.14858C241.934 4.17498 241.604 4.19602 241.258 4.21157L239.705 3.7445C241.21 3.78732 242.633 3.78704 243.942 3.74367C244.227 3.71931 244.711 3.76127 245.113 3.76925L248.069 3.8129C248.677 3.81652 249.195 3.7433 250.042 3.91398C250.042 3.91398 250.602 3.94151 250.751 3.9182C250.901 3.8949 251.563 3.74995 251.958 3.65553C252.416 3.68245 253.051 3.75509 253.336 3.73074C253.835 3.67092 254.267 3.59423 254.624 3.50205L256.41 3.63364C256.408 3.75054 256.343 3.86051 256.215 3.96189C256.076 4.05966 256.081 4.17702 256.229 4.30437C256.377 4.43173 256.665 4.56546 257.069 4.69465L258.832 5.37885C259.12 5.42467 259.426 5.45551 259.711 5.46719C259.995 5.47887 260.242 5.47082 260.42 5.44413C261.178 5.3649 262.029 5.30296 262.787 5.22373C263.766 5.34494 263.514 5.54072 264.226 5.71245L266.53 5.99788C266.882 6.26238 267.24 6.51575 266.171 6.6043C265.958 6.61979 266.102 6.72114 265.908 6.76279C266.739 6.96129 267.652 7.02071 268.495 7.14297C268.827 7.23089 269.105 7.32397 269.315 7.41769C269.545 7.55882 270.013 7.70297 270.616 7.81904C271.219 7.9351 271.91 8.01375 272.539 8.03801C273.595 8.11232 274.675 8.22392 275.733 8.36782C276.094 8.41785 276.465 8.45432 276.821 8.47473C277.177 8.49515 277.51 8.49906 277.797 8.48619C278.82 8.46353 279.686 8.38562 280.339 8.25752C280.984 8.14881 281.854 8.09641 282.869 8.10508C284.605 8.32013 284.956 8.64418 286.006 8.9296L284.191 8.9616C284.125 9.07287 284.246 9.21317 283.502 9.2106C282.758 9.20803 283.135 9.3145 283.376 9.42201C283.461 9.4761 283.627 9.53173 283.846 9.5795C284.065 9.62726 284.323 9.66422 284.576 9.68412L286.122 9.82173C286.669 9.87411 287.2 9.89647 287.654 9.88637C288.108 9.87627 288.469 9.8341 288.697 9.76449C288.959 9.69838 289.32 9.65367 289.758 9.63308C290.316 9.57916 290.775 9.49896 291.118 9.39552L293.3 9.54623C293.392 9.44228 293.692 9.36939 294.148 9.3399C294.604 9.31039 295.188 9.32608 295.801 9.38432L297.272 9.47682C298.906 9.57774 299.265 9.54452 299.743 9.25145L297.783 8.72799C298.068 8.59011 298.343 8.46892 298.618 8.34772C298.13 8.17526 297.479 8.01215 296.73 7.87494C296.031 7.72751 295.313 7.58472 294.578 7.44712C293.78 7.30651 292.937 7.18425 291.947 7.02574C291.774 6.97447 291.523 6.88363 291.202 6.79612C290.881 6.71107 290.545 6.6277 290.198 6.54634C290.264 6.43507 290.323 6.33493 290.196 6.20576C290.806 6.24697 291.436 6.31906 292.03 6.41551C292.624 6.51197 293.162 6.62976 293.596 6.75827C293.669 6.78105 293.759 6.80246 293.859 6.82104C293.959 6.83961 294.067 6.85493 294.176 6.86594C295.248 6.9449 295.76 7.10985 296.284 7.3121C296.637 7.41549 297.092 7.50731 297.585 7.57481C298.533 7.69212 299.46 7.8428 300.366 7.97289C300.643 8.01623 300.931 8.05191 301.218 8.07845C302.165 8.16284 303.117 8.28084 304.028 8.42645C304.325 8.46346 304.61 8.51243 304.859 8.56928C305.109 8.62613 305.315 8.68919 305.461 8.75322C305.235 8.82336 305.114 8.9119 305.103 9.0135C305.063 9.08026 305.728 9.21636 306.043 9.31501C306.357 9.41365 305.741 9.36717 305.531 9.3771C304.673 9.39618 304.514 9.43617 305.028 9.65512C305.2 9.72396 305.314 9.79285 305.363 9.85749C305.412 9.92213 305.395 9.98116 305.313 10.0309C305.191 10.2367 304.82 10.4058 304.565 10.6071C304.961 10.7397 305.623 10.8814 305.695 11.0456C305.729 11.082 305.803 11.1206 305.909 11.1586C306.016 11.1965 306.152 11.2329 306.31 11.2651C306.726 11.3346 307.104 11.4177 307.414 11.508C307.725 11.5983 307.961 11.6933 308.103 11.7857C308.149 11.824 308.261 11.8645 308.417 11.8993C308.572 11.934 308.759 11.9604 308.941 11.9731C309.157 11.9887 309.351 11.9867 309.483 11.9674C309.614 11.948 309.672 11.913 309.646 11.8694C309.651 11.7874 309.623 11.702 309.56 11.6139C309.596 11.5527 309.633 11.4915 309.489 11.3901C310.136 11.4271 310.816 11.5012 311.454 11.6045C312.091 11.7077 312.663 11.836 313.107 11.9756C313.598 12.1199 314.05 12.2715 314.594 12.4404C314.482 12.6295 314.482 12.6295 315.639 12.964L321.778 13.1271L323.036 13.3486C324.209 13.5417 324.488 13.5284 325.225 13.4286L325.721 13.3348C326.763 13.4638 327.963 13.6124 328.614 13.3706C328.826 13.5282 328.964 13.5811 328.916 13.6051C328.605 13.8376 328.064 14.0349 327.316 14.1892C327.125 14.2253 326.991 14.2803 326.768 14.3125C326.051 14.4941 325.885 14.7747 326.303 15.097C326.511 15.2396 326.813 15.3856 327.199 15.5303C326.634 15.7312 325.885 15.8976 324.974 16.0252C324.2 16.1238 323.563 16.2559 323.081 16.4177C322.648 16.5809 321.999 16.7035 321.172 16.7786C320.753 16.8105 320.447 16.8735 320.285 16.9613C320.237 17.1989 320.347 17.4533 320.615 17.7188C320.666 17.7996 320.809 17.8869 321.034 17.9738C321.258 18.0607 321.559 18.1449 321.911 18.2197C321.911 18.2197 322.081 18.2766 322.162 18.3106C322.23 18.5983 321.976 18.8519 321.416 19.0543C321.325 19.1117 321.137 19.1532 320.874 19.1742C320.611 19.1953 320.282 19.1951 319.922 19.1738C319.163 19.1395 318.454 19.1353 317.72 19.116C316.929 19.0888 316.232 19.1102 315.703 19.1782C315.174 19.2461 314.831 19.3579 314.712 19.502C314.705 19.5427 314.682 19.5818 314.643 19.6188C314.621 19.6379 314.609 19.6584 314.607 19.68L316.293 20.1516L314.386 20.3393C314.274 20.5285 315.189 20.6419 315.648 20.7823L315.364 20.8607C314.999 20.905 314.507 20.8202 314.062 20.771L313.62 20.7163L313.567 20.8053C313.292 20.9265 312.288 20.7903 311.897 20.8791C311.505 20.968 311.785 21.0683 312.372 21.1648C312.779 21.2366 313.217 21.2938 313.652 21.3322C314.087 21.3706 314.508 21.3891 314.883 21.3864C315.107 21.3769 315.293 21.3552 315.43 21.3226C316.221 21.184 317.096 21.0648 318.047 20.966C318.776 20.8772 319.689 20.8395 320.722 20.8554C321.025 20.8487 321.39 20.8697 321.754 20.9147C322.118 20.9598 322.456 21.026 322.711 21.1017L323.245 21.1142C323.245 21.1142 323.538 21.1922 323.497 21.205C323.293 21.4362 323.53 21.7189 324.171 22.0111L323.613 22.0376C322.816 22.0105 323.322 22.1866 323.202 22.2734C322.636 22.257 321.9 22.1837 321.631 22.2938L321.23 22.2858L321.387 22.3054L321.578 22.2693L322.328 22.4338C321.973 22.4615 321.715 22.4953 321.402 22.5102C321.228 22.5231 321.09 22.546 320.996 22.5774C320.902 22.6088 320.853 22.6481 320.853 22.693C320.853 22.762 320.76 22.8201 320.581 22.8617C320.402 22.9033 320.144 22.9271 319.831 22.9307C319.457 22.9322 319.243 23.0072 319.024 23.0339L319.976 23.4862C319.976 23.4862 319.502 23.4275 319.76 23.5072L319.793 23.4516L320.37 23.5648C320.785 23.6641 321.076 23.6881 321.322 23.617C321.567 23.5459 321.511 23.6405 321.629 23.6133C321.586 23.6856 321.319 23.7361 321.09 23.7794C320.825 23.8134 320.526 23.8385 320.198 23.8541C320.789 24.1722 320.818 24.1816 319.954 24.2658C319.091 24.35 319.389 24.4765 318.667 24.4945C317.944 24.5126 318.766 24.7278 319.249 24.7697C319.608 24.7973 319.973 24.8403 320.32 24.8957C320.668 24.9511 320.989 25.0176 321.262 25.0906L321.117 25.3354C320.904 25.3152 320.691 25.2888 320.485 25.2572C319.785 25.1228 319.149 24.9962 318.526 25.0743L318.823 25.2604L316.65 25.1525C316.706 25.2919 317.038 25.4507 317.574 25.5953C317.493 25.6748 317.443 25.7585 317.425 25.8457C317.389 25.9069 317.175 25.8684 317.035 25.875C316.538 25.8853 316.129 25.9267 315.846 25.9958C315.563 26.0648 315.413 26.1594 315.411 26.2711C315.355 26.3656 316.12 26.5619 316.598 26.5554C317.792 26.5743 319.083 26.6471 320.402 26.7698C321.206 26.7857 321.319 26.537 322.642 26.7068C322.668 26.8216 322.499 26.9146 322.159 26.9717C321.82 27.0288 321.329 27.0468 320.76 27.0231C321.083 27.2782 322.874 27.3447 322.953 27.6113C322.507 27.5924 322.031 27.5481 321.57 27.4827C321.11 27.4173 320.681 27.3331 320.328 27.2383C320.251 27.215 320.155 27.1934 320.049 27.1757C319.943 27.158 319.829 27.1447 319.719 27.137C319.608 27.1293 319.505 27.1274 319.418 27.1316C319.331 27.1358 319.263 27.1459 319.221 27.161C319.469 27.2574 319.742 27.3688 320.053 27.473C320.364 27.5772 320.439 27.6223 320.663 27.6442C322.336 27.8514 323.132 28.2246 324.579 28.4696C324.958 28.5165 325.005 28.6657 324.676 28.6488C324.364 28.632 324.08 28.6342 323.858 28.6552C323.637 28.6762 323.485 28.7152 323.42 28.7679C323.177 28.8293 322.875 28.8782 322.52 28.9133C324.005 29.2963 325.775 29.6347 327.664 29.8968C328.022 29.9486 328.396 29.9801 328.729 29.9869C329.784 29.9872 330.903 30.0176 332.064 30.0774C332.476 30.0937 332.857 30.0922 333.185 30.0729C334.263 30.0272 335.119 30.1273 335.9 30.4092L337.194 30.8561C337.152 30.9284 336.934 31.009 336.767 31.1197L337.778 31.3584L345.491 30.8087L347.039 31.3409L349.26 31.3113C349.43 31.3267 349.601 31.3479 349.765 31.3739C350.214 31.531 350.565 31.682 351.052 31.8319C351.539 31.9818 352.41 32 353.017 32.1767C353.623 32.3534 354.231 32.357 354.982 32.462C355.053 32.5988 354.98 32.7219 354.768 32.8236C354.699 32.9405 354.317 33.0127 354.251 33.1239C354.258 33.2364 354.117 33.3319 353.839 33.4017C353.56 33.4715 353.155 33.5135 352.659 33.5239C351.269 33.7633 349.593 33.9338 347.682 34.0302C347.514 34.0372 347.375 34.0534 347.273 34.0778C347.171 34.1022 347.109 34.1342 347.09 34.1719C347.092 34.281 346.965 34.3753 346.717 34.4479C346.469 34.5205 346.106 34.5695 345.655 34.5914C345.535 34.5958 345.445 34.6095 345.395 34.6308C345.224 34.6445 345.099 34.6708 345.033 34.7071C344.967 34.7435 344.962 34.7886 345.018 34.8381C345.073 34.8877 345.188 34.94 345.352 34.99C345.515 35.04 345.721 35.086 345.95 35.1235C346.282 35.1841 346.621 35.242 346.965 35.2971C346.945 35.3305 346.603 35.3359 346.653 35.3659C346.788 35.4619 346.82 35.5519 346.745 35.6286C346.67 35.7054 346.491 35.7668 346.222 35.8082L348.065 36.5859C349.184 36.6936 350.282 36.8763 351.15 37.0993C351.151 37.1358 351.101 37.1664 351.005 37.1881C350.909 37.2097 350.77 37.2216 350.602 37.2226C350.152 37.2385 349.727 37.2695 349.242 37.2871C348.946 37.3002 348.699 37.3291 348.517 37.3721C348.334 37.4151 348.219 37.4714 348.179 37.5376L349.261 37.8269C348.915 37.8974 348.657 37.9312 348.428 37.9745C348.558 38.0655 348.781 38.1595 349.08 38.2494C349.38 38.3393 349.747 38.4226 350.154 38.4929C350.263 38.5074 350.375 38.518 350.482 38.5241C350.589 38.5301 350.689 38.5315 350.777 38.5282C351.615 38.429 352.596 38.6042 353.548 38.7699C354.501 38.9356 355.018 39.0355 355.721 39.1644L357.066 39.1817C357.406 39.2427 357.71 39.3144 357.953 39.3912C358.196 39.4679 358.371 39.5475 358.464 39.6236C358.392 39.746 357.754 39.679 357.374 39.6916C356.471 39.7678 355.285 39.7515 354.012 39.6455C353.696 39.6064 353.373 39.638 353.066 39.6417C352.403 39.657 351.766 39.6818 351.158 39.716C350.757 39.7479 350.383 39.7873 350.037 39.834C349.945 39.9898 351.399 40.1101 350.574 40.1871C350.858 40.2223 350.964 40.2713 351.11 40.2536C352.046 40.3547 352.968 40.4047 353.77 40.3978C355.308 40.3763 357.054 40.4473 358.866 40.6049C360.821 40.7683 362.697 40.8368 364.338 40.805C364.964 40.8032 365.662 40.8366 366.381 40.9028C367.231 40.9945 368.074 41.0521 368.857 41.072C369.116 41.0727 369.404 41.0883 369.699 41.1175C369.994 41.1468 370.286 41.1888 370.553 41.2403C370.53 41.2792 370.276 41.3075 370.332 41.3264C371.142 41.6179 371.471 41.9213 372.718 42.2191C373.57 42.3246 374.549 42.4458 375.106 42.3059C375.664 42.1659 375.464 42.0456 374.355 41.6872C374.595 41.6821 374.885 41.6988 375.174 41.7345C375.462 41.7703 375.731 41.8227 375.933 41.8827L376.892 42.1509L377.757 42.4072C377.681 42.5352 377.622 42.6353 377.559 42.7411C377.46 42.8533 377.569 42.99 377.87 43.1319C378.051 43.2093 378.209 43.2868 378.343 43.3636C378.883 43.6707 379.04 43.961 378.795 44.2019C378.325 44.5483 377.671 44.867 376.841 45.1543C375.963 45.4338 375.483 45.7864 374.761 46.0911C374.392 46.2298 373.944 46.3541 373.422 46.4627C372.432 46.7044 371.347 46.9343 370.353 47.1815C369.359 47.4286 368.237 47.6062 367.134 47.8099C365.491 48.0517 363.715 48.2605 361.816 48.4352C360.641 48.5883 359.434 48.7374 358.347 48.9134C357.063 49.1117 355.555 49.2541 353.86 49.337C352.363 49.4363 351.025 49.5832 349.873 49.7748C349.752 49.7956 349.656 49.8219 349.589 49.8532C349.382 50.0486 348.8 50.1863 347.933 50.2453C347.986 50.3025 348.053 50.3607 348.135 50.4196C348.255 50.4898 348.28 50.5554 348.207 50.6081C348.133 50.6607 347.965 50.698 347.723 50.7149C347.03 50.7633 346.453 50.8455 346.02 50.9579C345.861 50.986 345.762 51.0271 345.732 51.0775C345.702 51.1279 345.742 51.1861 345.849 51.2472C345.943 51.31 345.95 51.3678 345.868 51.4131C345.787 51.4585 345.622 51.4892 345.393 51.5013C344.806 51.5608 344.178 51.6086 343.512 51.6446C342.095 51.7238 340.447 51.7228 338.668 51.6418C338.478 51.6183 338.288 51.6544 338.067 51.627C336.808 51.5362 335.639 51.5221 334.702 51.5865C333.603 51.6116 332.453 51.6066 331.294 51.6184C329.62 51.6105 328.075 51.6583 326.703 51.7604C325.135 51.6617 324.254 51.8333 322.93 51.8366C321.708 51.8542 320.55 51.8964 319.467 51.963C317.72 52.0512 315.98 52.1283 314.258 52.2316C312.643 52.2808 311.156 52.3749 309.822 52.5123C309.311 52.5743 308.385 52.4777 308.037 52.6077C307.689 52.7378 306.986 52.7224 306.419 52.7656L304.627 52.8722C304.319 52.8975 303.98 52.9136 303.616 52.9201C301.951 52.9288 300.797 53.1025 299.251 53.1379L299.093 53.1184C296.348 53.3765 293.207 53.5182 289.762 53.5393C287.75 53.6185 285.549 53.6147 283.414 53.6727C282.904 53.7888 281.701 53.6457 281.063 53.7517C280.424 53.8577 279.38 53.7883 278.557 53.8057C277.733 53.8231 276.928 53.8667 276.048 53.8652C275.283 53.8657 274.638 53.913 274.17 54.0029C273.102 54.1515 271.801 54.2388 270.323 54.261C268.369 54.2996 266.521 54.3873 264.533 54.368C264.561 54.4763 264.439 54.5684 264.18 54.6349C263.92 54.7014 263.532 54.7398 263.055 54.7463C260.929 54.7876 259.002 54.8952 256.848 54.9271L256.272 54.9274L249.83 54.9895C248.095 55.0015 246.423 55.0214 244.652 55.035C243.989 54.9529 243.973 55.0943 243.515 55.0673C243.387 54.9977 243.236 54.967 243.01 55.0048L242.96 55.0882L235.609 55.1989C232.731 55.2799 229.703 55.3042 226.552 55.2716C225.804 55.2798 225.106 55.3074 224.47 55.3541C223.879 55.3711 223.264 55.3787 222.626 55.3766C221.765 55.3556 220.923 55.345 220.104 55.3448C217.95 55.3767 215.69 55.3595 213.331 55.3362C210.973 55.3128 209.186 55.3543 207.087 55.3511C205.666 55.3482 204.251 55.3342 202.779 55.3013C202.077 55.2859 201.211 55.2026 200.484 55.1722C199.756 55.1418 199.519 55.1423 199.422 55.1901C199.106 55.3241 198.31 55.2374 197.674 55.2244C196.433 55.2021 196.257 55.1564 195.92 54.8101L197.442 54.7C197.815 54.6645 198.285 54.6583 198.805 54.6819C199.325 54.7055 199.879 54.7582 200.412 54.835C200.622 54.8678 200.842 54.8938 201.058 54.9114C201.275 54.929 201.484 54.9378 201.673 54.9374C203.209 54.9186 204.724 54.8792 206.2 54.8471L206.416 54.826L206.429 54.5172C206.234 54.4868 206.032 54.4618 205.829 54.4429L198.425 54.2425C196.726 54.1933 194.962 54.0823 193.294 54.037C191.627 53.9917 190.728 53.964 189.434 53.9172C188.888 53.8906 188.332 53.8556 187.768 53.8124C187.801 53.7827 187.82 53.751 187.824 53.7178C187.854 53.6678 187.894 53.601 187.654 53.5474C187.393 53.4719 187.044 53.4073 186.677 53.3667C186.332 53.3399 185.998 53.3247 185.687 53.3217C184.185 53.2958 182.47 53.1327 180.907 52.8671L180.362 53.0444C178.015 52.9448 175.633 52.8468 173.181 52.7522C172.69 52.7264 172.175 52.6769 171.674 52.6074C171.138 52.5409 170.644 52.4021 170.079 52.3262C169.521 52.2715 168.966 52.2289 168.426 52.1991C168.572 52.1535 168.765 52.117 168.998 52.0909C169.228 52.0817 169.395 52.0532 169.476 52.0095C169.557 51.9658 169.547 51.9092 169.447 51.8479C169.273 51.7426 169.196 51.6435 169.576 51.6309C169.927 51.6069 170.179 51.5549 170.3 51.4811C170.422 51.4073 170.409 51.3148 170.263 51.2144C170.199 51.1557 170.154 51.0982 170.128 51.0424L169.97 51.0228C169.449 50.815 168.41 50.7399 167.663 50.5699C167.311 50.5205 166.946 50.4922 166.627 50.4892C165.801 50.4527 164.997 50.4367 164.143 50.3907C163.736 50.3695 163.309 50.3309 162.889 50.2772C162.289 50.2029 162.226 50.1951 161.878 49.925C162.419 49.9297 162.847 49.8894 163.092 49.8108C163.336 49.7322 163.38 49.6202 163.218 49.4938C162.772 49.2175 162.3 48.9263 160.282 48.73C160.94 48.7203 161.574 48.7011 162.18 48.6724C162.356 48.6663 162.488 48.646 162.558 48.6143C162.628 48.5826 162.633 48.541 162.572 48.4951C162.51 48.4492 162.386 48.4011 162.215 48.3574C162.045 48.3137 161.836 48.2763 161.617 48.2503C160.551 48.0941 159.44 47.9895 158.407 47.9484C157.536 47.9302 156.751 47.9404 155.735 47.9399L154.535 47.7913C154.555 47.7579 154.379 47.7122 154.423 47.6939C154.728 47.5226 155.064 47.3553 155.411 47.1712C154.858 47.0718 154.379 46.9519 154.028 46.825C153.678 46.6982 153.47 46.5696 153.43 46.4541C153.4 46.4192 153.408 46.3874 153.453 46.361C153.498 46.3346 153.579 46.3142 153.69 46.3012C154.006 46.2788 154.249 46.2361 154.402 46.1764C154.555 46.1166 154.613 46.0414 154.572 45.9565L153.639 45.6439C150.83 45.4208 148.071 45.2615 145.415 45.1688L143.016 45.0987C142.727 45.015 142.817 44.9784 143.089 44.9763C143.361 44.9741 144.127 44.9973 144.662 45.0098C145.124 45.0262 145.534 45.0154 145.852 44.9785C146.171 44.9416 146.388 44.8798 146.481 44.7992L145.676 44.4426C145.715 44.3759 145.771 44.2813 146.208 44.2876C146.506 44.2799 146.726 44.2463 146.832 44.1922C146.938 44.1382 146.924 44.0668 146.791 43.9896C146.771 43.9338 146.801 43.8829 146.88 43.8394C147.526 43.8358 148.169 43.8377 148.755 43.8208C149.028 43.8151 149.259 43.7945 149.431 43.7602C149.603 43.7259 149.714 43.6787 149.754 43.622C149.775 43.5666 149.724 43.5035 149.604 43.4378C149.484 43.3721 149.299 43.3057 149.063 43.2438C148.145 43.1673 147.304 43.1663 146.727 43.2411C146.521 43.2997 146.19 43.3317 145.778 43.3329C145.366 43.3341 144.892 43.3044 144.418 43.2478C143.876 43.1825 143.335 43.1538 142.893 43.1669C142.45 43.1799 142.135 43.2339 142.004 43.319C141.448 43.286 140.954 43.2607 140.467 43.2243C139.893 43.1784 139.351 43.1648 138.898 43.1852C138.174 43.1995 137.393 43.1911 136.574 43.1602C134.214 43.0828 131.851 43.0111 129.566 42.9789C128.961 42.9697 128.438 42.9945 127.84 42.9742C127.242 42.9539 126.769 43.0087 126.021 42.8982C125.879 42.881 125.736 42.87 125.603 42.866C125.47 42.862 125.351 42.8651 125.256 42.875C123.942 42.9624 122.403 42.9748 120.727 42.9114C118.432 42.8958 116.052 42.8519 113.753 42.8419C113.079 42.8505 112.442 42.8735 111.849 42.9106C111.397 42.9331 110.924 42.9483 110.433 42.9562C110.056 42.9632 109.695 42.9425 109.759 43.0638C109.822 43.1852 109.257 43.1092 108.932 43.0868C107.813 43.028 106.67 42.9483 105.515 42.8487C104.377 42.7405 103.261 42.6775 102.236 42.6636C101.495 42.6554 100.731 42.6863 99.779 42.5205C99.8153 42.4593 99.8515 42.3981 100.059 42.3342C99.2822 42.1584 98.3961 42.0071 97.4739 41.8929C96.5516 41.7787 95.6196 41.7048 94.7551 41.6773L93.5629 41.3446C93.2694 41.3055 92.9697 41.277 92.6821 41.2609C92.3946 41.2448 92.1251 41.2414 91.8901 41.2508C91.7086 41.2557 91.4873 41.2433 91.2669 41.216C91.0465 41.1887 90.8419 41.1483 90.6905 41.1023C90.4641 41.0437 90.1876 40.9931 89.8956 40.957C89.6035 40.9208 89.309 40.9006 89.0488 40.8989C88.2297 40.8627 87.3553 40.7792 86.5152 40.6568C86.2972 40.5851 86.1606 40.5109 86.1222 40.4436C86.0839 40.3762 86.1455 40.3186 86.2994 40.2777C86.5476 40.2056 86.6869 40.1137 86.709 40.0077C86.7311 39.9016 86.6355 39.7835 86.4279 39.6606C86.3216 39.5852 86.2861 39.5137 86.3235 39.4506C86.3609 39.3875 86.4705 39.334 86.6455 39.2934C87.299 39.1056 87.1242 39.0004 86.055 38.6888C85.8814 38.6369 85.672 38.5883 85.4402 38.5462C85.2085 38.5042 84.9594 38.4695 84.7088 38.4444C84.1208 38.3936 83.5408 38.3559 82.9795 38.3318C82.6638 38.2927 82.3401 38.3242 81.9763 38.3091C80.1575 38.2331 79.8913 38.1105 79.3023 37.8465L78.873 37.656C78.0768 37.5016 77.2061 37.3735 76.3235 37.2807C75.4409 37.1879 74.5685 37.1328 73.7691 37.1194C73.4513 37.1184 73.086 37.092 72.7291 37.0443C71.5677 36.8985 70.3916 36.7976 69.2786 36.7483C68.585 36.7206 67.8374 36.6488 67.1255 36.5415C66.4136 36.4343 65.7676 36.2962 65.2653 36.1438C64.8141 36.0065 64.2238 35.8833 63.5766 35.7913C62.8189 35.6975 62.7487 35.5873 63.1718 35.5023C63.5949 35.4174 64.3036 35.308 64.9326 35.2187C65.1515 35.1884 65.2871 35.139 65.3243 35.0762C65.3616 35.0133 65.299 34.9394 65.1436 34.8627C65.0438 34.7314 65.0265 34.6068 65.0921 34.492C65.1272 34.4443 65.103 34.3896 65.0211 34.3315C64.9393 34.2735 64.8017 34.2135 64.6176 34.1557C64.4335 34.0978 64.2073 34.0433 63.9541 33.996C63.7009 33.9486 63.4266 33.9095 63.1498 33.8812C61.9817 33.7365 60.8452 33.5957 59.654 33.49C59.1548 33.4402 58.6561 33.3784 58.1702 33.3062C57.1755 33.1277 56.1114 32.9797 55.0396 32.8707C54.5309 32.822 54.0336 32.7368 53.6552 32.6336C52.4619 32.3555 51.3624 32.0631 50.3765 31.7617C50.1389 31.6682 49.828 31.577 49.4632 31.4938C49.0985 31.4106 48.6878 31.3372 48.257 31.2782C47.9098 31.2352 47.6271 31.1405 47.3594 31.0775C47.1649 30.9316 47.1441 30.7966 47.299 30.6852C47.454 30.5738 47.7795 30.4897 48.2451 30.4407C48.6866 30.3819 49.0998 30.3136 49.4814 30.2415C49.9415 30.1831 50.4884 30.1481 51.1019 30.1376C51.8284 30.1063 52.3657 30.0167 52.6436 29.8806C50.6546 29.6343 48.7632 29.2806 47.0199 29.3633L45.6953 29.1395C45.748 29.0505 45.7942 28.9726 45.837 28.9003C46.1521 28.7686 46.2505 28.6026 46.1239 28.4162C46.0195 28.3261 46.029 28.2441 46.1512 28.1785C46.2734 28.1129 46.504 28.066 46.8198 28.0426C48.6904 27.8025 50.8536 27.6404 52.6077 27.368C53.1577 27.3169 53.8016 27.2936 54.5122 27.2993C55.1997 27.2829 55.1709 27.1599 54.3798 27.0082C53.9357 26.9289 53.4831 26.8529 53.0236 26.7805C50.9975 26.7684 50.1721 27.132 47.86 27.0308L46.7884 26.5517C46.4986 26.5443 46.2173 26.5414 45.9464 26.543L42.0695 26.7376C41.7466 26.7474 41.4952 26.7807 41.344 26.8337C41.1928 26.8868 41.1477 26.9575 41.2139 27.0378C41.2401 27.136 41.1867 27.2261 41.0556 27.3048C40.9711 27.3599 41.0252 27.4332 41.206 27.5086C41.6136 27.6785 41.0906 27.7033 40.7603 27.746C40.6759 27.7502 40.5786 27.7497 40.4739 27.7447C40.3693 27.7396 40.2595 27.7301 40.1508 27.7167C40.0421 27.7032 39.9368 27.6861 39.8409 27.6663C39.7451 27.6465 39.6605 27.6244 39.5923 27.6013C39.0103 27.4397 38.5013 27.2691 37.9293 27.0908C38.3354 26.9201 37.8576 26.64 38.4913 26.4856C38.5622 26.4547 38.5905 26.4171 38.5746 26.3751C38.5588 26.3331 38.4989 26.2875 38.3989 26.2412C38.1408 26.1217 38.0179 26.0051 38.0426 25.9033C38.0672 25.8015 38.2385 25.7181 38.5392 25.6614L38.5755 25.6002C37.7824 25.3945 37.9925 25.2115 37.6811 24.9938L36.9182 24.8515C35.0202 24.5089 35.0169 24.5145 33.3828 24.5271C33.0534 24.3967 33.4719 24.3769 33.7857 24.362L36.414 24.2157C38.1324 24.118 39.9007 24.0504 41.8203 24.0134C43.7399 23.9765 45.88 23.8533 47.8641 23.7647C47.9644 23.7578 48.0412 23.7442 48.0879 23.7251C48.1346 23.7059 48.1499 23.6817 48.1327 23.6546C48.0538 23.6252 47.9505 23.5969 47.8306 23.5717C47.7106 23.5465 47.577 23.5251 47.4395 23.509C46.8081 23.4308 46.1602 23.3804 45.4874 23.315L44.233 23.2015L43.8471 23.0522C43.596 22.9613 43.4244 22.8505 43.0903 22.7852C42.815 22.7366 42.5161 22.6996 42.2248 22.6782C41.9335 22.6569 41.6605 22.6518 41.4341 22.6637C40.8065 22.6935 40.2387 22.7366 39.6394 22.7759C39.04 22.8151 38.7097 22.8578 38.19 22.877C37.1341 22.8858 36.1136 22.9089 35.133 22.9463C34.3071 23.0348 33.5431 23.1397 32.846 23.2602C32.4111 23.3079 32.0044 23.365 31.2618 23.3029C30.9095 23.2466 30.6056 23.1726 30.404 23.0941C30.2024 23.0155 30.1162 22.9375 30.1606 22.8739C30.2004 22.824 30.3132 22.7846 30.4883 22.7592C30.6634 22.7339 30.895 22.7235 31.1613 22.7291C31.9067 22.7199 32.596 22.6891 33.2153 22.6371C34.0772 22.543 35.1265 22.5024 36.3019 22.5178C36.7005 22.5313 36.9677 22.4808 37.3164 22.4643C37.6651 22.4477 37.9605 22.4067 38.3492 22.4369C39.5569 22.5148 40.1359 22.3954 40.8597 22.3179C41.1046 22.2835 41.2564 22.2279 41.2983 22.1572C41.3402 22.0865 41.2706 22.0035 41.0971 21.9173C40.763 21.7456 40.3544 21.5729 39.8776 21.402C39.6322 21.3179 39.3178 21.2381 38.959 21.1689C38.6003 21.0996 38.2069 21.0426 37.8099 21.0025C37.5722 20.8974 37.4455 20.794 37.441 20.7017C37.4366 20.6093 37.5546 20.5311 37.7844 20.4739C38.3701 20.3433 38.8893 20.2106 40.2015 20.2835C40.8185 20.3114 41.3991 20.3167 41.9204 20.2993C43.0765 20.2755 44.4101 20.3277 45.7955 20.4508C46.1539 20.4824 46.5062 20.5039 46.842 20.5147C49.237 20.5904 51.519 20.6282 53.8075 20.6548C55.0199 20.6676 56.2421 20.6638 57.5078 20.7011C60.4758 20.782 63.1775 20.7404 66.0423 20.7668C67.5427 20.7803 68.8857 20.7258 70.0008 20.6061C70.2179 20.5659 70.4044 20.5191 70.5581 20.4661C69.8192 20.327 69.0075 20.2169 68.2009 20.1462C67.3942 20.0756 66.6196 20.0469 65.9513 20.0627C65.5839 20.1017 65.109 20.1088 64.5796 20.0833C64.0502 20.0578 63.4871 20.0007 62.9531 19.9183L64.5057 19.8717C65.5352 19.85 66.5897 19.8432 67.591 19.8119C69.1817 19.7581 70.656 19.672 72.3032 19.6371C73.6332 19.6051 74.8232 19.5231 75.8361 19.3939C76.5679 19.2996 77.4036 19.2328 78.3263 19.1947C78.9822 19.1744 78.9822 19.1744 79.4016 18.9815C79.0689 18.8567 78.6387 18.8392 78.2335 18.8368C75.8041 18.7583 73.4921 18.7445 71.3447 18.7958C70.2612 18.8004 69.3 18.8533 68.5073 18.952C68.3131 18.9937 67.8165 18.9739 67.4179 18.9604C66.1682 18.9398 64.9739 18.9458 63.8491 18.9783C62.2941 19.0324 60.5622 19.0195 58.7207 18.9403C58.3715 18.8433 58.7735 18.8513 58.7932 18.8179C60.2195 18.7556 61.6175 18.6839 63.0721 18.6312C63.4697 18.6124 63.8947 18.6031 64.3424 18.6034C66.0136 18.6361 67.4063 18.5455 68.3253 18.3442C68.3714 18.2663 68.976 18.2755 69.2431 18.225C69.3745 18.1813 69.4621 18.1298 69.5031 18.0721C69.1139 17.9283 68.6738 17.9275 68.3351 17.9274C67.352 17.9434 66.4062 17.9739 65.5024 18.0185C64.6622 18.061 63.7321 18.0723 62.7374 18.0523C62.0033 18.033 61.3757 18.0628 60.635 18.0546C60.2332 18.0375 59.8173 18.0101 59.3957 17.9728C59.8651 17.8726 60.5031 17.811 61.2649 17.7923C61.8426 17.7324 62.5649 17.7144 62.6572 17.5586C62.3844 17.4472 62.0805 17.4454 61.8364 17.4569C61.3283 17.4565 60.8376 17.4635 60.3668 17.478C59.3684 17.5096 58.2875 17.5101 57.1467 17.4793C56.5459 17.4678 55.9759 17.4712 55.4462 17.4896C54.2456 17.5141 53.095 17.5687 51.9957 17.5938C49.7439 17.6195 47.6901 17.7115 45.5264 17.76C45.0449 17.772 44.6132 17.8141 43.9785 17.7415C43.3438 17.6688 43.3156 17.6594 43.2406 17.6142C43.063 17.539 43.0092 17.466 43.0903 17.4105C43.2162 17.3586 43.4615 17.3297 43.7824 17.329C45.7166 17.2465 47.5512 17.1306 49.2746 16.982C50.033 16.9523 50.6976 16.8916 51.245 16.8021C51.6792 16.7404 52.1942 16.6996 52.7739 16.6809C53.6171 16.6363 54.4961 16.6037 55.4074 16.5831C55.8314 16.572 56.1919 16.539 56.4678 16.4859C56.7436 16.4329 56.9292 16.361 57.0136 16.2744L55.8964 15.9867C55.7209 15.9733 55.5468 15.9617 55.3748 15.952L46.1023 16.1592L45.184 16.1649C44.1776 16.1477 43.9316 16.1053 42.9769 15.7721C45.1557 15.6937 46.8684 15.4652 47.9445 15.1093C47.6859 15.0711 47.4208 15.0382 47.1553 15.0116C45.4141 14.9274 43.7681 14.9051 42.2808 14.9454C41.3973 14.9494 40.4889 14.9384 39.5772 14.933C39.8438 14.7689 40.8653 14.8178 41.5311 14.7808C43.1219 14.723 44.5286 14.6034 45.7063 14.426C46.1123 14.3569 46.6203 14.3126 47.2069 14.2954C47.794 14.2894 48.2844 14.2476 48.6355 14.1734C48.9866 14.0993 49.1876 13.9951 49.2211 13.87C49.2764 13.7567 49.3956 13.6515 49.5769 13.5558C49.2562 13.42 48.747 13.29 48.1448 13.1901C47.5426 13.0902 46.8889 13.0274 46.3063 13.0133C45.0625 12.9574 43.7724 12.8659 42.4689 12.7411C41.8196 12.6782 41.1829 12.642 40.6002 12.6351C40.0863 12.6297 39.5021 12.5843 38.9369 12.5056C38.3717 12.427 37.8563 12.3195 37.4695 12.1996C36.9474 12.0513 36.4601 11.9014 35.9729 11.7514C35.4857 11.6015 34.9203 11.4121 34.3515 11.2281C33.85 11.1994 33.3617 11.1809 32.8932 11.1729C32.5287 11.1797 32.1033 11.1596 31.6673 11.1152C31.2313 11.0707 30.8028 11.0036 30.4325 10.9219C30.6497 10.8413 30.8953 10.7702 31.1539 10.6768C30.7989 10.5535 30.5415 10.4278 30.3973 10.3073C30.2532 10.1868 30.2254 10.074 30.3156 9.97582C30.3683 9.8868 29.9824 9.73747 29.849 9.61943C29.6773 9.51767 29.6451 9.42271 29.7565 9.34699C29.8679 9.27127 30.1177 9.21833 30.4733 9.19511C30.9143 9.15226 31.2732 9.08773 31.5353 9.00416C31.622 8.98247 31.6661 8.95276 31.6637 8.91775C31.6612 8.88274 31.6122 8.84355 31.5212 8.80376C31.4301 8.76398 31.3 8.72486 31.1426 8.68999C30.9852 8.65512 30.8056 8.62561 30.6202 8.60417C30.0523 8.54337 29.4883 8.50396 28.9606 8.4882C28.0516 8.45922 27.1813 8.44102 26.3498 8.43359C25.4302 8.4224 24.4072 8.35339 23.3846 8.23355C22.469 8.12016 21.6482 8.01849 21.2005 7.8018C20.7529 7.58512 20.0371 7.59202 19.4867 7.43428C19.7959 7.29208 20.3454 7.19329 21.0798 7.14786C21.5604 7.13164 21.9615 7.08908 22.2575 7.02289C22.5535 6.95671 22.7378 6.86837 22.7986 6.76354L21.1277 6.32369C19.7933 6.11661 19.055 6.27599 17.6131 6.19297L19.0988 6.0306C19.1286 6.01455 19.1398 5.9957 19.1317 5.97496C18.9875 5.64655 18.758 5.57633 17.2393 5.39421L16.387 5.28864L15.0379 5.16336C14.8218 5.09605 14.6724 5.02587 14.6045 4.95982C14.5366 4.89377 14.5526 4.83417 14.651 4.78699C14.8487 4.70763 14.9087 4.60623 14.8258 4.49211C14.6949 4.41652 14.6841 4.34684 14.7952 4.29515C14.9063 4.24345 15.1323 4.21302 15.434 4.20914C15.6748 4.20312 15.6927 4.11576 15.8237 4.06629C15.9538 3.99811 16.1766 3.94579 16.4767 3.91289C16.7769 3.87999 17.1474 3.86728 17.5632 3.87564C18.7889 3.88247 19.9404 3.85688 20.9972 3.79931L20.8077 3.77585C21.9092 3.82639 22.939 3.83251 23.8469 3.79394C24.7567 3.74539 25.9244 3.77653 26.8908 3.74692C27.6775 3.75372 28.2765 3.68652 28.5606 3.55959C28.8357 3.4384 29.8356 3.46668 30.6013 3.48985C31.0549 3.50484 31.4932 3.51119 31.9117 3.50883C32.4734 3.4814 33.1757 3.50725 33.9015 3.58209C34.1193 3.60509 34.3338 3.61726 34.5245 3.61743C36.3696 3.64889 38.2114 3.6859 40.0316 3.70232C40.4518 3.69287 40.9444 3.71452 41.4518 3.76474C41.665 3.78654 41.8726 3.79558 42.0465 3.79062C44.9226 3.74074 48.1681 3.868 50.9877 3.79918C51.3294 3.78292 51.7077 3.77954 52.112 3.78913C53.0203 3.82956 53.809 3.80354 54.3585 3.71503C54.655 3.66795 55.0351 3.64201 55.4746 3.63885C55.914 3.6357 56.4032 3.65541 56.9109 3.69672C57.7558 3.75142 58.5367 3.75735 59.1712 3.71389C60.4082 3.67374 61.7091 3.65723 63.0637 3.66449C63.4787 3.67151 63.8435 3.65591 64.1299 3.61888C64.4163 3.58186 64.6165 3.52441 64.7151 3.45098C64.3824 3.32617 64.0187 3.31099 63.6733 3.32196C62.3347 3.29352 60.9993 3.25951 59.6856 3.24611C58.5098 3.20782 57.3816 3.19612 56.3176 3.21117C55.7893 3.22815 55.13 3.18944 54.4837 3.10348C53.6916 2.99462 52.8758 2.94054 52.2012 2.95217C51.7011 2.95506 51.1732 2.94568 50.6251 2.92418C50.2743 2.89824 49.9148 2.85371 49.5833 2.79515C49.4518 2.76972 49.3087 2.74833 49.163 2.73236C49.0174 2.71639 48.8726 2.7062 48.7378 2.70242C48.6029 2.69864 48.4808 2.70135 48.3797 2.71041C48.2785 2.71946 48.2003 2.73464 48.15 2.75498C47.6426 2.92504 46.5079 2.83826 45.5363 2.81945C44.0803 2.53162 42.9967 2.70198 41.6359 2.53941C41.5283 2.52863 41.4222 2.5221 41.3243 2.52024C41.2263 2.51838 41.1385 2.52121 41.0662 2.52857C38.4327 2.62642 35.3634 2.54487 32.5985 2.57866C32.2936 2.5836 31.9397 2.56667 31.577 2.52978C29.2067 2.28564 26.9278 2.21632 25.1858 2.3354C24.9738 2.34612 24.7327 2.34658 24.4734 2.33675C23.2823 2.23972 22.1433 2.20103 21.1515 2.22392C19.597 2.21653 18.1025 2.22252 16.523 2.20009C15.4343 2.16818 14.4792 2.20227 13.7534 2.29898C13.7303 2.33793 13.2468 2.29596 12.8765 2.2919C12.6635 2.19385 12.4788 2.1053 12.2592 2.01838C12.0629 1.91085 11.7689 1.80203 11.3971 1.69932C11.0253 1.5966 10.5845 1.50239 10.1044 1.42304C9.28359 1.32138 9.2015 1.17386 9.77587 1.11958C11.2563 0.940019 13.1178 0.866526 15.2237 0.904497C16.984 0.907531 18.776 0.914482 20.5613 0.932555C21.6027 0.948059 22.7004 0.982496 23.7135 0.988526C24.0553 1.00178 24.4065 1.0213 24.7633 1.04689C25.2012 1.08399 25.6263 1.10421 26.0158 1.10646C27.2664 1.07521 28.6621 1.10243 30.1363 1.18682C30.6763 1.20522 31.1948 1.21142 31.6841 1.20533C32.8418 1.18243 34.0968 1.19928 35.4159 1.25546C36.2358 1.28714 37.0308 1.3037 37.7926 1.30498C38.0617 1.30844 38.2808 1.28183 38.5399 1.30198C40.821 1.51283 42.4362 1.36053 44.4891 1.44161C45.4869 1.46422 46.4402 1.46428 47.3356 1.44181C49.0829 1.44289 50.879 1.46601 52.7165 1.51106C55.1464 1.58508 57.3982 1.5594 59.7183 1.58996C60.1764 1.59638 60.6187 1.59529 61.0419 1.58668C63.1009 1.5298 65.3373 1.54186 67.6965 1.62257C68.2322 1.63423 68.7133 1.61997 69.1098 1.5807C69.5062 1.54143 69.8095 1.47798 70.0005 1.39434C70.0813 1.33693 70.029 1.26237 69.8535 1.18503C69.5623 1.08626 69.2335 0.989492 68.8724 0.896312L55.7399 0.583634C55.1883 0.567307 54.6504 0.558516 54.129 0.557302C52.5952 0.554584 51.0143 0.530259 49.394 0.48445C47.7929 0.44142 46.2634 0.449058 44.7123 0.436103C44.2554 0.431763 43.7864 0.421523 43.3072 0.405413C40.0685 0.27791 36.9104 0.200034 33.8552 0.17234C32.5698 0.168411 31.1812 0.109895 29.8708 0.0909291C28.5604 0.0719612 26.7685 0.0650181 25.214 0.0576252L20.4014 0.0587596C19.4548 0.0549871 18.5331 0.0662466 17.6148 0.0719466C16.5004 -0.334817 16.1163 -0.430158 14.6292 -0.608366C14.1205 -0.674103 13.603 -0.713332 13.1375 -0.721461C11.6613 -0.689306 9.80899 -0.82316 8.4091 -0.805439C7.56439 -0.81418 6.84761 -0.768993 6.33215 -0.674502C5.8847 -0.600345 5.37302 -0.541666 4.80503 -0.499352C3.24911 -0.847328 3.11199 -1.07333 4.2824 -1.16128C4.5995 -1.18172 5.03629 -1.1754 5.26528 -1.2187C5.39667 -1.24507 5.57616 -1.26015 5.78944 -1.26276C6.00273 -1.26537 6.24391 -1.25543 6.49408 -1.23372C7.28362 -1.17678 8.02365 -1.16338 8.63991 -1.19489C9.21988 -1.23659 9.9308 -1.23492 10.7041 -1.19005C11.2724 -1.11967 11.7719 -1.21905 12.2633 -1.24776C12.7547 -1.27648 13.158 -1.32805 13.9256 -1.2509C14.0662 -1.23554 14.2057 -1.22632 14.3335 -1.22394C14.4614 -1.22157 14.5741 -1.22611 14.663 -1.23721C15.4874 -1.28689 16.4712 -1.28167 17.5345 -1.22197C19.1652 -1.16322 20.6952 -1.16102 22.0715 -1.21544C22.8953 -1.26305 23.5978 -1.34749 24.1513 -1.46546C24.3022 -1.50492 24.5262 -1.52858 24.8019 -1.53417C26.1867 -1.50956 27.6902 -1.41692 29.2156 -1.26224C29.7903 -1.20026 30.3642 -1.15123 30.9251 -1.1162C32.0779 -1.03839 33.1929 -0.99479 34.2371 -0.986686C35.7543 -0.985402 37.334 -0.955464 38.9622 -0.897142C39.9669 -0.864669 40.9351 -0.852684 41.8552 -0.861316C42.8009 -0.865385 43.8106 -0.840615 44.8614 -0.78758C45.9065 -0.744363 46.8274 -0.769263 47.5132 -0.85927C47.7391 -0.907771 47.921 -0.965365 48.0555 -1.03098C46.5254 -1.24448 44.943 -1.35299 43.6268 -1.33464C43.1268 -1.34879 42.7117 -1.33451 42.1849 -1.41767L42.1684 -1.38985C42.0636 -1.3718 41.9054 -1.36755 41.7241 -1.37789C41.5428 -1.38824 41.3509 -1.41246 41.1851 -1.44595C41.2477 -1.55166 41.3071 -1.6518 41.35 -1.72413C42.3528 -1.71137 43.3265 -1.7124 44.2662 -1.72724C45.0582 -1.74858 46.1335 -1.56166 46.819 -1.63202C48.1563 -1.54403 49.0077 -1.66552 50.2069 -1.63046C51.406 -1.59541 52.7268 -1.4796 53.926 -1.44455C54.9724 -1.42531 55.9884 -1.42113 56.9684 -1.43202C57.3067 -1.44731 57.6966 -1.44373 58.1143 -1.42148C58.7015 -1.37963 59.2477 -1.37261 59.6902 -1.40125C60.1327 -1.42988 60.4536 -1.49301 60.6163 -1.58339C60.4631 -1.66805 60.2568 -1.77721 60.0188 -1.89029C60.4566 -1.98321 61.1214 -2.02233 61.9148 -2.00184L63.0358 -2.00633C63.3328 -2.00388 63.5599 -2.029 63.67 -2.07649C63.7802 -2.12399 63.765 -2.19022 63.6275 -2.2615C61.502 -2.62031 61.4237 -2.65986 59.8636 -2.42907L57.7923 -2.53632L57.8272 -2.53796ZM85.844 -1.55232L85.6862 -1.57187L85.844 -1.55232ZM343.977 36.623L343.941 36.6842L343.98 36.6174L344.327 36.6604L344.35 36.6215L343.977 36.623ZM293.556 9.799C293.066 9.73223 292.57 9.67085 292.073 9.61522C291.942 9.6066 291.82 9.60465 291.717 9.60954C291.614 9.61444 291.533 9.62602 291.48 9.64333C291.44 9.71009 291.718 9.75641 291.97 9.78769C292.289 9.82979 292.614 9.85655 292.913 9.8652C293.212 9.87384 293.473 9.86408 293.669 9.83689L293.955 9.81253L293.556 9.799ZM40.7364 26.0709C41.0596 26.0821 41.366 26.084 41.6482 26.0763C42.9001 26.0224 44.0988 25.9439 45.3823 25.8938C47.0017 25.7668 48.8626 25.715 50.8951 25.7405C51.6892 25.753 52.36 25.7118 52.8294 25.6218C53.1103 25.5735 53.473 25.5452 53.8951 25.5388L59.2685 25.3921C59.6006 25.3617 59.8878 25.319 60.1232 25.2651C59.6497 25.2064 59.334 25.1673 59.1446 25.1439C58.7515 25.1373 58.4137 25.1551 58.165 25.1957C57.8978 25.2645 57.4462 25.2917 56.8998 25.2719C56.3483 25.2556 55.8104 25.2468 55.2889 25.2456C54.3041 25.249 53.3127 25.2636 52.3246 25.2726C51.9401 25.4639 50.8055 25.3771 49.8339 25.3583L49.0833 25.3668C46.6298 25.466 44.2861 25.6024 42.0637 25.7754C41.6341 25.8047 41.2641 25.8514 40.9649 25.9141C40.8522 25.9629 40.8161 26.0239 40.8594 26.0921L40.7016 26.0725L40.7364 26.0709ZM150.3 44.3585C150.896 44.3715 151.515 44.3983 152.151 44.4384C152.64 44.4793 153.118 44.5042 153.564 44.5119C156.067 44.5548 158.674 44.6538 161.352 44.8077C161.703 44.831 162.039 44.8424 162.349 44.8415L164.541 44.8025C165.232 44.7805 165.245 44.7583 164.742 44.4631C164.325 44.4058 163.903 44.3535 163.479 44.3067C163.227 44.2754 162.816 44.2246 162.72 44.2724C162.135 44.4029 161.066 44.3184 160.168 44.2907C157.567 44.2194 154.884 44.1141 152.258 44.0277C151.703 44.0066 151.166 43.9959 150.651 43.9958C150.331 43.9914 150.04 43.9997 149.789 44.0205C149.716 44.0226 149.654 44.0288 149.609 44.0386C149.563 44.0484 149.535 44.0617 149.526 44.0774C149.516 44.0932 149.526 44.1112 149.555 44.1302C149.583 44.1491 149.629 44.1686 149.69 44.1874C149.905 44.2531 150.153 44.316 150.427 44.3741L150.3 44.3585ZM169.354 1.51677L171.916 1.48178C172.223 1.47802 172.484 1.43863 172.813 1.45548C174.567 1.50887 176.192 1.494 177.617 1.4115C178.102 1.37783 178.67 1.3711 179.289 1.39167C181.185 1.45264 182.973 1.45515 184.605 1.39912C185.66 1.38788 186.647 1.35012 187.552 1.2864C187.622 1.2716 187.665 1.25152 187.68 1.22752C187.694 1.20352 187.679 1.17616 187.635 1.14731C187.623 1.12908 187.592 1.10947 187.544 1.08984C187.495 1.07021 187.431 1.051 187.354 1.03356C187.277 1.01613 187.191 1.00087 187.1 0.988832C187.009 0.976795 186.917 0.968264 186.828 0.963837C185.685 0.877584 184.6 0.847537 183.661 0.876132C182.791 0.910345 181.854 0.920357 180.865 0.90601C179.918 0.902236 179.276 1.0138 178.106 0.928673C177.612 0.900639 177.175 0.909869 176.871 0.954812C176.258 1.02931 175.403 1.03345 174.458 0.966505C173.892 0.932625 173.352 0.918096 172.857 0.923471C171.656 0.947963 170.509 0.996964 169.396 1.04431C169.046 1.05527 168.67 1.05678 168.276 1.04881L162.705 0.956099C161.367 0.927658 160.031 0.893654 158.717 0.88025C157.643 0.851148 156.643 0.860262 155.753 0.907274C154.804 0.956684 153.769 0.976743 152.668 0.967073C150.958 0.994114 149.257 1.00445 147.395 1.00082C146.208 1.00305 144.992 0.995824 143.752 0.973551C143.124 0.944883 142.591 0.968228 142.256 1.03909C142.052 1.09743 141.572 1.0499 141.173 1.03636C139.047 0.905868 137.053 0.874949 135.33 0.945755C135.11 0.957295 134.869 0.961471 134.611 0.958215C132.952 0.955785 131.233 0.939968 129.641 0.939793C129.221 0.945295 128.827 0.96039 128.462 0.984888C128.501 1.02486 128.612 1.06818 128.773 1.10586C128.934 1.14355 129.131 1.17271 129.325 1.1873C130.831 1.29896 132.285 1.35795 133.626 1.36179C135.859 1.34756 138.198 1.37954 140.618 1.45739C142.497 1.53586 144.209 1.51934 145.629 1.40905C146.738 1.32675 148.182 1.35771 149.711 1.49662C150.365 1.56296 151.001 1.58949 151.53 1.57258C152.039 1.5504 152.623 1.55578 153.249 1.5884C154.567 1.65044 155.835 1.67922 157.027 1.67417C158.193 1.65134 159.28 1.58895 160.478 1.57002C161.675 1.55109 163.498 1.56194 164.974 1.52978C166.451 1.49763 167.91 1.49329 169.354 1.51677ZM63.1814 -1.73747C63.3167 -1.56545 63.7954 -1.45838 64.3105 -1.41251C66.086 -1.20883 67.8414 -1.12216 69.2819 -1.16704C70.06 -1.22964 71.0974 -1.20554 72.1901 -1.09948C73.4624 -0.989229 74.6516 -0.970945 75.5482 -1.04785C75.7679 -1.06129 75.936 -1.0897 76.0378 -1.13054C76.0576 -1.16393 76.0938 -1.22512 76.1004 -1.23625C76.0062 -1.26447 75.8907 -1.29062 75.7628 -1.31267C75.6348 -1.33473 75.4979 -1.35211 75.3626 -1.36347L69.4812 -1.56039L68.4563 -1.60372C66.5843 -1.71725 64.8005 -1.76247 63.1814 -1.73747ZM74.75 0.985269C75.6679 1.26617 75.6711 1.2606 76.1414 1.32481C78.4101 1.59153 80.6772 1.73552 82.673 1.73963C83.1166 1.73881 83.4931 1.7117 83.7705 1.66056C83.9133 1.65363 84.0041 1.63161 84.0233 1.5993C84.0424 1.56699 83.9883 1.52701 83.8727 1.48809L83.1428 1.29019C81.8172 1.20452 80.5107 1.13645 79.231 1.08638C77.7411 1.02726 76.4208 1.02498 74.8762 1.0009L74.75 0.985269ZM150.19 43.1147C151.046 43.5013 151.049 43.4957 152.481 43.5954C153.479 43.6661 154.447 43.7076 155.356 43.7186C156.467 43.7308 157.606 43.7525 158.714 43.7702C158.985 43.7826 159.214 43.7723 159.357 43.7416C159.501 43.7108 159.548 43.6616 159.491 43.6037C159.345 43.5407 159.118 43.4799 158.845 43.4309C158.573 43.382 158.271 43.3479 157.99 43.3342L157.385 43.325C156.651 43.3057 155.889 43.277 155.18 43.2728C154.719 43.2888 154.186 43.2764 153.622 43.2366C153.058 43.1967 152.478 43.1305 151.927 43.0431L150.19 43.1147ZM79.3172 -1.23198C79.5456 -1.16503 79.8039 -1.10091 80.0852 -1.04131C81.1746 -0.876142 82.3276 -0.782331 83.3181 -0.778271C83.7865 -0.76804 84.2148 -0.804572 84.6916 -0.751484C85.5469 -0.680545 86.3757 -0.642757 87.1334 -0.640165C87.1334 -0.640165 87.3459 -0.655655 87.4156 -0.658963L87.5607 -0.903759C87.202 -0.960468 86.8279 -1.0068 86.4557 -1.04061C85.2066 -1.10574 83.9791 -1.15027 82.755 -1.20036C81.5308 -1.25045 81.104 -1.27346 80.3034 -1.29497C79.9463 -1.28315 79.616 -1.26205 79.3172 -1.23198ZM52.2669 29.201L53.9016 29.702C54.4306 29.7456 54.9247 29.7534 55.3089 29.7245C55.6931 29.6955 55.9462 29.6313 56.0298 29.5416C56.1644 29.4996 56.1779 29.4374 56.0674 29.3681C55.9569 29.2987 55.7309 29.2276 55.437 29.1696C55.1541 29.1008 54.8312 29.0392 54.4882 28.9885C54.1451 28.9378 53.7894 28.8991 53.443 28.8748L52.2669 29.201ZM65.8771 26.7063C64.8079 26.6213 63.7853 26.5866 62.8874 26.6047C62.3217 26.6544 61.5552 26.6386 60.745 26.5603C59.2716 26.4045 57.8512 26.3613 56.7837 26.44C56.7837 26.44 56.7441 26.5067 56.5631 26.5261C56.3822 26.5455 57.0998 26.5926 57.2577 26.6122C58.4154 26.66 59.5797 26.6967 60.5862 26.7139C61.211 26.7131 61.8719 26.7289 62.5576 26.761C63.501 26.8104 64.3956 26.8264 65.2066 26.8084C65.2066 26.8084 65.5204 26.7935 65.8738 26.7118L65.8771 26.7063ZM180.058 0.609016C179.547 0.514654 178.993 0.437962 178.438 0.384696C177.883 0.331432 177.34 0.302981 176.851 0.301465C176.477 0.296542 176.174 0.321456 175.991 0.37227C175.807 0.423082 175.753 0.496896 175.838 0.582037C176.217 0.628957 176.722 0.691517 177.006 0.726707C177.991 0.723263 178.831 0.678016 180.058 0.609016ZM275.652 8.56089C275.242 8.48493 274.791 8.42685 274.349 8.39329C273.908 8.35973 273.494 8.35204 273.155 8.37109C272.981 8.37936 273.099 8.46567 273.07 8.51575C273.05 8.5271 273.05 8.54122 273.07 8.55663C273.09 8.57204 273.129 8.58817 273.182 8.60333C273.235 8.61849 273.302 8.63212 273.374 8.64279C273.446 8.65347 273.521 8.6608 273.592 8.66401C274.036 8.69674 274.456 8.70648 274.813 8.69237C275.17 8.67825 275.454 8.64073 275.639 8.58315L275.652 8.56089ZM282.057 9.64679C281.994 9.60196 281.859 9.55525 281.677 9.5152C281.495 9.47515 281.279 9.44445 281.068 9.42875C280.695 9.42664 280.356 9.43907 280.063 9.46557C279.746 9.48601 279.974 9.61579 280.403 9.69279C280.585 9.72369 280.779 9.7478 280.97 9.76319C281.161 9.77858 281.344 9.78483 281.504 9.78145C281.664 9.77806 281.796 9.76513 281.891 9.74369C281.986 9.72224 282.041 9.69288 282.05 9.65792L282.057 9.64679ZM95.9445 -0.755217C94.9889 -0.915374 94.2534 -0.875082 93.4444 -0.939453C92.6353 -1.00382 92.436 -1.0106 92.5444 -0.907591C92.6528 -0.804588 93.2074 -0.825477 93.5547 -0.782466C94.0239 -0.725395 94.4959 -0.692624 94.9179 -0.687811C95.34 -0.682997 95.6955 -0.706337 95.9445 -0.755217ZM295.07 26.3435C294.563 26.3076 294.068 26.2822 293.59 26.2677C293.527 26.2826 293.487 26.3021 293.474 26.325C293.46 26.348 293.473 26.3739 293.51 26.4013C293.51 26.4013 293.835 26.4832 294.024 26.5067C294.722 26.5871 294.756 26.4719 295.07 26.3435ZM366.607 41.2652C366.95 41.3733 367.109 41.4468 367.384 41.4987C367.51 41.5167 367.64 41.5298 367.765 41.537C367.89 41.5442 368.006 41.5453 368.105 41.5402C368.225 41.5091 368.253 41.4614 368.184 41.4067C368.184 41.4067 367.835 41.3097 367.702 41.3052C367.323 41.2823 366.955 41.2689 366.607 41.2652ZM79.679 -1.6709C78.9529 -1.76083 78.2583 -1.84686 77.7556 -1.74191C78.9086 -1.62897 78.9087 -1.62896 79.679 -1.6709ZM91.4395 -0.644315C90.7063 -0.836646 90.2761 -0.8541 89.9241 -0.832001C89.8493 -0.826436 89.7998 -0.81403 89.7831 -0.796667C89.7664 -0.779306 89.7834 -0.757932 89.8315 -0.735775C89.8796 -0.713619 89.9563 -0.69189 90.0498 -0.673871C90.1434 -0.655853 90.2488 -0.642528 90.3501 -0.635913C90.7325 -0.630376 91.0971 -0.633187 91.4395 -0.644315ZM129.176 -0.562985C129.192 -0.590803 129.212 -0.624184 129.023 -0.647644C128.973 -0.659554 128.915 -0.669795 128.854 -0.677345C128.793 -0.684895 128.731 -0.689482 128.675 -0.69065C128.675 -0.69065 128.656 -0.657267 128.642 -0.635013L129.176 -0.562985ZM155.381 45.6208L154.959 45.6462L155.149 45.6696L155.648 45.6838L155.381 45.6208ZM303.867 9.21272C303.709 9.19317 303.551 9.17362 303.528 9.21257C303.495 9.21859 303.474 9.2273 303.468 9.23795C303.461 9.24859 303.47 9.26087 303.492 9.27376C303.492 9.27376 303.713 9.30114 303.807 9.31287L303.867 9.21272ZM279.283 9.5242C279.179 9.52197 279.086 9.52458 279.008 9.53187L278.988 9.56525L279.303 9.60435L279.283 9.5242ZM65.0433 17.4779C64.9214 17.4576 64.7921 17.4416 64.6645 17.431L64.5066 17.4114C64.5066 17.4114 64.6762 17.4683 64.7709 17.48C64.8656 17.4917 64.942 17.4773 65.0433 17.4779Z" fill="#11BDCF"/>
</g>
</svg>
