<svg width="24" height="25" viewBox="0 0 24 25" fill="none" xmlns="http://www.w3.org/2000/svg">
<circle cx="12" cy="12.4707" r="12" fill="#DBF5F8"/>
<g clip-path="url(#clip0)">
<path d="M19.7459 8.30345C19.6564 7.88148 19.4388 7.49744 19.1228 7.2038C18.8191 6.91074 18.4269 6.72659 18.0074 6.68015C16.0111 6.50794 14.0073 6.43803 12.0038 6.47069C9.99928 6.44229 7.99458 6.51657 5.99762 6.69324C5.57957 6.73925 5.18887 6.92355 4.88749 7.21689C4.57284 7.50668 4.35447 7.88586 4.26173 8.30345C3.9069 10.8842 3.9069 13.5014 4.26173 16.0822C4.35028 16.5046 4.56806 16.8889 4.88487 17.1819C5.18854 17.4749 5.58078 17.6591 6.00024 17.7055C7.99719 17.8823 10.0019 17.9566 12.0065 17.9281C14.0093 17.9555 16.0123 17.8804 18.0074 17.7029C18.4255 17.6569 18.8162 17.4726 19.1176 17.1792C19.4316 16.8849 19.6474 16.5009 19.7355 16.0796C20.0994 13.9693 20.0706 10.707 19.7459 8.30345ZM15.1719 12.6811L10.59 15.5455C10.4017 15.6052 10.2005 15.6116 10.0087 15.5638C9.91556 15.519 9.83774 15.4476 9.78509 15.3586C9.73244 15.2696 9.70731 15.167 9.71288 15.0637V9.33503C9.70549 9.23077 9.72946 9.12668 9.78172 9.03616C9.83398 8.94564 9.91214 8.87283 10.0061 8.8271C10.0946 8.7743 10.1964 8.74797 10.2994 8.75121C10.4024 8.75446 10.5024 8.78716 10.5874 8.84542L15.1719 11.7071C15.2562 11.7556 15.3254 11.8266 15.3716 11.9121C15.4179 11.9977 15.4394 12.0944 15.4337 12.1915C15.4404 12.2895 15.4193 12.3873 15.373 12.4739C15.3267 12.5605 15.257 12.6323 15.1719 12.6811Z" fill="#113255"/>
</g>
<defs>
<clipPath id="clip0">
<rect width="16" height="11.4574" fill="white" transform="translate(4 6.4707)"/>
</clipPath>
</defs>
</svg>
